<?xml version="1.0" encoding="utf-8"?>
<!-- Generator: Adobe Illustrator 17.0.0, SVG Export Plug-In . SVG Version: 6.00 Build 0)  -->
<!DOCTYPE svg PUBLIC "-//W3C//DTD SVG 1.1//EN" "http://www.w3.org/Graphics/SVG/1.1/DTD/svg11.dtd">
<svg version="1.1" id="Capa_1" xmlns="http://www.w3.org/2000/svg" xmlns:xlink="http://www.w3.org/1999/xlink" x="0px" y="0px"
	 width="124.345px" height="23.919px" viewBox="0 0 124.345 23.919" enable-background="new 0 0 124.345 23.919"
	 xml:space="preserve">
<g>
	<g>
		<g>
			<path fill="#D0CCC7" d="M12.789,8.819c-0.872,0.637-1.526,0.946-1.96,0.929c-0.387-0.034-0.689-0.243-0.904-0.628
				C9.774,8.868,9.699,8.676,9.699,8.541c0-0.251,0.174-0.427,0.527-0.527c1.356-0.435,2.294-1.213,2.812-2.336
				c0.319-0.653,0.479-1.239,0.479-1.758c0-0.737-0.319-1.106-0.954-1.106c-0.99,0-2.362,1.115-4.121,3.343
				C7.621,7.212,6.912,8.233,6.319,9.22c-0.594,0.989-1.085,1.96-1.469,2.915c-0.317,0.803-0.582,1.474-0.79,2.01
				c-0.21,0.537-0.356,0.946-0.441,1.231c-0.402,1.257-0.603,2.38-0.603,3.368c0,1.106,0.334,1.868,1.004,2.286
				c0.167,0.117,0.377,0.177,0.629,0.177c0.703,0,1.591-0.437,2.663-1.307c0.971-0.787,1.666-1.542,2.086-2.261
				c0.351-0.586,0.626-0.879,0.829-0.879c0.2,0,0.389,0.125,0.564,0.377c0.177,0.251,0.265,0.486,0.265,0.703
				c0,0.251-0.086,0.486-0.252,0.703c-2.362,3.3-4.64,4.95-6.833,4.95c-0.705,0-1.391-0.194-2.062-0.579
				C0.637,22.142,0,20.736,0,18.692c0-1.976,0.545-4.145,1.634-6.508c1.843-3.935,3.995-6.959,6.456-9.07
				c1.641-1.389,3.224-2.084,4.749-2.084c0.854,0,1.515,0.285,1.984,0.854c0.469,0.57,0.703,1.29,0.703,2.161
				c0,0.787-0.185,1.549-0.552,2.286C14.522,7.269,13.793,8.098,12.789,8.819z"/>
			<path fill="#D0CCC7" d="M26.833,16.708c-0.705,0.703-1.524,1.13-2.461,1.281c-0.203,0.034-0.411,0.059-0.629,0.075
				c-0.219,0.017-0.445,0.025-0.678,0.025c-1.173,0-1.973-0.155-2.399-0.464c-0.428-0.31-0.641-0.716-0.641-1.218
				c0-0.234,0.066-0.603,0.201-1.106c0.016-0.066,0.016-0.117,0-0.151c-0.034-0.016-0.081,0-0.139,0.051
				c-0.059,0.05-0.105,0.109-0.138,0.176c-0.251,0.503-0.703,1.047-1.357,1.634c-0.938,0.838-1.833,1.256-2.689,1.256
				c-0.82,0-1.457-0.277-1.909-0.829c-0.469-0.52-0.703-1.198-0.703-2.035c0-1.089,0.335-2.269,1.004-3.542
				c0.669-1.289,1.607-2.269,2.814-2.94c0.904-0.503,1.817-0.762,2.74-0.778c0.686-0.017,1.314,0.125,1.885,0.427
				c0.268,0.151,0.452,0.135,0.552-0.05c0.117-0.185,0.217-0.319,0.3-0.403c0.135-0.134,0.268-0.225,0.403-0.276
				c0.167-0.051,0.486-0.025,0.954,0.075c0.47,0.083,0.763,0.176,0.881,0.276c0.167,0.185,0.192,0.437,0.075,0.754
				c-0.237,0.503-0.705,1.542-1.408,3.116c-0.268,0.62-0.489,1.169-0.665,1.646c-0.176,0.477-0.323,0.891-0.439,1.243
				c-0.117,0.351-0.176,0.644-0.176,0.879c0,0.219,0.059,0.387,0.176,0.503c0.268,0.268,0.829,0.402,1.684,0.402
				c0.317,0,0.728-0.151,1.229-0.452c0.286-0.167,0.546-0.347,0.78-0.539c0.234-0.192,0.436-0.407,0.603-0.641
				c0.083-0.102,0.151-0.075,0.2,0.075c0.117,0.285,0.16,0.611,0.126,0.98C26.975,16.439,26.916,16.624,26.833,16.708z
				 M21.406,10.451c0-0.285-0.284-0.436-0.854-0.452c-0.503-0.032-1.114,0.177-1.834,0.628c-0.687,0.452-1.24,0.997-1.658,1.632
				c-0.754,1.191-1.131,2.195-1.131,3.015c0,0.787,0.301,1.182,0.904,1.182c0.317,0,0.694-0.219,1.131-0.653
				c0.083-0.083,0.213-0.231,0.39-0.439c0.174-0.209,0.405-0.482,0.69-0.816c0.771-0.938,1.549-2.254,2.337-3.946
				C21.398,10.569,21.406,10.518,21.406,10.451z"/>
			<path fill="#D0CCC7" d="M33.39,16.708c-0.703,0.703-1.524,1.13-2.463,1.281c-0.536,0.1-1.037,0.151-1.508,0.151
				c-0.754,0-1.381-0.117-1.883-0.352c-0.671-0.368-1.004-0.995-1.004-1.885c0-0.117,0.004-0.251,0.012-0.402
				c0.009-0.151,0.022-0.326,0.038-0.527c0.135-1.34,0.586-3.366,1.356-6.08c0.62-2.177,1.198-3.944,1.734-5.301
				c0.569-1.507,1.372-2.22,2.412-2.136c0.351,0.034,0.641,0.197,0.867,0.49c0.226,0.294,0.339,0.667,0.339,1.119
				c0,0.285-0.05,0.586-0.151,0.904c-0.352,1.038-0.931,2.093-1.734,3.166c-0.102,0.133-0.276,0.485-0.527,1.053
				c-0.938,2.815-1.591,5.05-1.96,6.709c-0.117,0.469-0.177,0.796-0.177,0.98c0,0.219,0.06,0.386,0.177,0.503
				c0.234,0.234,0.803,0.351,1.708,0.351c0.32,0,0.73-0.151,1.232-0.452c0.285-0.167,0.543-0.347,0.778-0.539
				c0.235-0.192,0.436-0.407,0.603-0.641c0.084-0.102,0.151-0.075,0.201,0.075c0.117,0.285,0.158,0.611,0.125,0.98
				C33.531,16.439,33.474,16.624,33.39,16.708z"/>
			<path fill="#D0CCC7" d="M39.946,16.708c-0.702,0.703-1.523,1.13-2.461,1.281c-0.536,0.1-1.038,0.151-1.508,0.151
				c-0.754,0-1.381-0.117-1.885-0.352c-0.671-0.368-1.004-0.995-1.004-1.885c0-0.117,0.004-0.251,0.012-0.402
				c0.011-0.151,0.022-0.326,0.039-0.527c0.134-1.34,0.585-3.366,1.356-6.08c0.619-2.177,1.197-3.944,1.734-5.301
				c0.569-1.507,1.372-2.22,2.412-2.136c0.351,0.034,0.64,0.197,0.866,0.49c0.226,0.294,0.341,0.667,0.341,1.119
				c0,0.285-0.052,0.586-0.151,0.904c-0.353,1.038-0.931,2.093-1.734,3.166c-0.102,0.133-0.277,0.485-0.527,1.053
				c-0.938,2.815-1.592,5.05-1.96,6.709c-0.118,0.469-0.177,0.796-0.177,0.98c0,0.219,0.059,0.386,0.177,0.503
				c0.234,0.234,0.803,0.351,1.708,0.351c0.318,0,0.729-0.151,1.232-0.452c0.283-0.167,0.543-0.347,0.777-0.539
				c0.235-0.192,0.437-0.407,0.603-0.641c0.084-0.102,0.151-0.075,0.203,0.075c0.117,0.285,0.158,0.611,0.125,0.98
				C40.089,16.439,40.031,16.624,39.946,16.708z"/>
		</g>
		<g>
			<path fill="#D0CCC7" d="M62.58,14.397c-0.551,0-1.014-0.075-1.381-0.226c-0.151-0.068-0.278-0.084-0.377-0.05
				c-0.052,0.017-0.117,0.15-0.203,0.402c-0.418,1.607-1.071,3.083-1.96,4.423c-1.139,1.708-2.319,2.561-3.54,2.561
				c-0.938,0-1.643-0.385-2.111-1.155c-0.353-0.62-0.527-1.432-0.527-2.437c0-2.059,0.678-4.674,2.035-7.839
				c1.255-2.897,2.929-5.166,5.025-6.809c1.874-1.507,3.717-2.235,5.526-2.185c1.492,0.032,2.615,0.552,3.368,1.557
				c0.619,0.821,0.928,1.918,0.928,3.292c0,1.508-0.411,3.047-1.23,4.623c-0.889,1.708-1.952,2.823-3.192,3.34
				C64.173,14.229,63.386,14.397,62.58,14.397z M66.26,6.808C66.287,6.523,66.3,6.239,66.3,5.955c0-1.892-0.621-2.855-1.858-2.889
				c-1.541-0.017-3.282,1.223-5.227,3.718c-1.607,2.093-2.695,4.071-3.264,5.929c-0.772,2.563-1.157,4.23-1.157,5
				c0,0.687,0.219,1.03,0.653,1.03c0.821,0,1.734-1.784,2.74-5.352c0.268-1.022,0.543-2.729,0.829-5.126
				c0.034-0.285,0.172-0.502,0.414-0.653c0.244-0.151,0.481-0.301,0.717-0.452c0.317-0.251,0.619-0.377,0.904-0.377
				c0.317,0,0.494,0.192,0.527,0.578c0.034,0.452,0.029,1.05-0.013,1.796c-0.041,0.745-0.13,1.646-0.265,2.701
				c-0.049,0.335,0.041,0.52,0.278,0.552c1.139,0.084,2.152-0.435,3.038-1.557c0.772-0.922,1.273-1.986,1.508-3.191
				C66.19,7.379,66.237,7.095,66.26,6.808z"/>
			<path fill="#D0CCC7" d="M81.549,16.708c-0.705,0.703-1.523,1.13-2.461,1.281c-0.203,0.034-0.411,0.059-0.629,0.075
				c-0.219,0.017-0.445,0.025-0.678,0.025c-1.173,0-1.973-0.155-2.399-0.464c-0.427-0.31-0.64-0.716-0.64-1.218
				c0-0.234,0.065-0.603,0.2-1.106c0.016-0.066,0.016-0.117,0-0.151c-0.034-0.016-0.081,0-0.138,0.051
				c-0.06,0.05-0.106,0.109-0.138,0.176c-0.252,0.503-0.705,1.047-1.357,1.634c-0.938,0.838-1.835,1.256-2.69,1.256
				c-0.818,0-1.455-0.277-1.908-0.829c-0.47-0.52-0.705-1.198-0.705-2.035c0-1.089,0.335-2.269,1.006-3.542
				c0.668-1.289,1.606-2.269,2.812-2.94c0.904-0.503,1.817-0.762,2.74-0.778c0.686-0.017,1.315,0.125,1.885,0.427
				c0.268,0.151,0.452,0.135,0.553-0.05c0.117-0.185,0.216-0.319,0.299-0.403c0.135-0.134,0.268-0.225,0.403-0.276
				c0.167-0.051,0.486-0.025,0.954,0.075c0.47,0.083,0.764,0.176,0.881,0.276c0.167,0.185,0.192,0.437,0.075,0.754
				c-0.237,0.503-0.705,1.542-1.408,3.116c-0.268,0.62-0.489,1.169-0.665,1.646c-0.174,0.477-0.323,0.891-0.439,1.243
				c-0.117,0.351-0.174,0.644-0.174,0.879c0,0.219,0.057,0.387,0.174,0.503c0.268,0.268,0.829,0.402,1.684,0.402
				c0.317,0,0.728-0.151,1.229-0.452c0.286-0.167,0.546-0.347,0.78-0.539c0.234-0.192,0.437-0.407,0.603-0.641
				c0.083-0.102,0.151-0.075,0.2,0.075c0.117,0.285,0.161,0.611,0.127,0.98C81.692,16.439,81.632,16.624,81.549,16.708z
				 M76.122,10.451c0-0.285-0.283-0.436-0.852-0.452c-0.504-0.032-1.115,0.177-1.835,0.628c-0.686,0.452-1.24,0.997-1.658,1.632
				c-0.754,1.191-1.131,2.195-1.131,3.015c0,0.787,0.301,1.182,0.904,1.182c0.317,0,0.694-0.219,1.131-0.653
				c0.083-0.083,0.213-0.231,0.39-0.439c0.174-0.209,0.405-0.482,0.692-0.816c0.769-0.938,1.549-2.254,2.337-3.946
				C76.114,10.569,76.122,10.518,76.122,10.451z"/>
			<path fill="#D0CCC7" d="M93.659,16.708c-0.702,0.703-1.523,1.13-2.461,1.281c-0.384,0.083-0.754,0.138-1.105,0.164
				c-0.353,0.025-0.678,0.029-0.98,0.012c-1.089-0.05-1.843-0.151-2.261-0.301c-0.151-0.066-0.294-0.083-0.429-0.05
				c-0.185,0.066-0.418,0.125-0.702,0.176c-0.286,0.051-0.621,0.109-1.006,0.176c0.049,0-0.06-0.012-0.328-0.038
				c-0.268-0.024-0.694-0.072-1.282-0.138c-0.133-0.017-0.241,0.025-0.325,0.127c-0.237,0.803-0.47,1.625-0.705,2.461
				c-0.234,0.839-0.479,1.709-0.728,2.614c-0.135,0.317-0.369,0.511-0.705,0.577c-0.787,0.201-1.365,0.201-1.734,0
				c-0.301-0.151-0.4-0.368-0.301-0.653c0.268-0.705,0.621-1.754,1.055-3.153c0.437-1.399,0.972-3.154,1.609-5.265
				c0.335-1.255,0.681-2.524,1.042-3.805c0.359-1.282,0.732-2.584,1.118-3.906c0.117-0.252,0.294-0.428,0.527-0.527
				c0.102-0.034,0.351-0.068,0.754-0.102c0.418,0,0.694,0.034,0.829,0.102c0.369,0.167,0.478,0.435,0.327,0.803
				c-0.067,0.184-0.182,0.537-0.341,1.055c-0.158,0.52-0.356,1.223-0.59,2.111c-0.034,0.133-0.034,0.209,0,0.226
				c0.034,0.034,0.075,0.017,0.125-0.051c1.442-1.691,2.68-2.536,3.72-2.536c0.384,0,0.746,0.083,1.081,0.251
				c0.988,0.486,1.481,1.231,1.481,2.237c0,0.301-0.049,0.836-0.151,1.607c-0.083,0.687-0.46,1.542-1.131,2.563
				c-0.47,0.703-0.847,1.197-1.13,1.481c-0.2,0.202-0.226,0.328-0.075,0.377c0.502,0.202,1.198,0.243,2.084,0.127
				c0.335-0.051,0.746-0.202,1.232-0.452c0.585-0.335,1.029-0.72,1.331-1.156c0.083-0.102,0.151-0.075,0.2,0.075
				c0.117,0.285,0.161,0.611,0.127,0.98C93.802,16.439,93.742,16.624,93.659,16.708z M88.697,10.465
				c-0.21-0.226-0.473-0.34-0.79-0.34c-0.219,0-0.445,0.068-0.678,0.202c-0.486,0.284-1.198,1.13-2.136,2.536
				c-0.889,1.357-1.417,2.312-1.583,2.864c-0.034,0.133-0.008,0.209,0.075,0.226c0.083,0.017,0.2-0.005,0.351-0.063
				c0.151-0.059,0.377-0.088,0.678-0.088c0.787,0,1.399,0.126,1.835,0.377c0.068,0.034,0.21-0.075,0.427-0.326
				c0.52-0.603,0.998-1.357,1.432-2.261c0.437-0.904,0.663-1.642,0.678-2.211C89.004,10.996,88.907,10.69,88.697,10.465z"/>
			<path fill="#D0CCC7" d="M103.356,16.708c-0.705,0.703-1.523,1.139-2.461,1.306c-0.738,0.151-1.567,0.226-2.487,0.226
				c-1.926,0-3.282-0.317-4.071-0.954c-0.904-0.754-1.357-1.792-1.357-3.115c0-1.157,0.335-2.395,1.006-3.72
				c0.484-0.954,1.162-1.666,2.033-2.136c0.72-0.402,1.466-0.603,2.238-0.603c0.434,0,0.777,0.059,1.029,0.177
				c0.972,0.418,1.458,1.231,1.458,2.437c0,0.268-0.026,0.552-0.075,0.854c-0.135,0.804-0.738,1.784-1.809,2.94
				c-0.335,0.368-0.665,0.699-0.993,0.992c-0.328,0.294-0.65,0.558-0.967,0.791c-0.086,0.084-0.127,0.135-0.127,0.151
				c0,0.068,0.102,0.151,0.301,0.252c0.738,0.418,1.903,0.552,3.493,0.402c1.04-0.1,1.919-0.637,2.638-1.608
				c0.083-0.102,0.151-0.075,0.2,0.075c0.117,0.285,0.158,0.611,0.127,0.98C103.499,16.439,103.44,16.624,103.356,16.708z
				 M97.313,10.137c-0.411,0.309-0.733,0.717-0.967,1.218c-0.535,1.123-0.803,2.061-0.803,2.815c0,0.536,0.167,0.686,0.501,0.452
				c1.123-0.705,1.976-1.558,2.563-2.563c0.368-0.619,0.553-1.131,0.553-1.533c0-0.569-0.244-0.855-0.73-0.855
				C98.095,9.673,97.724,9.827,97.313,10.137z"/>
			<path fill="#D0CCC7" d="M113.759,16.708c-0.738,0.737-1.557,1.164-2.461,1.281c-1.526,0.251-2.651,0.209-3.379-0.126
				c-0.73-0.335-1.094-0.837-1.094-1.508c0-0.167,0.026-0.368,0.075-0.603c0.083-0.384,0.19-0.786,0.314-1.204
				c0.125-0.418,0.281-0.871,0.465-1.357c0.268-0.754,0.468-1.24,0.603-1.458c0.117-0.2,0.117-0.427,0-0.678
				c-0.117-0.234-0.452-0.501-1.006-0.803c-0.135-0.084-0.242-0.009-0.328,0.226c-0.418,1.038-0.735,1.821-0.954,2.348
				c-0.219,0.527-0.335,0.809-0.351,0.842c-0.705,1.39-1.582,2.521-2.638,3.392c-0.655,0.502-1.349,0.812-2.087,0.929
				c-0.099,0.034-0.174-0.017-0.226-0.151c-0.117-0.251-0.174-0.527-0.174-0.829c0-0.151,0.034-0.234,0.099-0.251
				c0.603-0.133,1.089-0.335,1.458-0.603c0.268-0.201,0.644-0.578,1.13-1.131c0.335-0.418,0.754-1.138,1.255-2.161
				c0.554-1.121,0.98-2.227,1.281-3.316c0.018-0.066,0.031-0.113,0.039-0.138c0.008-0.025,0.013-0.046,0.013-0.063
				c-0.018-0.102-0.075-0.252-0.177-0.452c-0.102-0.202-0.151-0.411-0.151-0.629c0-0.066,0.005-0.142,0.013-0.226
				c0.008-0.083,0.021-0.167,0.036-0.251c0.185-0.953,0.663-1.423,1.432-1.406c0.655,0.017,1.014,0.427,1.081,1.231
				c0.016,0.151-0.026,0.368-0.125,0.653c-0.034,0.102-0.034,0.177,0,0.226c0.034,0.05,0.109,0.105,0.226,0.164
				c0.117,0.058,0.276,0.133,0.475,0.226c0.203,0.092,0.452,0.222,0.754,0.39c0.603,0.335,1.006,0.586,1.206,0.754
				c0.335,0.284,0.47,0.644,0.403,1.08c-0.05,0.268-0.343,1.056-0.879,2.362c-0.268,0.637-0.473,1.151-0.616,1.545
				c-0.143,0.394-0.231,0.665-0.265,0.816c-0.099,0.486,0.093,0.78,0.579,0.88c0.2,0.05,0.603,0.058,1.206,0.024
				c0.317-0.016,0.728-0.167,1.229-0.452c0.603-0.334,1.066-0.728,1.383-1.18c0.083-0.102,0.151-0.075,0.2,0.075
				c0.117,0.285,0.158,0.611,0.127,0.98C113.901,16.439,113.842,16.624,113.759,16.708z"/>
			<path fill="#D0CCC7" d="M124.158,16.708c-0.702,0.703-1.523,1.13-2.461,1.281c-0.486,0.083-1.037,0.109-1.659,0.075
				c-0.72-0.05-1.188-0.151-1.406-0.301c-0.083-0.05-0.185-0.058-0.301-0.024c-0.403,0.151-0.611,0.234-0.629,0.251
				c-0.301,0.066-0.744,0.117-1.331,0.151c-1.222,0.066-2.178-0.251-2.864-0.955c-0.102-0.083-0.185-0.091-0.252-0.025
				c-0.502,0.402-1.139,0.678-1.908,0.829c-0.151,0-0.234-0.05-0.252-0.151c-0.117-0.251-0.177-0.527-0.177-0.829
				c0-0.168,0.034-0.26,0.102-0.277c0.87-0.151,1.726-0.694,2.563-1.632c0.234-0.268,0.52-0.624,0.855-1.068
				c0.335-0.443,0.72-0.975,1.154-1.595c0.972-1.374,1.533-2.287,1.684-2.739c0.016-0.117-0.021-0.28-0.115-0.491
				c-0.091-0.209-0.138-0.422-0.138-0.641c0-0.066,0.005-0.138,0.013-0.213c0.008-0.075,0.021-0.155,0.039-0.239
				c0.083-0.418,0.351-0.762,0.803-1.029c0.486-0.301,0.938-0.443,1.356-0.427c0.821,0.034,1.222,0.362,1.206,0.98
				c-0.034,0.219-0.143,0.503-0.328,0.855c-0.117,0.235-0.208,0.423-0.276,0.565c-0.068,0.143-0.117,0.249-0.151,0.314
				c-0.083,0.236-0.083,0.387,0,0.452c0.167,0.134,0.328,0.319,0.479,0.552c0.151,0.235,0.309,0.52,0.475,0.855
				c0.418,0.821,0.611,1.666,0.579,2.537c-0.018,0.235-0.065,0.49-0.14,0.767c-0.075,0.276-0.195,0.573-0.364,0.891
				c-0.249,0.452-0.452,0.754-0.603,0.905c-0.117,0.117-0.109,0.222,0.026,0.314c0.133,0.092,0.554,0.121,1.255,0.087
				c0.32-0.016,0.73-0.167,1.232-0.452c0.603-0.334,1.063-0.728,1.381-1.18c0.086-0.102,0.151-0.075,0.203,0.075
				c0.117,0.285,0.158,0.611,0.125,0.98C124.301,16.439,124.244,16.624,124.158,16.708z M118.53,13.366
				c0-0.62-0.091-1.131-0.275-1.533c-0.05-0.117-0.117-0.16-0.2-0.126c-0.086,0-0.151,0.058-0.203,0.176
				c-0.068,0.151-0.46,0.705-1.18,1.659c-0.637,0.804-1.063,1.332-1.281,1.583c-0.083,0.117-0.125,0.201-0.125,0.251
				c0,0.102,0.099,0.185,0.301,0.252c0.283,0.134,0.475,0.418,0.577,0.855c0.034,0.133,0.21,0.151,0.527,0.05
				c0.803-0.268,1.365-0.913,1.684-1.935C118.473,14.246,118.53,13.835,118.53,13.366z"/>
		</g>
	</g>
	<circle fill="#F8F5EF" cx="47.432" cy="11.29" r="11.29"/>
	<circle fill="#D0CCC7" cx="47.431" cy="11.29" r="10.352"/>
	<g>
		<path fill="#F3F2F1" d="M44.072,6.634c-0.045-0.177-0.095-0.311-0.145-0.405c-0.05-0.092-0.109-0.172-0.174-0.237
			c-0.112-0.11-0.278-0.167-0.5-0.167c-0.233,0-0.423,0.075-0.572,0.222c-0.139,0.158-0.208,0.404-0.208,0.738v1.209h1.295v0.85
			h-1.295v5.108h1.295v0.85h-2.227v-0.626h-0.014V8.847H40.51v-0.85h1.015V6.927c0-0.287,0.04-0.549,0.12-0.786
			c0.078-0.237,0.201-0.443,0.368-0.62c0.316-0.361,0.733-0.543,1.253-0.543c0.463,0,0.839,0.145,1.128,0.432
			c0.139,0.15,0.252,0.309,0.341,0.481s0.151,0.378,0.188,0.62L44.072,6.634z"/>
		<path fill="#F3F2F1" d="M49.599,13.955C48.959,14.651,48.151,15,47.177,15c-0.974,0-1.781-0.348-2.423-1.045
			c-0.65-0.677-0.974-1.526-0.974-2.548c0-1.02,0.325-1.869,0.974-2.547c0.641-0.696,1.448-1.044,2.423-1.044
			c0.974,0,1.782,0.348,2.421,1.044c0.65,0.678,0.974,1.527,0.974,2.547C50.573,12.429,50.248,13.278,49.599,13.955z M48.93,9.459
			c-0.455-0.51-1.04-0.766-1.754-0.766c-0.714,0-1.299,0.255-1.754,0.766c-0.455,0.511-0.683,1.161-0.683,1.948
			c0,0.789,0.228,1.439,0.683,1.949c0.455,0.511,1.04,0.766,1.754,0.766c0.714,0,1.298-0.255,1.754-0.766
			c0.455-0.511,0.683-1.16,0.683-1.949C49.613,10.621,49.385,9.97,48.93,9.459z"/>
		<path fill="#F3F2F1" d="M55.417,8.736c-0.918,0-1.596,0.191-2.031,0.57c-0.427,0.381-0.641,0.984-0.641,1.81v2.839h1.35v0.85H51.8
			v-0.738V8.847h-1.253v-0.85h2.199v0.906c0.083-0.121,0.186-0.246,0.307-0.377c0.12-0.128,0.255-0.237,0.402-0.32
			c0.13-0.065,0.277-0.125,0.439-0.18c0.163-0.057,0.332-0.1,0.508-0.133c0.176-0.032,0.352-0.057,0.529-0.077
			c0.176-0.018,0.338-0.022,0.486-0.013l0.377,0.013v0.919L55.417,8.736L55.417,8.736z"/>
	</g>
</g>
</svg>
