<?xml version="1.0" encoding="utf-8"?>
<!-- Generator: Adobe Illustrator 17.0.0, SVG Export Plug-In . SVG Version: 6.00 Build 0)  -->
<!DOCTYPE svg PUBLIC "-//W3C//DTD SVG 1.1//EN" "http://www.w3.org/Graphics/SVG/1.1/DTD/svg11.dtd">
<svg version="1.1" id="Capa_1" xmlns="http://www.w3.org/2000/svg" xmlns:xlink="http://www.w3.org/1999/xlink" x="0px" y="0px"
	 width="70.544px" height="27.262px" viewBox="0 0 70.544 27.262" enable-background="new 0 0 70.544 27.262" xml:space="preserve">
<g>
	<path fill="#51453F" d="M68.682,11.791c-1.181-1.196-2.614-1.802-4.283-1.861h-4.39v3.152l0.004,0.039v9.437h4.387
		c0.013,0,0.026-0.002,0.039-0.002h0.001c0.002,0,0.002,0,0.002,0c1.637-0.054,3.07-0.658,4.241-1.844
		c1.256-1.226,1.861-2.718,1.861-4.461C70.544,14.508,69.938,13.032,68.682,11.791z M65.906,17.95
		c-0.459,0.473-1.034,0.709-1.669,0.709H64.06v-4.801c0.044-0.015,0.118-0.015,0.177-0.015c0.635,0,1.211,0.236,1.669,0.709
		c0.473,0.472,0.709,1.033,0.709,1.698C66.614,16.916,66.379,17.492,65.906,17.95z"/>
	<polygon fill="#51453F" points="55.774,9.93 54.858,16.532 54.85,16.502 54.846,16.532 53.266,9.93 52.203,9.941 51.818,9.944 
		51.815,9.944 51.73,9.944 51.726,9.944 51.342,9.941 50.279,9.93 48.699,16.532 48.695,16.502 48.688,16.532 47.771,9.93 
		42.835,9.93 45.596,22.558 50.445,22.558 51.411,18.202 51.77,16.561 51.772,16.57 51.774,16.561 52.134,18.202 53.1,22.558 
		57.949,22.558 60.71,9.93 	"/>
	<path fill="#51453F" d="M42.652,11.791c-1.21-1.24-2.7-1.859-4.455-1.861c-0.001,0-0.002,0-0.002,0h-0.003h-0.001
		c-1.743,0-3.235,0.621-4.461,1.861c-1.241,1.226-1.861,2.717-1.861,4.46c0,1.743,0.621,3.235,1.861,4.461
		c1.226,1.24,2.718,1.846,4.461,1.846c1.757,0,3.25-0.606,4.461-1.846c1.256-1.226,1.876-2.718,1.876-4.461
		C44.528,14.508,43.908,13.016,42.652,11.791z M39.801,17.846c-0.443,0.458-0.959,0.68-1.61,0.68c-0.62,0-1.166-0.222-1.595-0.68
		c-0.458-0.428-0.679-0.975-0.679-1.595c0-0.635,0.221-1.167,0.679-1.624c0.429-0.443,0.975-0.664,1.595-0.664
		c0.651,0,1.167,0.221,1.61,0.664c0.443,0.458,0.68,0.99,0.68,1.624C40.481,16.872,40.244,17.418,39.801,17.846z"/>
	<g>
		<path fill="#51453F" d="M21.204,27.215v-2.519h0.461v2.519H21.204z"/>
		<path fill="#51453F" d="M26.165,25.867c0.181,0.257,0.328,0.486,0.44,0.685h0.011c-0.015-0.328-0.023-0.566-0.023-0.716v-1.141
			h0.461v2.519h-0.484l-0.821-1.16c-0.144-0.201-0.294-0.434-0.448-0.698h-0.011c0.015,0.309,0.023,0.548,0.023,0.717v1.141h-0.461
			v-2.519h0.484L26.165,25.867z"/>
		<path fill="#51453F" d="M31.272,27.215H30.81v-2.133h-0.814v-0.386h2.086v0.386h-0.812V27.215z"/>
		<path fill="#51453F" d="M35.486,26.829h1.239v0.386h-1.7v-2.519h1.633v0.386h-1.171v0.652h1.006v0.386h-1.006V26.829z"/>
		<path fill="#51453F" d="M41.663,25.452c0,0.176-0.049,0.325-0.146,0.447s-0.248,0.213-0.451,0.272v0.008l0.75,1.036h-0.554
			l-0.685-0.975H40.26v0.975h-0.461v-2.519h0.766c0.127,0,0.245,0.007,0.354,0.022c0.109,0.015,0.203,0.036,0.281,0.065
			c0.148,0.057,0.262,0.14,0.343,0.251C41.623,25.144,41.663,25.284,41.663,25.452z M40.488,25.853c0.105,0,0.195-0.005,0.268-0.014
			c0.074-0.009,0.135-0.024,0.186-0.042c0.093-0.035,0.157-0.083,0.193-0.144c0.036-0.061,0.054-0.131,0.054-0.21
			c0-0.068-0.014-0.128-0.042-0.18c-0.028-0.052-0.076-0.093-0.144-0.123c-0.044-0.02-0.099-0.035-0.166-0.044
			c-0.067-0.01-0.149-0.014-0.247-0.014h-0.33v0.772H40.488z"/>
		<path fill="#51453F" d="M46.247,26.573h-0.949l-0.247,0.642h-0.491l1-2.519h0.422l1,2.519h-0.488L46.247,26.573z M45.768,25.302
			c-0.088,0.264-0.167,0.484-0.236,0.661l-0.086,0.224h0.651l-0.086-0.224c-0.068-0.178-0.147-0.399-0.236-0.661H45.768z"/>
		<path fill="#51453F" d="M51.111,25.038c-0.126,0-0.241,0.021-0.347,0.062c-0.106,0.041-0.197,0.102-0.273,0.181
			c-0.076,0.079-0.135,0.177-0.178,0.293c-0.043,0.116-0.064,0.249-0.064,0.398c0,0.148,0.019,0.278,0.058,0.391
			c0.039,0.112,0.095,0.206,0.167,0.281c0.073,0.075,0.162,0.132,0.266,0.17c0.105,0.038,0.224,0.057,0.357,0.057
			c0.095,0,0.193-0.008,0.292-0.023c0.099-0.015,0.192-0.037,0.279-0.066v0.397c-0.088,0.025-0.183,0.045-0.284,0.059
			c-0.102,0.015-0.207,0.022-0.316,0.022c-0.214,0-0.401-0.031-0.563-0.091c-0.162-0.061-0.297-0.147-0.406-0.258
			c-0.109-0.111-0.19-0.244-0.245-0.399c-0.055-0.155-0.082-0.326-0.082-0.513c0-0.192,0.029-0.37,0.088-0.535
			c0.058-0.164,0.142-0.307,0.252-0.427c0.11-0.121,0.247-0.215,0.412-0.284c0.165-0.069,0.352-0.104,0.56-0.105
			c0.107,0,0.208,0.007,0.303,0.022c0.096,0.015,0.181,0.035,0.258,0.061v0.392c-0.1-0.032-0.194-0.053-0.281-0.066
			C51.278,25.044,51.194,25.038,51.111,25.038z"/>
		<path fill="#51453F" d="M55.753,27.215h-0.461v-2.133h-0.814v-0.386h2.086v0.386h-0.812V27.215z"/>
		<path fill="#51453F" d="M59.506,27.215v-2.519h0.461v2.519H59.506z"/>
		<path fill="#51453F" d="M64.088,26.599c0.046-0.137,0.08-0.234,0.101-0.293c0.021-0.058,0.064-0.178,0.131-0.359l0.467-1.252
			h0.488l-0.985,2.519h-0.414l-0.985-2.519h0.491l0.467,1.252c0.067,0.181,0.11,0.3,0.131,0.359
			c0.021,0.058,0.054,0.156,0.101,0.293H64.088z"/>
		<path fill="#51453F" d="M68.658,26.829h1.239v0.386h-1.7v-2.519h1.633v0.386h-1.171v0.652h1.006v0.386h-1.006V26.829z"/>
	</g>
	<path fill="#51453F" d="M13.973,17.846c0.443,0.443,0.975,0.665,1.61,0.665c0.636,0,1.182-0.222,1.61-0.665
		c0.192-0.191,0.339-0.398,0.457-0.621h4.21c-0.207,1.33-0.797,2.496-1.816,3.486c-1.224,1.238-2.712,1.843-4.45,1.846
		c-0.016,0-0.032-0.001-0.047-0.001c-0.054,0-0.108-0.002-0.161-0.004c-1.133-0.038-2.194-0.366-3.104-0.912
		c-0.407-0.255-0.793-0.564-1.159-0.929c-1.24-1.226-1.846-2.717-1.846-4.461c0-1.743,0.606-3.235,1.846-4.461
		c1.239-1.239,2.714-1.859,4.453-1.861c0.012,0.001,0.022,0,0.034,0.001c0.002,0,0.004,0,0.006,0
		c0.223,0.005,0.437,0.017,0.645,0.032c1.455,0.143,2.72,0.751,3.784,1.828c1.019,0.989,1.625,2.142,1.816,3.486h-4.194
		c-0.133-0.237-0.281-0.458-0.473-0.65c-0.429-0.443-0.975-0.664-1.61-0.664c-0.635,0-1.167,0.221-1.61,0.664
		c-0.429,0.458-0.65,0.99-0.65,1.625C13.323,16.872,13.544,17.419,13.973,17.846z"/>
	<path fill="#51453F" d="M30.268,18.526c0.163-0.118,0.473-0.354,0.902-0.723c0.443-0.37,0.768-0.857,0.99-1.477
		c0.236-0.621,0.354-1.33,0.354-2.127c0-1.181-0.413-2.186-1.256-3.013c-0.752-0.767-1.653-1.182-2.702-1.255h-7.339
		c1.735,1.548,2.829,3.801,2.829,6.31c0,0.035-0.002,0.069-0.003,0.104c0,0.004,0,0.009,0,0.013c0,0.046-0.002,0.092-0.004,0.137
		c-0.071,2.411-1.15,4.568-2.833,6.064h4.735v-3.412l1.948,3.412h4.653L30.268,18.526z M28.393,14.671c0,0.029,0,0.029,0,0.029
		c0,0.03,0,0.03,0,0.06v0.059c-0.03,0.236-0.133,0.428-0.326,0.62c-0.177,0.178-0.398,0.296-0.665,0.296H25.95
		c-0.002-0.001-0.006-0.001-0.008-0.001l0,0v-2.141h1.461c0.266,0.015,0.487,0.118,0.665,0.31c0.222,0.207,0.311,0.428,0.326,0.724
		V14.671z"/>
	<g>
		<circle fill="#51453F" cx="2.219" cy="13.907" r="0.943"/>
		<circle fill="#51453F" cx="4.504" cy="9.795" r="0.433"/>
		<circle fill="#51453F" cx="2.817" cy="10.006" r="0.592"/>
		<circle fill="#51453F" cx="3.709" cy="7.214" r="1.177"/>
		<circle fill="#51453F" cx="6.153" cy="6.178" r="0.751"/>
		<circle fill="#51453F" cx="7.314" cy="3.556" r="0.557"/>
		<circle fill="#51453F" cx="10.051" cy="4.476" r="0.873"/>
		<circle fill="#51453F" cx="10.015" cy="0.766" r="0.75"/>
		<path fill="#51453F" d="M12.78,2.545c0.508,0.334,1.191,0.193,1.524-0.315c0.27-0.411,0.228-0.938-0.067-1.3
			c0.127-0.011,0.249-0.076,0.325-0.191c0.131-0.2,0.076-0.468-0.124-0.6c-0.199-0.132-0.468-0.076-0.599,0.124
			c-0.068,0.103-0.086,0.224-0.059,0.335c-0.473-0.182-1.025-0.019-1.315,0.423C12.13,1.529,12.272,2.211,12.78,2.545z"/>
		<circle fill="#51453F" cx="16.11" cy="3.623" r="0.872"/>
		<circle fill="#51453F" cx="17.706" cy="0.872" r="0.872"/>
		<circle fill="#51453F" cx="19.444" cy="2.448" r="0.557"/>
		<circle fill="#51453F" cx="22.48" cy="7.393" r="0.751"/>
		<circle fill="#51453F" cx="3.006" cy="22.254" r="0.751"/>
		<circle fill="#51453F" cx="0.556" cy="20.269" r="0.557"/>
		<path fill="#51453F" d="M21.441,8.036c-0.108-0.071-0.225-0.116-0.345-0.14l0.005-0.001c0,0-0.25-0.02-0.234-0.268
			c0.034-0.027,0.066-0.059,0.091-0.097c0.131-0.2,0.076-0.468-0.124-0.6c-0.2-0.131-0.468-0.076-0.6,0.124
			c-0.131,0.2-0.075,0.468,0.124,0.6c0.041,0.027,0.086,0.044,0.131,0.056c0.004,0.01,0.01,0.02,0.018,0.028
			c0.087,0.085,0.05,0.172,0.022,0.215c-0.12,0.05-0.231,0.121-0.325,0.217c-0.056-0.094-0.133-0.176-0.23-0.24
			c-0.191-0.125-0.418-0.151-0.622-0.094c0.108-0.439-0.063-0.917-0.463-1.181c-0.132-0.087-0.276-0.141-0.422-0.165
			c0.059-0.048,0.111-0.105,0.155-0.171c0.073-0.112,0.11-0.236,0.118-0.36c0,0,0.003,0.003,0.003,0.003s0.139-0.551,0.588-0.335
			c0.402,0.264,0.944,0.153,1.208-0.25c0.264-0.403,0.153-0.944-0.249-1.209c-0.404-0.264-0.944-0.153-1.209,0.251
			c-0.097,0.148-0.143,0.315-0.142,0.48l-0.001-0.001c0,0,0,0.004,0,0.009c0,0.001,0,0.001,0,0.001c0,0.07-0.017,0.474-0.443,0.439
			c-0.001,0-0.002,0-0.002,0C18.464,5.324,18.437,5.3,18.407,5.28c-0.329-0.216-0.763-0.14-1.002,0.163
			c-0.065-0.151-0.173-0.284-0.321-0.381c-0.403-0.265-0.944-0.153-1.208,0.249c-0.044,0.068-0.077,0.139-0.1,0.212
			c-0.014-0.01-0.026-0.02-0.04-0.029c-0.219-0.144-0.477-0.175-0.711-0.111c0.045-0.048,0.088-0.1,0.125-0.157
			c0.333-0.508,0.192-1.19-0.316-1.524c-0.508-0.334-1.19-0.193-1.524,0.315c-0.176,0.268-0.219,0.585-0.146,0.872
			c-0.433-0.203-0.961-0.064-1.231,0.349c-0.169,0.257-0.199,0.564-0.111,0.836c0.008,0.023,0.016,0.045,0.024,0.065
			c0.01,0.026,0.023,0.051,0.035,0.076c0.182,0.341,0.469,0.259,0.668,0.381c0.002,0.002,0.003,0.003,0.004,0.005
			c0.188,0.101,0.317,0.296,0.317,0.525c0,0.33-0.268,0.598-0.597,0.598c-0.331,0-0.598-0.268-0.598-0.598
			c0-0.031,0.005-0.06,0.009-0.09c0-0.003,0-0.006,0-0.009c0.036-0.359-0.089-0.509-0.144-0.557
			c-0.008-0.007-0.016-0.014-0.026-0.02c-0.122-0.08-0.26-0.119-0.396-0.122l0,0c-0.003,0-0.006,0-0.008,0c-0.001,0-0.003,0-0.005,0
			c-0.03-0.003-0.063,0.001-0.101,0.009c-0.064,0.009-0.127,0.024-0.187,0.049c-0.087,0.022-0.183,0.042-0.286,0.038
			c-0.15-0.005-0.283-0.144-0.48-0.221c-0.001,0-0.002,0-0.003,0C9.667,6.042,9.215,6.169,8.98,6.527
			c-0.117,0.177-0.158,0.38-0.136,0.575c0,0.003-0.001,0.004-0.001,0.006c0.002,0.011,0.005,0.02,0.006,0.031
			c0.021,0.135,0.073,0.263,0.154,0.376C9.019,7.562,8.99,7.579,8.936,7.577C8.931,7.578,8.923,7.579,8.917,7.581
			c-0.031,0.003-0.061,0.01-0.091,0.017C8.8,7.602,8.773,7.609,8.743,7.617C8.684,7.632,8.645,7.656,8.618,7.677
			c-0.015,0.008-0.03,0.019-0.044,0.028C8.539,7.717,8.476,7.714,8.45,7.584c-0.01-0.026-0.02-0.053-0.03-0.08
			C8.415,7.489,8.41,7.474,8.403,7.459c-0.009-0.024-0.019-0.047-0.03-0.066c0,0,0,0-0.001-0.001
			C8.306,7.264,8.208,7.151,8.078,7.065C7.675,6.801,7.134,6.913,6.87,7.315C6.605,7.718,6.717,8.26,7.12,8.524
			c0.187,0.122,0.404,0.162,0.609,0.131l0.024,0.017c0.11-0.059,0.235-0.096,0.369-0.096c0.436,0,0.79,0.354,0.79,0.79
			c0,0.436-0.354,0.79-0.79,0.79c-0.436,0-0.79-0.354-0.79-0.79c0-0.005,0.002-0.009,0.002-0.014
			C7.279,9.127,7.144,8.921,6.935,8.784C6.5,8.498,5.915,8.619,5.63,9.055C5.344,9.49,5.465,10.074,5.9,10.36
			c0.13,0.085,0.274,0.134,0.419,0.15c-0.303,0.002-0.599,0.148-0.78,0.418c-0.031-0.025-0.063-0.049-0.096-0.071
			c-0.543-0.357-1.273-0.206-1.63,0.338c-0.356,0.542-0.205,1.273,0.338,1.629c0.179,0.118,0.381,0.18,0.582,0.19
			C4.7,13.051,4.668,13.09,4.64,13.133c-0.286,0.436-0.165,1.02,0.269,1.306c0.12,0.078,0.251,0.123,0.383,0.142
			c0.306,0.21,0.341,0.592,0.176,0.863c-0.041,0.055-0.353,0.437-0.824,0.118c-0.073-0.088-0.159-0.168-0.26-0.234
			c-0.543-0.357-1.271-0.205-1.629,0.338c-0.271,0.413-0.249,0.931,0.016,1.314c-0.181-0.05-0.372-0.028-0.538,0.055
			c0.027-0.31-0.112-0.624-0.39-0.805c-0.404-0.265-0.943-0.153-1.207,0.25c-0.265,0.403-0.153,0.943,0.25,1.208
			c0.292,0.191,0.656,0.184,0.936,0.013c-0.001,0.246,0.116,0.486,0.337,0.631c0.347,0.227,0.812,0.131,1.04-0.216
			c0.022-0.033,0.039-0.066,0.055-0.101l0,0h0c0.035-0.077,0.055-0.157,0.063-0.237c0.11-0.261,0.308-0.294,0.394-0.294
			c0.01,0,0.022,0.002,0.032,0.002c0.006,0,0.01,0.001,0.01,0.001l-0.003-0.001c0.108-0.001,0.214-0.018,0.318-0.049
			c0,0.001,0,0.002,0,0.002c0.003-0.002,0.005-0.002,0.007-0.004c0.086-0.026,0.168-0.061,0.246-0.105
			c0.24-0.041,0.311,0.179,0.25,0.366c0,0.001-0.001,0.001-0.001,0.002c-0.025,0.037-0.043,0.077-0.061,0.117
			c-0.002,0.003-0.005,0.007-0.007,0.01c-0.028,0.034-0.037,0.066-0.033,0.096c-0.112,0.362,0.018,0.767,0.35,0.985
			c0.164,0.107,0.35,0.151,0.531,0.141c0.063-0.022,0.13-0.037,0.201-0.037c0.045-0.013,0.089-0.029,0.13-0.049
			C5.677,18.98,5.672,19,5.667,19.02c0.281,0.053,0.495,0.3,0.495,0.598c0,0.335-0.273,0.608-0.609,0.608
			c-0.268,0-0.493-0.174-0.574-0.414c-0.019-0.035-0.038-0.078-0.054-0.131c-0.006-0.085-0.024-0.167-0.053-0.247
			c0-0.004-0.001-0.007-0.002-0.011c0,0-0.001-0.001-0.002-0.001c-0.063-0.163-0.174-0.308-0.331-0.412
			c-0.403-0.265-0.944-0.152-1.208,0.25c-0.265,0.403-0.153,0.944,0.249,1.208c0.343,0.225,0.784,0.175,1.072-0.092
			c0.006-0.004,0.011-0.009,0.017-0.014c0.004-0.004,0.008-0.007,0.012-0.012c0.002-0.002,0.004-0.004,0.006-0.006
			c0.205-0.221,0.267-0.072,0.286,0.06c-0.123,0.447,0.048,0.942,0.457,1.211c0.018,0.011,0.035,0.021,0.054,0.032
			c-0.1,0.064-0.187,0.148-0.256,0.253c-0.264,0.402-0.153,0.943,0.25,1.207c0.4,0.263,0.934,0.155,1.201-0.24
			c-0.001,0.313,0.151,0.621,0.433,0.807c0.443,0.292,1.038,0.168,1.33-0.276c0.106-0.221,0.07-0.394,0.07-0.394l0.006,0.002
			c-0.003-0.019-0.006-0.039-0.006-0.059c0-0.203,0.165-0.368,0.369-0.368c0.203,0,0.368,0.165,0.368,0.368
			c0,0.12-0.059,0.227-0.149,0.294l0.001,0l-0.002,0c-0.041,0.031-0.088,0.053-0.139,0.065c-0.032,0.018-0.066,0.039-0.098,0.063
			c-0.013,0.012-0.026,0.025-0.038,0.037c-0.018,0.017-0.037,0.032-0.052,0.052c-0.033,0.037-0.065,0.077-0.093,0.12
			c-0.126,0.193-0.183,0.411-0.177,0.625c-0.107,0.59-0.521,0.318-0.521,0.318c-0.257-0.169-0.602-0.097-0.77,0.16
			c-0.169,0.257-0.097,0.602,0.159,0.77c0.257,0.169,0.603,0.099,0.772-0.158c0.016-0.024,0.027-0.049,0.039-0.075l0,0.002
			c0,0,0.001-0.004,0.003-0.009c0.007-0.015,0.012-0.03,0.018-0.045c0.054-0.129,0.222-0.433,0.569-0.282
			c0.063,0.072,0.135,0.136,0.219,0.191c0.095,0.063,0.196,0.108,0.3,0.137c-0.018,0.019-0.035,0.04-0.05,0.063
			c-0.132,0.2-0.076,0.469,0.123,0.6c0.201,0.131,0.469,0.075,0.6-0.124c0.116-0.176,0.087-0.405-0.059-0.547
			c0.232-0.072,0.439-0.221,0.582-0.438c0.051-0.078,0.089-0.161,0.119-0.245c0.088,0.197,0.232,0.373,0.425,0.5
			c0.544,0.357,1.272,0.206,1.629-0.337c0.047-0.072,0.084-0.146,0.114-0.224c0.03-0.081,0.05-0.156,0.063-0.229
			c-3.317-1.143-5.7-4.289-5.7-7.994c0-4.67,3.786-8.456,8.456-8.456c2.096,0,4.013,0.764,5.491,2.028
			c0.376-0.18,0.88-0.783,0.787-0.79C21.932,8.648,21.777,8.256,21.441,8.036z"/>
	</g>
</g>
</svg>
