<?xml version="1.0" encoding="utf-8"?>
<!-- Generator: Adobe Illustrator 17.0.0, SVG Export Plug-In . SVG Version: 6.00 Build 0)  -->
<!DOCTYPE svg PUBLIC "-//W3C//DTD SVG 1.1//EN" "http://www.w3.org/Graphics/SVG/1.1/DTD/svg11.dtd">
<svg version="1.1" id="Capa_1" xmlns="http://www.w3.org/2000/svg" xmlns:xlink="http://www.w3.org/1999/xlink" x="0px" y="0px"
	 width="105.943px" height="36.806px" viewBox="0 0 105.943 36.806" enable-background="new 0 0 105.943 36.806"
	 xml:space="preserve">
<g>
	<polygon fill="#312926" points="31.919,14.447 36.652,14.447 34.313,7.597 	"/>
	<polygon fill="#312926" points="91.704,14.447 96.436,14.447 94.097,7.597 	"/>
	<path fill="#312926" d="M98.052,0.485h-7.938l-4.209,11.39l-0.919-11.39h-8.472l-2.75,6.243l-2.748-6.243h-8.474l-0.228,2.761
		l-0.023,0.23L62.18,3.347C61.859,3.007,58.864,0,53.118,0c-5.585,0-10.2,3.484-11.891,8.447l-2.958-7.962h-7.936l-4.21,11.391
		L25.204,0.485H16.73l-2.749,6.242l-2.749-6.242H2.759L1.503,16.008H0v9.184h5.988c2.316,0,3.961-1.164,4.603-2.975h6.852
		c0.67,1.96,2.281,2.975,4.532,2.975h5.905c2.364,0,3.81-1.003,4.765-3.27c0.057-0.136,0.674-1.645,0.674-1.645h1.935l0.426,1.263
		c0.869,2.447,2.499,3.652,5.127,3.652h24.962c2.318,0,3.963-1.164,4.605-2.975h6.852c0.671,1.96,2.283,2.975,4.533,2.975h6.217
		c2.477,0,3.991-1.186,4.775-3.691l0.352-1.225h1.935l0.426,1.263c0.871,2.447,2.5,3.652,5.128,3.652h5.351v-9.184h-2.157
		L98.052,0.485z M24.946,22.071h-2.972c-1.236,0-1.656-0.526-1.762-1.788L19.556,9.081l-4.181,9.782h-2.787L8.407,9.055
		L7.776,20.283c-0.105,1.262-0.553,1.788-1.788,1.788H3.016v-2.919H3.83c0.369,0,0.553-0.21,0.579-0.578L5.62,3.401h3.575
		l4.758,11.386h0.054l4.761-11.386h3.576l1.21,15.173c0.025,0.368,0.209,0.578,0.577,0.578h0.816v2.919H24.946z M42.858,22.071
		h-2.051c-1.314,0-1.787-0.34-2.208-1.525l-1.157-3.259h-6.31l-1.158,3.259c-0.421,1.185-0.868,1.525-2.183,1.525h-2.078v-2.919
		h0.422c0.447,0,0.658-0.104,0.816-0.578l5.547-15.173H36.1l5.524,15.173c0.157,0.474,0.368,0.578,0.815,0.578h0.419
		C42.858,19.152,42.858,22.071,42.858,22.071z M61.164,22.071h-2.945v-0.894c0-0.394,0.027-0.788,0.027-0.788h-0.054
		c0,0-1.998,1.998-5.495,1.998c-4.891,0-9.073-3.734-9.073-9.756c0-5.365,4.077-9.545,9.493-9.545c4.576,0,6.811,2.366,6.811,2.366
		l-1.947,2.473c0,0-1.947-1.657-4.786-1.657c-3.233,0-5.995,2.55-5.995,6.337c0,4.076,2.787,6.574,6.128,6.574
		c2.97,0,4.732-1.946,4.732-1.946V15.84c0-0.395-0.209-0.578-0.577-0.578h-1.131v-2.919h3.025c1.261,0,1.786,0.525,1.786,1.762
		L61.164,22.071L61.164,22.071z M84.729,22.071h-2.97c-1.236,0-1.656-0.526-1.763-1.788L79.34,9.081l-4.181,9.782h-2.788
		L68.19,9.055l-0.631,11.229c-0.104,1.262-0.553,1.788-1.79,1.788H62.8v-2.919h0.814c0.369,0,0.552-0.21,0.578-0.578l1.211-15.173
		h3.577l4.76,11.386h0.052l4.761-11.386h3.576l1.21,15.173c0.024,0.368,0.21,0.578,0.576,0.578h0.816v2.918H84.729z M102.641,22.071
		h-2.051c-1.315,0-1.787-0.34-2.208-1.525l-1.158-3.259h-6.309l-1.157,3.259c-0.421,1.185-0.87,1.525-2.184,1.525h-2.078v-2.919
		h0.421c0.448,0,0.659-0.104,0.816-0.578L92.28,3.401h3.602l5.522,15.173c0.158,0.474,0.369,0.578,0.817,0.578h0.419L102.641,22.071
		L102.641,22.071z"/>
	<polygon fill="#312926" points="53.96,31.833 52.971,29.83 51.982,31.833 49.771,32.155 51.371,33.714 50.994,35.915 
		52.971,34.876 54.948,35.915 54.571,33.714 56.171,32.155 	"/>
	<path fill="#312926" d="M12.175,30.8c0.037-0.205,0.099-0.377,0.184-0.514c0.086-0.137,0.199-0.24,0.338-0.308
		c0.14-0.068,0.312-0.103,0.518-0.103c0.205,0,0.379,0.035,0.518,0.103c0.14,0.068,0.253,0.171,0.339,0.308
		c0.086,0.137,0.148,0.309,0.184,0.514c0.036,0.206,0.056,0.446,0.056,0.72h1.096c0-0.377-0.041-0.722-0.124-1.034
		c-0.083-0.313-0.212-0.581-0.388-0.804c-0.175-0.222-0.402-0.396-0.68-0.52c-0.279-0.124-0.612-0.187-1.001-0.187
		c-0.411,0-0.757,0.07-1.036,0.211c-0.28,0.139-0.506,0.334-0.677,0.582c-0.171,0.249-0.294,0.546-0.368,0.891
		c-0.074,0.345-0.111,0.724-0.111,1.135v2.189c0,0.411,0.037,0.789,0.111,1.135c0.074,0.346,0.197,0.644,0.368,0.894
		c0.171,0.25,0.398,0.445,0.677,0.584c0.28,0.14,0.626,0.21,1.036,0.21c0.411,0,0.757-0.069,1.037-0.206
		c0.279-0.137,0.505-0.321,0.677-0.552c0.171-0.231,0.294-0.502,0.368-0.81c0.074-0.309,0.111-0.634,0.111-0.977v-0.274h-1.096
		v0.274c0,0.205-0.019,0.407-0.056,0.604s-0.098,0.373-0.184,0.527c-0.085,0.154-0.199,0.278-0.339,0.373
		c-0.14,0.094-0.313,0.141-0.518,0.141c-0.206,0-0.379-0.047-0.518-0.141c-0.139-0.095-0.252-0.219-0.338-0.373
		c-0.085-0.154-0.148-0.33-0.184-0.527c-0.037-0.197-0.056-0.398-0.056-0.604V31.52C12.119,31.246,12.138,31.006,12.175,30.8z"/>
	<path fill="#312926" d="M24.539,29.734c-0.169-0.231-0.394-0.416-0.674-0.552c-0.282-0.137-0.633-0.206-1.053-0.206
		c-0.286,0-0.538,0.032-0.758,0.094c-0.22,0.063-0.411,0.15-0.572,0.261c-0.162,0.112-0.298,0.246-0.41,0.403
		s-0.201,0.33-0.267,0.518c-0.067,0.189-0.115,0.39-0.144,0.604s-0.043,0.436-0.043,0.664v2.742c0,0.228,0.014,0.45,0.043,0.664
		s0.076,0.416,0.144,0.604c0.066,0.188,0.155,0.361,0.267,0.518s0.248,0.291,0.41,0.402c0.161,0.111,0.351,0.199,0.572,0.261
		c0.22,0.063,0.472,0.095,0.758,0.095c0.42,0,0.771-0.069,1.053-0.206c0.281-0.137,0.505-0.321,0.674-0.552s0.289-0.502,0.36-0.81
		c0.071-0.309,0.107-0.634,0.107-0.977V31.52c0-0.343-0.036-0.668-0.107-0.976C24.828,30.235,24.708,29.965,24.539,29.734z
		 M23.909,34.536c0,0.206-0.019,0.393-0.056,0.561c-0.037,0.169-0.099,0.313-0.184,0.433s-0.199,0.212-0.339,0.278
		c-0.139,0.066-0.312,0.098-0.518,0.098c-0.205,0-0.379-0.033-0.518-0.098c-0.14-0.066-0.253-0.159-0.339-0.278
		c-0.085-0.12-0.147-0.264-0.184-0.433c-0.036-0.168-0.055-0.355-0.055-0.561v-3.29c0-0.206,0.019-0.392,0.055-0.562
		c0.037-0.168,0.099-0.312,0.184-0.433c0.086-0.12,0.2-0.212,0.339-0.278s0.313-0.099,0.518-0.099c0.206,0,0.379,0.033,0.518,0.099
		c0.14,0.066,0.253,0.159,0.339,0.278c0.086,0.12,0.147,0.264,0.184,0.433s0.056,0.356,0.056,0.562V34.536z"/>
	<polygon fill="#312926" points="33.094,34.065 31.072,29.052 30.352,29.052 30.352,36.73 31.449,36.73 31.449,31.623 33.411,36.73 
		34.191,36.73 34.191,29.052 33.094,29.052 	"/>
	<polygon fill="#312926" points="39.675,36.73 40.772,36.73 40.772,33.165 42.142,33.165 42.142,32.343 40.772,32.343 
		40.772,29.875 42.691,29.875 42.691,29.052 39.675,29.052 	"/>
	<path fill="#312926" d="M66.922,32.563c0.103-0.176,0.188-0.35,0.257-0.523s0.12-0.349,0.153-0.529
		c0.032-0.18,0.049-0.372,0.049-0.578c0-0.274-0.036-0.533-0.108-0.775c-0.07-0.243-0.183-0.455-0.337-0.634
		c-0.154-0.18-0.353-0.323-0.596-0.428c-0.242-0.105-0.535-0.158-0.878-0.158c-0.343,0-0.636,0.054-0.879,0.162
		c-0.242,0.109-0.441,0.261-0.595,0.458s-0.268,0.436-0.34,0.715c-0.07,0.28-0.106,0.591-0.106,0.934v0.274h1.097v-0.274
		c0-0.206,0.018-0.392,0.052-0.561c0.034-0.169,0.086-0.313,0.155-0.433C64.914,30.093,65,30,65.103,29.935
		c0.103-0.066,0.223-0.099,0.36-0.099s0.257,0.031,0.36,0.094s0.189,0.145,0.257,0.248c0.069,0.103,0.12,0.22,0.154,0.351
		c0.034,0.132,0.052,0.266,0.052,0.403c0,0.097-0.007,0.2-0.019,0.309c-0.013,0.109-0.047,0.236-0.101,0.381
		c-0.054,0.146-0.137,0.317-0.246,0.516c-0.11,0.198-0.262,0.436-0.456,0.713l-1.924,2.742v1.097h3.843v-1.097h-2.742l1.92-2.467
		C66.698,32.927,66.819,32.739,66.922,32.563z"/>
	<path fill="#312926" d="M76.189,29.699c-0.111-0.169-0.238-0.303-0.376-0.403c-0.141-0.1-0.283-0.177-0.426-0.231
		c-0.142-0.054-0.278-0.09-0.408-0.105c-0.13-0.016-0.241-0.023-0.332-0.023c-0.092,0-0.202,0.008-0.332,0.023
		c-0.131,0.015-0.266,0.051-0.409,0.105c-0.143,0.054-0.284,0.131-0.424,0.231c-0.141,0.1-0.266,0.234-0.377,0.403
		c-0.112,0.169-0.202,0.376-0.273,0.621c-0.07,0.246-0.105,0.541-0.105,0.887v3.29c0,0.406,0.054,0.752,0.16,1.039
		c0.107,0.287,0.25,0.522,0.429,0.705c0.179,0.183,0.383,0.317,0.614,0.401c0.231,0.084,0.47,0.126,0.716,0.126
		c0.245,0,0.483-0.042,0.715-0.126c0.231-0.084,0.437-0.218,0.615-0.401c0.178-0.183,0.322-0.418,0.429-0.705
		c0.107-0.287,0.161-0.633,0.161-1.039v-3.29c0-0.346-0.036-0.641-0.105-0.887C76.391,30.075,76.3,29.868,76.189,29.699z
		 M75.469,34.497c0,0.08-0.004,0.169-0.012,0.268c-0.007,0.099-0.02,0.199-0.04,0.3c-0.02,0.101-0.05,0.201-0.088,0.298
		c-0.038,0.097-0.088,0.182-0.148,0.257c-0.06,0.074-0.134,0.134-0.222,0.18c-0.089,0.045-0.192,0.068-0.312,0.068
		c-0.12,0-0.225-0.023-0.313-0.068c-0.088-0.046-0.163-0.106-0.223-0.18c-0.06-0.075-0.109-0.16-0.148-0.257
		s-0.068-0.197-0.088-0.298s-0.034-0.201-0.041-0.3c-0.007-0.098-0.011-0.188-0.011-0.268v-3.29c0-0.083,0.002-0.174,0.006-0.274
		s0.016-0.201,0.034-0.302s0.045-0.2,0.079-0.295c0.034-0.096,0.082-0.181,0.143-0.255c0.061-0.075,0.137-0.134,0.229-0.178
		c0.092-0.044,0.202-0.066,0.331-0.066c0.128,0,0.238,0.022,0.329,0.066s0.167,0.103,0.229,0.178
		c0.062,0.074,0.11,0.159,0.144,0.255c0.034,0.096,0.06,0.194,0.079,0.295c0.019,0.102,0.03,0.202,0.035,0.302
		c0.004,0.1,0.006,0.191,0.006,0.274v3.29H75.469z"/>
	<path fill="#312926" d="M82.585,29.374c-0.122,0.102-0.244,0.189-0.364,0.257c-0.14,0.08-0.288,0.148-0.445,0.206v0.822h0.822
		v6.032h1.097v-7.677h-0.822C82.803,29.151,82.708,29.271,82.585,29.374z"/>
	<path fill="#312926" d="M91.218,34.757h-2.196v-1.283l1.921-4.495h1.373v4.679h0.849v1.098h-0.849v1.913h-1.098V34.757z
		 M91.218,33.659l0.137-3.303l-1.236,3.303H91.218z"/>
</g>
</svg>
