<?xml version="1.0" encoding="utf-8"?>
<!-- Generator: Adobe Illustrator 16.0.0, SVG Export Plug-In . SVG Version: 6.00 Build 0)  -->
<!DOCTYPE svg PUBLIC "-//W3C//DTD SVG 1.1//EN" "http://www.w3.org/Graphics/SVG/1.1/DTD/svg11.dtd">
<svg version="1.1" id="Layer_1" xmlns="http://www.w3.org/2000/svg" xmlns:xlink="http://www.w3.org/1999/xlink" x="0px" y="0px"
	 width="17px" height="50px" viewBox="0 0 17 50" enable-background="new 0 0 17 50" xml:space="preserve">
<g>
	<path fill="#FFFFFF" d="M0.955,0.503l-0.771,0.78L9.275,10.5l-9.091,9.216l0.771,0.781l9.859-9.997L0.955,0.503z M6.955,0.503
		l-0.771,0.78l9.091,9.217l-9.091,9.216l0.771,0.781l9.859-9.997L6.955,0.503z"/>
</g>
<g>
	<g>
		<path fill="#D96B6C" d="M0.955,28.003l-0.771,0.78L9.275,38l-9.091,9.216l0.771,0.781L10.814,38L0.955,28.003z M6.955,28.003
			l-0.771,0.78L15.275,38l-9.091,9.216l0.771,0.781L16.814,38L6.955,28.003z"/>
	</g>
</g>
</svg>
