<?xml version="1.0" encoding="utf-8"?>
<!-- Generator: Adobe Illustrator 18.0.0, SVG Export Plug-In . SVG Version: 6.00 Build 0)  -->
<!DOCTYPE svg PUBLIC "-//W3C//DTD SVG 1.0//EN" "http://www.w3.org/TR/2001/REC-SVG-20010904/DTD/svg10.dtd">
<svg version="1.0" id="Layer_1" xmlns="http://www.w3.org/2000/svg" xmlns:xlink="http://www.w3.org/1999/xlink" x="0px" y="0px"
	 viewBox="0 0 155.4 230" enable-background="new 0 0 155.4 230" xml:space="preserve">
<g>
	<path fill="#F26768" d="M134.2,183.3c13.1-15,21.2-33,21.2-53.7c0-42.9-34.8-77.9-77.7-77.9S0,86.8,0,129.7
		c0,20.7,8.1,38.6,21.2,53.6H134.2z"/>
	<g>
		<polygon fill="#B4B4B4" points="90.4,82 64.1,82 63.7,86.9 90.8,86.5 		"/>
		<path opacity="0.1" fill="#893F27" d="M121.3,210.9c-0.8-0.4-1.6-0.7-2.6-1l23.4-7.4c0,0-25.6-4.7-26.7-5.7c-0.9-0.9-7,9-8.7,11.8
			c-1.8,0.1-3.6-0.3-5.2,0.7H48.8c-2.3-1-4.8-0.8-7.4-0.8c-10,0-18.2,4.1-18.2,9.1c0,5,8.1,9.1,18.2,9.1c3.3,0,6.4-0.4,9.1-1.2
			c13.5-5.7,26.1-6,36.1-4.6c1.2,5.1,11.4,9.2,23.8,9.2c13.2,0,23.9-4.5,23.9-10.1C134.4,216,129.1,212.5,121.3,210.9z"/>
		<polygon fill="#C5BAAD" points="126.8,190.8 142.1,202.3 113.4,202.3 		"/>
		<polygon fill="#FFFFFF" points="126.8,191.3 104.9,191.3 104.8,210.1 		"/>
		<polygon fill="#B6A999" points="104.9,93.1 104.9,209.3 48.6,209.3 48.6,92.9 63.9,86.8 90.9,86.4 		"/>
		<polygon opacity="0.2" fill="#8A8074" points="76.6,86.7 63.8,86.9 48.2,92.7 48.2,209.3 76.6,209.3 		"/>
		<polygon fill="#F3F3F3" points="104.8,209.7 126.9,190.9 118.1,190.9 104.1,202.4 		"/>
		<path opacity="0.2" fill="#8A8074" d="M48.6,94.4v17.2c0,0,3.3,9.3,8.2,14.3c3.4,7.2,4.3,13.3,4.3,13.3l-17.3,69.9l8.6,1.2
			c-0.4-7.9,9-16.1,10.8-27c0,0,8.3-10.4,12.9-21.4l5.3-8.2L48.6,94.4z"/>
		<polygon fill="#C5BAAD" points="116,24.3 98.6,22 98.6,32.2 116.1,34.5 120.7,30.1 		"/>
		<polygon fill="#C5BAAD" points="33.1,24.3 50.5,22 50.5,32.2 33,34.5 28.6,30.1 		"/>
		<polygon fill="#8A8074" points="98.6,26 98.6,32.2 109,27.5 		"/>
		<g>
			<polygon fill="#B6A999" points="109,13.2 74.5,5.6 74.5,22.4 109,27.5 			"/>
			<polygon fill="#B6A999" points="40.7,13.2 74.5,5.6 74.5,22.4 40.7,27.5 			"/>
		</g>
		<polygon fill="#8A8074" points="50.5,26 50.5,32.2 40.7,27.5 		"/>
		<polygon opacity="0.2" fill="#8A8074" points="54.6,10.1 54.6,25.5 50.7,26 53,10.5 		"/>
		<polygon opacity="0.2" fill="#8A8074" points="109,27.5 103.8,32.9 98.6,32.2 		"/>
		<polygon opacity="0.2" fill="#8A8074" points="40.6,23.3 38.3,23.6 35.4,34.2 50.4,32.2 40.6,27.5 		"/>
		<g>
			<path fill="#FDC20F" d="M95.6,26.4V9.1c1,0,2.2-1.1,2.2-2.5C97.7,5.2,96.4,4,95,4c-1.1,0-2.2,0.7-2.5,1.8L74.7,0L54.6,6.6V29
				l20.1,7.3l17.9-6.5c0.4,1,1.2,1.7,2.3,1.7c1.4,0,2.9-1.1,2.9-2.5C97.8,27.6,96.6,26.4,95.6,26.4z"/>
			<path fill="#FBB03C" d="M74.6,0l-18,5.8c-0.3-1-1.3-1.7-2.4-1.7c-1.4,0-2.3,1.1-2.3,2.5c0,1.4,0.7,2.5,2.7,2.5v17.3
				c-2,0-2.7,1.1-2.7,2.5c0,1.4,1,2.5,2.4,2.5c1.1,0,2-0.7,2.4-1.7l17.9,6.4V0z"/>
			<g>
				<path fill="#FDE699" d="M70.2,11.3c1.7-0.9,1.1-4.5-1.2-4.5c-0.1-0.1-3.3,0.6-5.4,1.1c-1,0.2-2.2,0.3-3.2,1.4
					c-1.9,2.1,0.2,5.3,2.4,4.6c1.2-0.4,1.2-1.8,0.8-2.3c-0.7-0.9-1.5,0.2-1,0.4c0.2,0.3-0.6,0.6-0.8,0c-0.6-1.2,1.3-2.7,2.3-0.8
					c1,2.1,3.3,8.7,2,13.5c-0.9,2.3-3.1,1.7-2.9,0.6c1.4,1.3,3.6-1.7,1-2.5c-3-0.8-4,2-3.1,4c1.9,3.1,6.4,1.7,6.9-3.1
					c0.5-4.2-1.2-10-1.2-10c4.1,6.1,6.4,13.4,7.2,16.7c0.1,0.2,0.4,0.3,0.4,0.3v-8.3C74.6,22,69.7,18.4,70.2,11.3z"/>
				<path fill="#FFF3CD" d="M74.9,30.4c0.8-3.3,2.9-10.3,7.2-16.7c0,0-1.7,5.8-1.2,10c0.5,4.7,5,6.2,6.9,3.1c0.9-2-0.1-4.9-3.1-4
					c-2.6,0.9-0.4,3.8,1,2.5c0.2,1.2-2,1.8-2.9-0.6c-1.4-4.8,1-11.4,2-13.5c1.1-1.9,2.9-0.4,2.3,0.8c-0.2,0.6-1,0.3-0.8,0
					c0.6-0.2-0.2-1.3-1-0.4c-0.4,0.5-0.4,1.9,0.8,2.3c2.2,0.7,4.3-2.5,2.4-4.6c-1-1.1-2.2-1.2-3.2-1.4c-2.1-0.5-5.3-1.2-5.3-1.1
					c-2.3,0-2.9,3.6-1.2,4.5c0.5,7.3-4.1,10.9-4.3,11.1c0,0,0,0,0,0v8.3C74.6,30.7,74.9,30.6,74.9,30.4z"/>
			</g>
		</g>
		<path opacity="0.2" fill="#A67D52" d="M79.2,25.8c0,0,0.3,2-0.3,3.7c-0.9,2.7,0.9,4.8,0.9,4.8l6.1-2.2L79.2,25.8z"/>
		<path opacity="0.2" fill="#A67D52" d="M72.7,27.6c-0.8,3.4,0.3,5.3-1.9,7.3l-3-1.1L72.7,27.6z"/>
		<path fill="#F6C785" d="M91.8,30.1c0.1,0.9-1.2,3.4-0.2,5.3c4.8,7.3,11,13.9,11.4,25.4c3,2.1,1.9,5.1,1.9,5.1
			c4.4,11.3,2,26.1-4,36.7c-1.2,8.4-4.2,14.4-8.1,19.4l-3.3,12.6c0,0-4,3.8-11.5,4.7s-15.1-4.5-15.1-4.5l-3.5-13.2
			c-5.7-7.1-8.3-14-9.6-23.8c-4.5-7.5-7.5-18.6-6.6-29.1c0,0-1.4-3.5,1.4-5.4c-2-9.8,7.9-18.5,13.7-30C57,31.6,56.9,30,56.9,30
			l5.3,1.9c0.7-0.5,3.2-2.3,6.3-1.6c0.7-2,1.8-3,3.5-3.1c1.7,0.1-0.1,1.9-0.4,3.8c-0.5,3.4-3.6,4.9-6.7,5.1
			c-1.8,6.6-0.9,19.5-6.3,25.2c2.8,8.2,2.8,11.5,0.5,17.1c2.8,2.6,4.2,5.3,4.6,8.4l2.9-6.6l21.2-1.1l1.1,5.3l1.8,2.2
			c0-2.7,0.3-5.1,1.2-8.3c-2.6-5.7-2.8-11.4-0.9-17.2c-5.4-8.7-2.6-15.4-6.4-25.7c-2.8-1.4-5.3-3.1-4.6-6.7c0.1-1.5-1.1-2.5-0.9-3.1
			c0.5-1.6,4.1,0.3,4,3.5c2.5-0.2,5,2.2,5,2.2L91.8,30.1z"/>
		<path opacity="0.1" fill="#A67D52" d="M78.9,98.3l10-8.7c3,6.3,7,11.5,11.5,15.9l0.5-2.3L89.2,87.9L78.2,98.3H78.9z"/>
		<path fill="#BA2D33" d="M91.5,144.7l-2-10.1c-7.2,5.3-16.8,7-26.7,0.2l-4,9.3l14.9,12.4l3.7,0.3L91.5,144.7z"/>
		<circle opacity="0.1" fill="#A67D52" cx="90.1" cy="106.4" r="0.9"/>
		<circle opacity="0.1" fill="#A67D52" cx="62.2" cy="106.7" r="0.9"/>
		<path opacity="0.1" fill="#A67D52" d="M95.6,88.7l3.9,8.3C99.5,96.9,94.6,93.6,95.6,88.7z"/>
		<path fill="#A23030" d="M91.5,144.7c3.7,6.4,10.9,20.6,10.4,29.4c1,2.2,1.7,5.6,1.3,8c4.2,7.3,2.8,16.8,6.9,30
			c2.7,2.5,11.6,9.5,10.5,14.6c-4.8,0.9-14-3.2-15.1-9.4c-0.7,0.2-4.4-1.3-4.1-2.5c-0.1-1.6,0.4-3.8,0.4-3.8
			c-1.4-11.9-5.8-13-9.3-25.7c-1.5-2.3-2.8-4.1-3.1-7.8c-5-9.8-9.2-15.4-11.9-20.8L91.5,144.7z"/>
		<path fill="none" stroke="#010101" stroke-width="0.2106" stroke-miterlimit="10" d="M117.6,183.3"/>
		<path fill="#7A2424" d="M73.7,156.5l-11.3,18.7c-0.2,1.9-1.3,4.9-3.5,7.1c-0.8,6.8-6.7,12-10.4,24.1c0,0,0.2,2.2,0.1,4.6
			c-0.9,3.6-4.1,4.2-4.1,4.2c-4.2,6.4-8.3,8.7-12.4,8c-0.2-4.6,3.3-9.6,10.1-17.5c4-12,4.5-21.7,7-27.5l1-7.2
			c0.7-8.8,5.5-20.9,8.6-26.8L73.7,156.5z"/>
		<path opacity="0.1" fill="#A67D52" d="M59.7,90.6c-0.6,3.1-3.1,5.9-5.8,7.7L59.7,90.6z"/>
		<path opacity="0.1" fill="#A67D52" d="M61.8,111.5c10.7,2.2,20.3,1.9,28.8-0.8C81.1,112.4,71.5,112.5,61.8,111.5z"/>
		<path opacity="0.1" fill="#A67D52" d="M84.5,123.8c-2.6-0.4-4.9-0.6-7.9-0.5v-0.4l-0.1-9.9l1.6-1l0-13.4l-0.7-8
			c0,0,1.6-0.8,1.5-1.7c-0.2-1.6-1.4-1.3-1.4-1.3L77,79.6l-10.3,0.5l-2.9,6.6c-0.4-3.1-1.8-5.8-4.6-8.4c2.3-5.6,2.3-9-0.5-17.1
			c5.3-5.8,4.5-18.6,6.3-25.2c3.1-0.2,6.2-1.8,6.7-5.1c0.3-1.9,2.1-3.7,0.4-3.8c-1.7,0.1-2.7,1.2-3.5,3.1c-3.2-0.7-5.6,1.1-6.3,1.6
			L56.9,30c0,0,0.1,1.6,1.2,3.3c-5.8,11.5-15.7,20.1-13.7,30c-2.8,1.9-1.4,5.4-1.4,5.4c-1,11.7,1.2,20.1,6.6,29.1
			c1.4,9.8,4,16.7,9.6,23.8l3.5,13.2c0,0,6.8,4.9,14,4.6l-0.1-15.4L84.5,123.8z"/>
		<path opacity="0.1" fill="#A67D52" d="M51.2,105.8l0.7,2c6.3-4.2,11-9.9,13.8-17.5l11.7,8.2l0.5-0.3L65.3,88.2
			C61.7,95.2,57.1,101.2,51.2,105.8z"/>
		<polygon fill="#F3F3F3" points="90.4,82 90.8,86.5 78.2,98.7 80,91 		"/>
		<polygon fill="#F3F3F3" points="76.4,91.2 78.1,98.7 63.7,86.9 64.1,82 		"/>
		<path fill="#E6E6E5" d="M90.8,86.5c2.4,6.3,5.9,11.2,10.4,15.5l-0.5,2.2C95.8,99.1,91,93.9,89.2,88L90.8,86.5z"/>
		<path fill="#E6E6E5" d="M50.8,104l0.4,1.8c6.5-3.5,11.2-9.4,14.1-17.6l-1.6-1.3C61.3,94.6,56.8,100.3,50.8,104z"/>
		<ellipse transform="matrix(0.972 -0.2351 0.2351 0.972 -39.2401 28.2838)" fill="#BA2D33" cx="99" cy="178.7" rx="2.9" ry="4.6"/>
		
			<ellipse transform="matrix(0.9728 0.2317 -0.2317 0.9728 42.4256 -7.5774)" fill="#A23030" cx="53.5" cy="176.8" rx="2.9" ry="4.6"/>
		<path fill="#A67D52" d="M77.5,85.4l0.1,2.4c0.7,0,2.1,2.1-0.2,3c1.5,0.2,2.9-2,0.9-3.3l-0.1-2.1L77.5,85.4z"/>
		<path opacity="0.1" fill="#A67D52" d="M65.8,82.4l-0.3,0.4c4,2.6,8.1,3.6,12.1,3.8l0.6-0.3c4.4-0.4,7.8-1.2,10.6-2.8l-0.1-0.7
			L65.8,82.4z"/>
		<g>
			<path fill="#BA2D33" d="M87,68.8c0.2,1.4,1.9,14.1,1.9,14.1c-8.3,3.9-16.1,3.5-23.5-0.7l2.4-13.5c0,0,4.7-5.8,8.7-6.1
				C80.5,61.9,86.8,67.4,87,68.8z"/>
			<path fill="#7A2424" d="M76.1,62.7L76.1,62.7c-3.9,0.7-8.3,6.1-8.3,6.1l-2.4,13.5c3.8,2.2,7.8,3.4,11.9,3.4
				C76.5,76.2,77.6,69.3,76.1,62.7z"/>
			<path opacity="0.2" fill="#484039" d="M73.2,73.2c0.1,0.5,0.3,0.9,1.1,0.9c0.9,1.4,4,1.5,5.3-0.2c0.9-0.3,0.9-0.9,0.9-0.9
				L73.2,73.2z"/>
			<path fill="#F6C785" d="M79,71.8c-1-1.1-3.6-0.8-4.4,0.1c-1.7-0.6-2.2,2.2-0.1,1.9c1.3,1.4,4,1,5-0.4
				C81.2,73.8,81.1,70.9,79,71.8z"/>
			<path opacity="0.1" fill="#A67D52" d="M77,71.1c-1,0-1.9,0.3-2.4,0.8c-1.7-0.6-2.2,2.2-0.1,1.9c0.7,0.7,1.6,0.9,2.5,0.9
				C76.2,73.8,75.8,71.1,77,71.1z"/>
			<path fill="#FDC20F" d="M85.2,68c-0.5,0.7-1,1.3-1.6,1.6C84,70,84.2,70.4,84,71c-0.1,0.5-0.6,0.9-1.3,0.6c-0.4-0.3-0.5-0.8-0.2-1
				c0.4-0.4,0.8,0.1,0.4,0.4c0,0.1,0.4,0.3,0.6-0.1c0.2-0.4-0.2-0.9-0.6-0.9c-1.5,0.6-3.3,0-5-1.5c0,1,0.5,2.3,0.5,2.3
				c-1.1-0.2-2-0.3-3.2,0.1c0.5-0.7,0.9-2,0.8-1.9c-1.1,1.5-2.3,2.2-3.6,2.4c-0.1,0-0.5,0-1,0.4c-0.7,0.7,0.4,1.3,0.5,0.8
				c-0.4-0.2-0.2-0.5,0.1-0.5c0.1,0,0.2,0,0.3,0.1c0.4,0.5-0.1,1.1-0.9,1c-1.2-0.5-0.7-1.6-0.3-1.9c-0.7-0.1-1.4-0.4-2.1-0.7
				c0.7-1.4,1.6-2.6,2.6-3.5c0.2-0.2,0.1-0.4-0.1-0.5c-0.3-0.1-0.5,0.1-0.3,0.2c0.1-0.2,0.3,0,0.2,0.1c-0.2,0.3-0.7,0-0.5-0.4
				c0.1-0.1,0.2-0.3,0.5-0.2c-0.1-0.4,0.2-0.6,0.4-0.6c0.4,0,0.6,0.3,0.4,0.6c-0.2,0.1-0.4-0.1-0.2-0.3c-0.1-0.1-0.3,0-0.3,0.3
				c0,0.1,0.1,0.6,0.6,0.4c1.1-0.5,2.4-0.2,3.8,0.8c0.1-2-0.4-3-1.1-4.3c0,0,0.5,1.2,0.6,2c0,0.8-0.5,0.9-0.8,0.7
				c-0.2-0.2-0.2-0.5,0-0.6c0.2-0.1,0.4,0.1,0.2,0.3c0,0.2,0.2,0.1,0.3-0.1c0.1-0.6-0.6-2.2-0.6-2.2c-0.1-0.2-0.3-0.2-0.3,0
				c0.1,0,0.3,0.1,0.1,0.3c-0.2,0.2-0.7,0-0.6-0.4c0-0.1,0.3-0.6,1.1-0.7c0.5,0,0.4,0.4,0.3,0.5c0.1,0.5,0.3,0.9,0.8,1.3
				c0.1-0.6,0.1-1.2,0-1.4c-0.2-0.1-0.2-0.6,0.1-0.7c0,0,0.5-0.3,1.1-0.1c0.4,0.1,0.4,0.5,0.4,0.6c-0.1,0.4-0.6,0.3-0.6,0.1
				c0-0.1,0.1-0.2,0.2-0.1c0-0.3-0.4-0.3-0.4,0.1c0,0.3,0.2,1.7,0.5,2.3c0.1,0.2,0.4,0.1,0.3-0.1c-0.2,0-0.2-0.4,0.1-0.3
				c0.3,0.1,0.3,0.7-0.2,0.8c-0.4,0.1-0.6-0.4-0.7-0.6c-0.2-0.5-0.4-1.8-0.4-1.8c-0.1,1.5,0,3,0.7,4.2c1-1.3,2-1.7,3.1-1.7
				c0.6,0,0.6-0.3,0.5-0.5c-0.1-0.2-0.3-0.3-0.4-0.2c0.3,0.4-0.1,0.5-0.3,0.3c-0.5-0.5,0.5-1.2,1-0.3c0.5-0.3,0.9,0.2,0.7,0.5
				c-0.1,0.2-0.3,0.2-0.4,0.2c-0.1-0.1-0.1-0.3,0.1-0.2c0.1,0,0.1-0.2,0-0.2c-0.3,0-0.6,0.3-0.1,0.7C83,66.1,84.2,67.2,85.2,68z"/>
			<path fill="#FBB03C" d="M77,70.6l-0.1-3c0-1-0.1-2.2-0.4-3.4c-0.3-0.3-0.7-0.9-0.8-1.3c0.1-0.1,0.2-0.5-0.3-0.5
				c-0.8,0.2-1.1,0.6-1.1,0.7c-0.1,0.4,0.4,0.6,0.6,0.4c0.2-0.2,0-0.3-0.1-0.3c0-0.2,0.2-0.3,0.3,0c0,0,0.8,1.6,0.6,2.2
				c0,0.2-0.2,0.3-0.3,0.1c0.1-0.2,0-0.3-0.2-0.3c-0.2,0.1-0.2,0.4,0,0.6c0.3,0.2,0.8,0.1,0.8-0.7c-0.1-0.8-0.6-2-0.6-2
				c0.7,1.3,1.2,2.3,1.1,4.3c-1.4-1.1-2.7-1.3-3.8-0.8c-0.5,0.2-0.6-0.3-0.6-0.4c0-0.3,0.2-0.4,0.3-0.3c-0.2,0.2,0,0.4,0.2,0.3
				c0.2-0.2,0-0.6-0.4-0.6c-0.2,0-0.5,0.2-0.4,0.6c-0.3,0-0.5,0.1-0.5,0.2c-0.2,0.4,0.3,0.7,0.5,0.4c0.1-0.1-0.1-0.3-0.2-0.1
				c-0.2-0.1,0-0.3,0.3-0.2c0.1,0.1,0.3,0.3,0.1,0.5c-1,0.9-1.9,2.1-2.6,3.5c0.7,0.4,1.4,0.6,2.1,0.7c-0.4,0.3-0.9,1.4,0.3,1.9
				c0.8,0.2,1.3-0.5,0.9-1c-0.1-0.1-0.2-0.1-0.3-0.1c-0.2,0-0.5,0.3-0.1,0.5c-0.1,0.6-1.2-0.1-0.5-0.8c0.4-0.4,0.9-0.4,1-0.4
				c1.3-0.1,2.5-0.8,3.6-2.3c0,0.1-0.4,1.2-0.8,1.9C75.9,70.7,76.5,70.6,77,70.6z"/>
			<path fill="#FDC20F" d="M84.3,74.8c2.9-0.9,2.5,2.4,0.4,2.1c0.1,1.9,0.7,4.2,0.7,4.2S80,83,77.3,84.8c-1.8-2-7.3-3.5-7.3-3.5
				c0.2-1.7,0.2-3.4-0.2-4.9c-2.6-0.8-1.1-3.1,0.6-2.2C70.4,74.2,76.5,76.7,84.3,74.8z"/>
			<path fill="#FBB03C" d="M77.2,84.8L77,75.5c-4-0.2-6.7-1.3-6.7-1.3c-1.8-1-3.2,1.4-0.6,2.2c0.4,1.6,0.4,3.2,0.2,4.9
				C69.9,81.3,75.4,82.8,77.2,84.8z"/>
			<path fill="#F6C785" d="M70.5,81l2.6,0.8c-0.6,4.8,7.4,6.1,8.2,0.5l3.3-1.5l-0.3-5.3c-4.8,0.6-9.5,0.4-14.2-0.7
				C70.5,77.1,70.8,78.9,70.5,81z"/>
			<path fill="none" stroke="#010101" stroke-width="0.2106" stroke-miterlimit="10" d="M79.3,66.7"/>
			<path fill="#F6C785" d="M78,67.6c2-2.3,4.4-1.2,6.3,0.5C82.8,69.9,80.6,69.6,78,67.6z"/>
			<path fill="#F6C785" d="M76,68.1c-2.7,3.7-5.9,2-5.9,2S73,65,76,68.1z"/>
			<path fill="#F6C785" d="M82.5,81.2c-1.8,0-11.8-5.1-9.5-5.3c7.5,0,7.6-2,9.6-2.3C85.6,72.7,87.7,81.2,82.5,81.2z"/>
			<path fill="#FFFFFF" d="M83,74.1c1.9,0.1,3.6,6.7-0.4,6.4c-2.2-0.4-2.7-0.9-5.1-0.9c-2.5-0.2-4.4,0.4-5.3,0.2
				c-1.5-0.3-2.4-4.2,0.6-4.8c1.2-0.2,1.5,0.5,4.1,0.6C81.1,75.7,81.7,74,83,74.1z"/>
			<path fill="#D0D0CC" d="M73,77.6c2.4,0.3,6.1-0.1,7.6-0.5c0.1-1,1.2-1.2,1.3-0.2c0,0,1.1-0.1,1.9,0.5c-0.4-0.8-1.7-0.7-1.7-0.7
				c-0.3-1.3-1.6-0.9-1.7,0c-2.1,0.6-5.2,0.8-7.7,0.6L73,77.6z"/>
			<path fill="#A67D52" d="M79.6,67.5c-0.1,0.1,0,0.3,0.2,0.3c1.2-0.9,3.2,0.3,3.1,0.2C81.9,67,80.8,66.6,79.6,67.5z"/>
			<path fill="#A67D52" d="M74.4,67.6c0,0,0.1,0,0.1,0c0.2,0.1,0.1,0.4-0.1,0.3c-0.8-0.2-1.7,0.1-2.6,0.9
				C72.6,67.7,73.6,67.5,74.4,67.6z"/>
			
				<ellipse transform="matrix(0.9907 -0.1359 0.1359 0.9907 -9.9967 12.668)" fill="#B75332" cx="87.8" cy="79.6" rx="0.8" ry="1.5"/>
			
				<ellipse transform="matrix(0.9696 0.2448 -0.2448 0.9696 21.4058 -13.9011)" opacity="0.2" fill="#484039" cx="66.6" cy="79.2" rx="0.8" ry="1.5"/>
			<path fill="#F6C785" d="M87.9,78.3c-0.7,0.8-0.3,2,0.2,2.3c0,0,1.3,0.1,1.3-1.3C89.2,77.8,87.9,78.3,87.9,78.3z"/>
			<path fill="#F6C785" d="M66.7,78c0.7,0.8,0.3,2-0.2,2.3c0,0-1.5,0-1.5-1.4C65.4,77.6,66.7,78,66.7,78z"/>
			<g>
				
					<ellipse transform="matrix(0.9902 0.1393 -0.1393 0.9902 10.2018 -10.6253)" fill="#A67D52" cx="81" cy="67.6" rx="0.6" ry="0.7"/>
				<circle fill="#F6C785" cx="81.4" cy="67.2" r="0.3"/>
				<circle fill="#736458" cx="81" cy="67.4" r="0.3"/>
			</g>
			<g>
				<ellipse fill="#A67D52" cx="73.5" cy="68.3" rx="0.6" ry="0.7"/>
				<circle fill="#F6C785" cx="73.8" cy="67.9" r="0.3"/>
				<circle fill="#736458" cx="73.5" cy="68.1" r="0.3"/>
			</g>
			<path fill="#736458" d="M83.9,61c0.6,0.7,0.9,1.5,0.8,2.6c-1.7,0.1-3.9,1-6.2,2l-0.7-2.8C80,61.9,82.2,61.2,83.9,61z"/>
			<path fill="#736458" d="M74.8,64.5c0,0.8-0.2,1.4-0.8,2c-1.6-0.5-3.4-0.9-5.4-0.9c0.3-0.8,0.8-1.7,1.8-2.7
				C72.2,63.8,73.1,64.3,74.8,64.5z"/>
		</g>
		<circle fill="#A67D52" cx="77.2" cy="132.5" r="0.5"/>
		<path opacity="0.2" fill="#A67D52" d="M56.9,30l5.3,1.9l-5.2-1C57.1,30.9,57,30.4,56.9,30z"/>
		<path opacity="0.2" fill="#A67D52" d="M76,68.1c-2.3-2.3-4.5-0.3-5.9,2c1.7-2,3.5-3.7,5.8-1.9L76,68.1z"/>
		<path opacity="0.2" fill="#A67D52" d="M78,67.6l0.3,0.2c1.7-2,3.7-1.4,6,0.3C82.1,66.2,80,65.3,78,67.6z"/>
		<path opacity="0.1" fill="#A67D52" d="M91.9,78.4l1.3,13.4c-1.1-2.1-2-4-2.4-5.2C90.9,86,90.8,81.3,91.9,78.4z"/>
		<path opacity="0.1" fill="#A67D52" d="M59.2,78.4l2.6,13.3c0.8-1.3,1.9-4.8,1.9-4.8C63.1,81,59.9,79,59.2,78.4z"/>
		<polygon opacity="0.1" fill="#A67D52" points="73.1,80.5 73.1,82.4 72.1,82 		"/>
		<polygon opacity="0.1" fill="#A67D52" points="58.7,61.3 55.7,64.9 59.5,63.6 		"/>
		<polygon fill="#E6E6E5" points="81.9,91.2 80.7,96.3 78.1,98.8 80,91 		"/>
		<polygon fill="#E6E6E5" points="76.4,91.2 74.1,91 76.2,97.1 78.1,98.7 		"/>
		<polygon fill="#FFFFFF" points="81.9,91.2 90.4,82 80,91 		"/>
		<polygon fill="#FFFFFF" points="64.1,82 74.1,91 76.4,91.2 		"/>
		<path opacity="0.1" fill="#A67D52" d="M79.5,73.4c0,0,0.2-0.5,1.1-0.5C80.3,73.7,79.5,73.4,79.5,73.4z"/>
		<path opacity="0.1" fill="#A67D52" d="M74.5,73.8c-0.9-0.2-1.3-0.6-1.3-0.6S73.3,74,74.5,73.8z"/>
		<path fill="#F3F3F3" d="M78.1,102.4L78.1,102.4c-0.1,0-0.2-0.1-0.2-0.2v-3.5c0-0.1,0.1-0.2,0.2-0.2l0,0c0.1,0,0.2,0.1,0.2,0.2v3.5
			C78.3,102.3,78.2,102.4,78.1,102.4z"/>
		<circle fill="#F3F3F3" cx="78.2" cy="98.5" r="0.8"/>
		<path opacity="0.1" fill="#A67D52" d="M91.1,61l2.1,3.1c-1.1,0.2-2.1,0.3-3,0.5C90.5,63.3,90.9,61.8,91.1,61z"/>
		<path opacity="0.1" fill="#A67D52" d="M84.7,35.3l2.2,1l0.8,15.1c-0.6-4.2-0.8-8.2-1.7-11.9C85.7,37.9,85.2,36.5,84.7,35.3z"/>
		<path opacity="0.2" fill="#A67D52" d="M88.2,31.3l2.3,0c0.1,0.8,0.4,1.3,0.8,1.6c0.3-1.4,0.6-2.7,0.5-2.8L88.2,31.3z"/>
		<path fill="#A23030" d="M76.1,156.7c1.2-3.8,0.8-16.6,0.8-17.3l0.1-0.1c-4.5,0.2-9.3-1.1-14.2-4.5l-4,9.3l14.9,12.4L76.1,156.7
			L76.1,156.7z"/>
		<path fill="#BA2D33" d="M108.3,214.1c1.4-1.2,2.7-1.2,2.7-1.2l1.3,1.1c0,0-1.6,0.1-3.1,1.2C108.4,215.7,107.6,214.8,108.3,214.1z"
			/>
		<path fill="#BA2D33" d="M110.7,216.1c1.4-1.2,2.5-1.2,2.5-1.2l1.2,1.2c0,0-1.3,0-2.8,1.2C110.8,217.6,110,216.8,110.7,216.1z"/>
		<path fill="#A23030" d="M40.4,207.7c0,0,1.6-0.2,3.3,1.3c0.8,1-0.7,2.1-1.3,1.7c-2.1-1.7-3.4-1.3-3.4-1.3L40.4,207.7z"/>
		<path fill="#A23030" d="M38.3,210.3c0,0,1.6-0.2,3.3,1.3c0.8,1-0.7,2.1-1.3,1.7c-2-1.6-3.3-1.2-3.3-1.2L38.3,210.3z"/>
		<g>
			<g>
				<path fill="#51191A" d="M54.4,176.8C54.4,176.8,54.4,176.8,54.4,176.8l-2.7-0.6c-0.2,0-0.3-0.2-0.2-0.4c0-0.2,0.2-0.3,0.4-0.2
					l2.6,0.6c0.2,0,0.3,0.2,0.2,0.4C54.7,176.7,54.5,176.8,54.4,176.8z"/>
			</g>
			<g>
				<path fill="#51191A" d="M54.2,178.2C54.2,178.2,54.2,178.2,54.2,178.2l-2.9-0.6c-0.2,0-0.3-0.2-0.2-0.4c0-0.2,0.2-0.3,0.4-0.2
					l2.8,0.6c0.2,0,0.3,0.2,0.2,0.4C54.5,178.1,54.4,178.2,54.2,178.2z"/>
			</g>
		</g>
		<g>
			<g>
				<path fill="#7A2424" d="M100.6,178.2C100.6,178.2,100.6,178.2,100.6,178.2l-2.7,0.6c-0.2,0-0.3-0.1-0.4-0.2
					c0-0.2,0.1-0.3,0.3-0.4l2.6-0.5c0.2,0,0.3,0.1,0.4,0.2C100.9,178,100.8,178.2,100.6,178.2z"/>
			</g>
			<g>
				<path fill="#7A2424" d="M101,179.6C101,179.6,101,179.6,101,179.6l-2.9,0.6c-0.2,0-0.3-0.1-0.4-0.2c0-0.2,0.1-0.3,0.3-0.4
					l2.8-0.6c0.2,0,0.3,0.1,0.4,0.2C101.2,179.3,101.2,179.5,101,179.6z"/>
			</g>
		</g>
	</g>
</g>
</svg>
