<?xml version="1.0" encoding="utf-8"?>
<!-- Generator: Adobe Illustrator 18.0.0, SVG Export Plug-In . SVG Version: 6.00 Build 0)  -->
<!DOCTYPE svg PUBLIC "-//W3C//DTD SVG 1.0//EN" "http://www.w3.org/TR/2001/REC-SVG-20010904/DTD/svg10.dtd">
<svg version="1.0" id="Layer_1" xmlns="http://www.w3.org/2000/svg" xmlns:xlink="http://www.w3.org/1999/xlink" x="0px" y="0px"
	 viewBox="0 0 173 230" enable-background="new 0 0 173 230" xml:space="preserve">
<g>
	<path fill="#FF6666" d="M149.4,182.1c14.6-15,23.6-36.2,23.6-59.2c0-47.8-38.7-86.4-86.5-86.4S0,75.1,0,122.8
		c0,23,9,44.2,23.6,59.2H149.4z"/>
	<g>
		<path opacity="0.1" fill="#883E26" d="M129.3,215.1c-0.6-0.3-0.2-1.1-0.9-1.3l24.7-6c0,0-48.1-2.6-48.9-3.4
			c-0.7-0.6-5.3,6.8-6.5,8.9c-1.4,0.1-2.7,0.2-3.9,0.5H58.5c-1.7-0.3-3.6-0.6-5.6-0.6c-7.6,0-13.7,3.1-13.7,6.9s3.1,9.9,14.2,9.9
			c2.5,0,4.8-0.3,6.9-0.9c7.9-5.6,22.1-7.1,32.5-7c4.7,0,9.2,1.4,13.1,4c3.2,2.1,8.8,3.5,15.2,3.5c10,0,18.1-3.4,18.1-7.6
			C139.1,218.9,135.1,216.3,129.3,215.1z"/>
		<path fill="#B6A999" d="M47.7,214.1h80c0,0,0-131.9,0-143.2l-57-37.7c-9.8,1.4-17.6,2.7-24.4,4.5L47.7,214.1z"/>
		<path opacity="0.2" fill="#897F73" d="M103.1,69.9l0.1,13.5l6.5,4.8l-0.9,6.3L98,93.4l-13.2,28.7L82,34.2l-35.7,3.4l1.3,176.4h40
			l-2.6-83h2.1c1,9,3.4,19.7,7.5,28.9c-4.6,12.5,5.1,33.1,4.6,54.1h6.5l-4.8-91.4l3.9-11.6l3.9-2.7l1.1-5.8l3.7-4.6l3.4-5.8
			l3.6-15.3L103.1,69.9z"/>
		<polygon fill="#BA2B32" points="65.7,100.4 65.7,108.8 84.4,125.1 88,125.1 104.1,108.1 104.2,97.9 		"/>
		<polygon fill="#A12E2F" points="65.7,100.4 65.7,108.8 84.4,125.1 86.2,125.1 85.9,103.9 		"/>
		<path fill="#B3B3B3" d="M96,25.6l-35.6,1.1c0,0,18.3,15.7,18.4,15.7c0.1,0,7-3,7-3L96,25.6z"/>
		<path fill="#F6C785" d="M107.8,57.5c-0.2,4.8-3.3,11.6-4.3,15.7c-0.9,4.2,0.3,25.4,0.3,25.4c-15,10.6-38.5,2.3-38.5,2.3
			s-2.9-13.8-5.3-21.8c-6-5.9-9.8-14.5-9.8-14.5c0.1,5.1-2.3,9.2-5.9,12.8l-17-4.4c-0.3-4.4,0.9-9.4,4.7-15.5
			c2.2-10.7,7.2-18.5,18.1-20.5c0,0,19.6-2.9,20.3-3.1c0.7-0.2,26.7-2.1,26.7-2.1C110.5,33.5,109.6,45.2,107.8,57.5z"/>
		<path opacity="0.1" fill="#A67C52" d="M83.4,75.2l1.6-0.2l-2.8-34.1c-1.9-0.7-2.2-2.7-0.3-3.4l-0.3-3.3c0,0-0.5-0.5-1.4-1.3
			c-5.1,0.4-9.5,0.8-9.7,0.9C69.9,34.1,50.3,37,50.3,37c-10.9,2-15.9,9.8-18.1,20.5c-3.8,6.1-5,11.1-4.7,15.5l17,4.4
			c3.6-3.6,6-7.6,5.9-12.8c0,0,3.8,8.6,9.8,14.5c2.4,8,5.3,21.8,5.3,21.8s9,3.2,19.3,3.1c0.7,0,1.1,0,1.1,0L83.4,75.2z"/>
		<path fill="#792323" d="M65.6,108.8c-4,17.6-6.1,37.6-2.3,50.2c-0.3,4.4,0.2,6.3,0.6,8.6c0.1,13.3,6.9,32.1,1.7,43.4
			c-0.9,2.7-15.4,7.1-17.9,15.1c2.7,0.4,12.7,1.8,20.8-6.5c4.1,0.4,7.2-1.6,7.2-1.6c-2.6-28.5,8.1-36.1,2.9-57
			c4.4-11.6,5.4-26.2,5.9-35.6L65.6,108.8z"/>
		<path fill="#A12E2F" d="M88,125.5c0,0,2.6,17.2,7.7,31.3c0.6,1.7,1.1,3.5,0.8,5.4c-2.5,20.5,6.2,30,4.4,48.2
			c-0.6,5.6-2.2,7.9,7.1,7.9c0,0,4.4,7.1,16.3,5.4c0-2.2-0.7-6.1-10.8-11.2c-2.7-1.4-4.7-3.9-5.3-6.9c-1.8-8.6,1.2-26.6,2.2-39.6
			c1.1-2.3,1.4-6.3,1.2-8.1c0-0.3-0.1-0.6,0-0.9c2.4-12.6,0.7-20.9-7.5-48.7L88,125.5z"/>
		<g>
			<ellipse fill="#BA2B32" cx="106.7" cy="164.6" rx="3.2" ry="5.1"/>
			<g>
				<g>
					<path fill="#883E26" d="M108.6,164.1C108.6,164.1,108.5,164.1,108.6,164.1l-3.2-0.2c-0.2,0-0.4-0.2-0.3-0.4
						c0-0.2,0.2-0.4,0.4-0.4l3.1,0.2c0.2,0,0.4,0.2,0.3,0.4C108.9,163.9,108.8,164.1,108.6,164.1z"/>
				</g>
				<g>
					<path fill="#883E26" d="M108.7,165.9C108.6,165.9,108.6,165.9,108.7,165.9l-3.4-0.1c-0.2,0-0.4-0.2-0.4-0.4
						c0-0.2,0.2-0.4,0.4-0.4l3.3,0.1c0.2,0,0.4,0.2,0.4,0.4C109,165.7,108.8,165.9,108.7,165.9z"/>
				</g>
			</g>
			<path fill="#BA2B32" d="M111.4,211l2.2,1.5c0,0-2.1,0-3.4,2.9c-0.4,0.7-2.4-0.1-2-2C109.3,211,111.4,211,111.4,211z"/>
			<path fill="#BA2B32" d="M114.8,213.2c-0.6,0.1-2.6,1.1-3.3,3.1c-0.5,1.5,1.1,2.4,1.5,1.6c1.3-3,3.8-3.6,3.8-3.6L114.8,213.2z"/>
		</g>
		<g>
			<path opacity="0.2" fill="#792323" d="M94.6,102.8L94.6,102.8c0.4,1.2,2.1,2.6,4.1,2.4c0,0.9,0.5,1.5,1.5,1.9
				c0.4,1.2,1.5,1.6,2.9,1.7c0.2,0.7,0.7,1.6,1.5,1l-1.1-4l0.4-7.2C101,100.6,98,102,94.6,102.8z"/>
		</g>
		<path opacity="5.000000e-02" fill="#792323" d="M98.2,94.3l-3.5,8.5c3.2-0.8,6.3-2.2,9.1-4.2c0,0-0.2-3.5-0.4-7.9l0-0.1L98.2,94.3
			z"/>
		<path fill="#F6C785" d="M99.4,31.4c5.1,0.5,13.2,3.6,15.7,13.2c5,3.9,7,9.2,8.6,14.7c3.1,4,4.6,6.9,4.6,11.7
			c-1.8,5.6-8.6,14.3-16.5,24.3c-0.7,1-1.3,1.9-1.3,1.9s-1.1,2.4-2.2,4.1c-0.6,1-1.5,5.3-1.6,5.5c-0.4,0.6-2.5,1.6-2.5,1.6
			s-1.3-0.4-0.7-1.4c-0.4,0-1,0.2-1,0.2c-0.7-0.2-1.2-1.5-0.9-2.2c-1,0.4-2.4-0.5-2.1-1.6c0,0-3,0.3-3-1.7c1.2-3.5,3.6-7.8,3.6-7.8
			l3.5-1.8l-0.1-2.6c0.5-0.1,3.4,0.5,3.4,0.5s3-4,3.9-7.9c0.5-3.5,0.5-9.7,2.6-14.9c-3.4-2.3-6.6-5.1-9-8.5L99.4,31.4z"/>
		<path opacity="5.000000e-02" fill="#792323" d="M99.4,103.1h-0.6c0,0,1.8-5.2,3.6-6c0.9-0.4,0.7,0.7,0.7,0.7
			C101.5,98.7,101,101.1,99.4,103.1z"/>
		<path opacity="5.000000e-02" fill="#792323" d="M101,105.1l2.9-3.5l0.9-1.5c0,0,0.6-0.3,0.8-0.2c0.2,0.1,0,0.4,0,0.4l-1.5,2
			l-2.7,2.9L101,105.1z"/>
		<path opacity="5.000000e-02" fill="#792323" d="M103.1,107c0.2,0,2.3-2.1,2.6-2.6c0.3-0.5,0.7-1.3,0.8-0.9
			c0.2,0.4-0.5,1.4-0.5,1.4l-2.7,2.3L103.1,107z"/>
		<path fill="#A67C52" d="M82.3,34.2c0,0-0.1,3.3-0.1,3.3c-2.1,0.6-1,2.8,0.4,3.4c-2.3,0-2.9-2.9-0.9-3.9v-2.7L82.3,34.2z"/>
		<path fill="#F6C785" d="M64.8,22.6c-3.6-0.5-3.6,4.7-0.1,4.4C66.6,26.4,66.1,23.1,64.8,22.6z"/>
		<path opacity="0.1" fill="#A67C52" d="M62,25.1h1.2V27C62.7,26.8,62.3,26.1,62,25.1z"/>
		<path fill="#BA2B32" d="M90.3,6.4c0,0,3,19.6,3.5,23.8c-11,8.9-30.6,1.1-30.6,0.8c0-0.3,1.8-23.5,1.8-23.5s5.3-7,11.4-7.5
			S90.3,6.4,90.3,6.4z"/>
		<path fill="#792323" d="M88.2,21.7c2.2-1.2,1.6-4.3-1.1-2.8c-3.2,1.8-7.3,2.9-10.6,3.5l-0.1-0.3l-0.8-4.3l0.1-0.5
			c0.7-0.1,1.5-0.1,2.5-0.1c-0.2-0.6-0.4-0.7-0.6-1.7c0,0,3,2.7,6.6,2c0.4,0.1,0.6,0.5,0.4,0.9c-0.1,0.2-0.5,0.1-0.4-0.1
			c0.2,0.1,0.2-0.1,0.1-0.2c-0.2-0.2-0.4-0.1-0.5,0.1c-0.1,0.3,0.2,0.7,0.7,0.7c0.9-0.2,0.7-1.1,0.3-1.6c1.3-0.5,3.1-1.8,3.8-4
			c-1.1-0.8-2.1-2.1-3.7-2.8c-0.4-0.2-0.5-0.6-0.5-0.8c0-0.8,1.1-0.9,1-0.4C85.2,9.2,85,9.8,85.2,10c0.3,0.1,0.5,0.1,0.7-0.1
			C86.6,9,85.4,8,84.5,8.6c-0.9-1.3-2.7-0.5-2.2,0.8c0.3,0.8,1.5,0.2,1-0.5c-0.1-0.1-0.4,0-0.3,0.3c-0.2,0-0.4-0.3,0-0.5
			c0.7-0.3,1.6,1-0.1,1.6c-2.9,0.5-5.1,3.6-5.1,3.6c0.3-2.4,1-5.7,2.3-8.5c0,0-0.8,2.8-0.6,4.3c0.2,2,2.9,0.9,2.1-0.5
			c-0.4-0.7-1.3-0.3-1.2,0.4c0.1,0.4,0.6,0.3,0.6-0.1c0.3,0,0.2,0.4,0.1,0.5c-0.1,0.2-0.8,0.5-1-0.4c-0.3-1.6,0.7-4.2,1.6-4.9
			c0.6-0.6,1.5-0.1,1.1,0.5c-0.2-0.5-0.9-0.4-0.9,0.1c-0.2,0.8,0.9,1.3,1.7,0.7c1-0.7,0.8-2.1-0.5-2.8c-1.8-0.9-3-0.7-3.8-0.5
			C78,3.2,78,4.5,78.8,5.3c-0.1,2.1-1,5.4-2.5,7.3c0-0.1-0.1-0.1-0.1-0.2l0-0.3L76.4,0c-6,0.5-11.4,7.5-11.4,7.5S63.3,30.7,63.2,31
			c0,0.2,9.5,4.1,18.9,3.4c2.1-3.1,4.9-5,7.7-7C89.2,26,87.4,24.1,88.2,21.7z"/>
		<path fill="#FFC200" d="M76.4,12.1c1.5-1.9,2.3-5.1,2.5-7.3C78,4,78,2.8,79.4,2.3c0.8-0.2,2-0.4,3.8,0.5c1.3,0.7,1.4,2.1,0.5,2.8
			c-0.8,0.6-1.9,0.1-1.7-0.7c0-0.5,0.7-0.6,0.9-0.1c0.4-0.6-0.5-1.1-1.1-0.5c-0.8,0.8-1.8,3.4-1.6,4.9c0.2,0.8,0.9,0.5,1,0.4
			c0.1-0.1,0.2-0.5-0.1-0.5c0,0.3-0.5,0.4-0.6,0.1c-0.2-0.7,0.8-1.1,1.2-0.4c0.7,1.4-2,2.5-2.1,0.5c-0.2-1.5,0.6-4.3,0.6-4.3
			c-1.3,2.8-2,6.1-2.3,8.5c0,0,2.2-3.1,5.1-3.6c1.7-0.6,0.8-1.9,0.1-1.6c-0.4,0.2-0.2,0.6,0,0.5c-0.1-0.3,0.2-0.4,0.3-0.3
			c0.5,0.6-0.7,1.2-1,0.5c-0.5-1.3,1.3-2,2.2-0.8c0.9-0.6,2.2,0.4,1.5,1.3c-0.2,0.2-0.5,0.2-0.7,0.1c-0.3-0.2,0-0.7,0.2-0.6
			c0.1-0.5-1-0.3-1,0.4c0,0.2,0.1,0.6,0.5,0.8c1.6,0.7,2.7,2.5,3.7,3.3c-1.1,2-2.5,3-3.8,3.5c0.4,0.5,0.6,1.4-0.3,1.6
			c-0.5,0.1-0.9-0.4-0.7-0.7c0.1-0.2,0.3-0.3,0.5-0.1c0.1,0.1,0,0.3-0.1,0.2c-0.1,0.2,0.3,0.3,0.4,0.1c0.2-0.4-0.1-0.8-0.4-0.9
			c-3.6,0.7-6.6-2-6.6-2c0.2,1.1,0.4,1.6,0.6,2.2c-1.3-0.3-2.5-0.4-3.7-0.2c0.5-0.5,0.6-1.4,0.7-1.7c-1.4,1.6-2.7,2.4-4.2,2.5
			c-0.8,0.1-0.9,0.6-0.5,0.7c-0.2-0.1,0-0.3,0.2-0.3c0.4,0.1,0.3,0.9-0.4,0.7c-0.3,0-0.7-0.6-0.1-1.1c-1.5-0.2-2.6-1-4.4-2.3
			c1.2-1.2,2.1-2.4,3.7-3c0.5-0.3,0.4-0.9-0.2-0.8c0.3,0.2,0.2,0.6-0.2,0.5c-0.8-0.3-0.1-1.4,0.9-0.9c0.2-1.4,2.2-0.2,1,0.6
			c-0.3,0.1-0.6-0.3-0.1-0.5c-0.1-0.2-0.4-0.1-0.5,0c-0.2,0.2-0.2,0.7,0.2,0.7c1.4-0.1,2.9,0.3,4.8,1.8c0-3.4-1.2-6.6-2.6-8
			c0,0,1.7,3.4,1.3,5.4c-0.3,1.2-1.8,0.6-1.6-0.4c0.1-0.3,0.3-0.4,0.5-0.3c0.3,0.1,0.3,0.4,0,0.5c0.1,0.2,0.4,0.2,0.5-0.1
			c0.4-1.3-1.5-6.5-3.3-5.2c-0.4,0.4-0.5,1,0.1,1c-0.3-0.3-0.1-0.8,0.3-0.7c0.5,0.2,0.4,0.7,0.2,1.1c-0.2,0.4-1.1,0.6-1.6,0
			C69,7,69,6.2,69.7,5.2c0.7-1,2.4-2.2,3.6-2.6c1.5-0.5,2.1,1.5,1.2,2.5C74.3,7.1,75.2,10.2,76.4,12.1z"/>
		<path fill="#FBB03B" d="M70.2,18.9c0.7,0.2,0.8-0.6,0.4-0.7c-0.2,0-0.4,0.2-0.2,0.3c-0.4-0.1-0.3-0.6,0.5-0.7
			c1.5-0.1,2.9-0.9,4.2-2.5c0,0.3-0.2,1.2-0.7,1.7c0.4-0.1,0.8-0.1,1.2-0.1l0.2-0.1l0.8-4.7V12c-2-1.9-2.2-5-2.1-6.9
			c1-1,0.2-3-1.3-2.5c-1.2,0.4-3,1.6-3.7,2.6C69,6.2,69,7,69.3,7.3c0.5,0.6,1.3,0.4,1.6,0c0.2-0.4,0.3-0.9-0.2-1.1
			C70.2,6.2,70,6.7,70.3,7c-0.6,0-0.6-0.6-0.1-1c1.8-1.3,3.7,3.9,3.3,5.2c-0.1,0.3-0.4,0.4-0.5,0.1c0.3-0.1,0.3-0.4,0-0.5
			c-0.2-0.1-0.5,0-0.5,0.3c-0.3,1,1.3,1.6,1.6,0.4c0.4-2-1.3-5.4-1.3-5.4c1.4,1.4,2.6,4.6,2.6,8c-1.9-1.5-3.4-2-4.8-1.8
			c-0.4-0.1-0.4-0.5-0.2-0.7c0.1-0.1,0.4-0.2,0.5,0c-0.4,0.2-0.1,0.6,0.1,0.5c1.2-0.8-0.8-2-1-0.6c-1-0.5-1.7,0.6-0.9,0.9
			c0.4,0.1,0.5-0.3,0.2-0.5c0.6-0.1,0.7,0.5,0.2,0.8c-1.6,0.5-2.4,1.8-3.7,3c1.8,1.3,2.9,2.2,4.4,2.3C69.4,18.3,69.9,18.9,70.2,18.9
			z"/>
		<path fill="#F6C785" d="M72.5,19.4c0,0-1.6,0.1-1.5,1.3c0.2,1,1.9,0.4,1.9,0.4L72.5,19.4z"/>
		<path opacity="0.1" fill="#A67C52" d="M72.6,19.4L72,19.5c-0.4,0.6-0.4,1.2,0,1.8l0.9-0.2L72.6,19.4z"/>
		<path opacity="0.3" fill="#792323" d="M80.8,19.4c-0.1,0.7-0.4,1.1-1.1,1c-2,1.9-5.5,2.2-6.8,0.7L80.8,19.4z"/>
		<path fill="#F6C785" d="M79,18.2c-2.7-0.5-4.6-0.4-6,0.5c-0.7,0.6-0.9,1.5-0.1,2.4c1.2,1.1,4.5,0.8,6.6-1.3
			C82,19.9,80.9,17.3,79,18.2z"/>
		<path fill="#FFC200" d="M71,22.9c-3,0.2-2.8,2.4-0.8,2.4c1.8,1.7,2.2,4.2,2.4,6.9c3.7,0.1,7,0.7,9.6,2.3c1.4-2.7,4.1-5,7.7-7.1
			c-0.7-1.4-2.4-4.1-1.6-6.5c2.2-1.2,1.4-3.8-1.2-2.3C80.8,22.1,71,22.9,71,22.9z"/>
		<path fill="#FBB03B" d="M70.2,25.3c1.8,1.7,2.2,4.2,2.4,6.9c3.6,0.1,7,0.7,9.6,2.2c0,0,0,0,0,0l-5.8-12.3v0
			c-3.1,0.6-5.4,0.8-5.4,0.8C68,23.1,68.2,25.4,70.2,25.3z"/>
		<path fill="#F6C785" d="M78,14.2c3.1-3.7,6.4-4.9,9.1-0.7C84.4,17,81.4,16.9,78,14.2z"/>
		<path fill="#F6C785" d="M74.7,14.6c-3.7,4.9-7.6,0.6-7.6,0.6S69.9,10.7,74.7,14.6z"/>
		<path opacity="0.1" fill="#A67C52" d="M49.8,49.2l6.4,8.7c1.2,2.1-5.8,6.5-5.8,6.5L49.8,49.2z"/>
		<polygon fill="#736357" points="65.7,8.4 71.7,4.4 72.6,7.6 66,9.8 		"/>
		<path fill="#F6C785" d="M86,19.2c2.6-1.3,4.8,2.1,2.1,4.4l0.4,3.7c0,0-5.8,3-7.2,4.6c-3.4-0.2-8-0.5-8-0.5
			c-0.5-3.5-1.8-5.8-3.1-8.2C76.1,23,81.3,21.7,86,19.2z"/>
		<path fill="#F6C785" d="M80,32.4c-3.6,1.7-6.6-2.7-3.4-4.6l-0.5-2.3l4.7-0.3C81.4,28.8,82.2,31.2,80,32.4z"/>
		<path opacity="0.1" fill="#A67C52" d="M81.7,44.9c-9.9,3.3-20,1.7-30.4-3.3c-1.6-1.3-3.8-2.3-7-2.7l1.2-0.6L81.7,44.9z"/>
		<path fill="#E6E6E6" d="M81.7,44.9c-20.1,3.1-25.9-4.6-36.2-6.6l0.8-0.8L81.7,44.9z"/>
		<path fill="#FFFFFF" d="M81.7,44.9c-20,1.8-24.7-5.2-35.3-7.4c4.2-1.2,15.4-4.1,24.5-4.3L81.7,44.9z"/>
		<polygon fill="#F2F2F2" points="75.3,34.1 82,44.9 60.7,34.9 60.7,26.7 		"/>
		<polygon fill="#E6E6E6" points="75.2,34.1 81.7,44.9 74.2,34.4 		"/>
		<polygon fill="#FFFFFF" points="60.5,26.7 75.2,34.1 74.2,34.4 		"/>
		<path opacity="0.1" fill="#A67C52" d="M69.8,75.1c10.5,3,19.9,3,29,0C88.9,75.1,79.3,75.1,69.8,75.1z"/>
		<circle fill="#A67C52" cx="84.8" cy="93.4" r="1.1"/>
		<path opacity="0.1" fill="#A67C52" d="M82.7,44.9c0,17.9,9.7,27.3,20.5,38.5l0-10.2L82.7,44.9z"/>
		<polygon fill="#B6A999" points="145.5,201.7 153.1,207.8 136.8,207.8 		"/>
		<path fill="#F2F2F2" d="M128.2,213.2c1.7-1.3,17.4-12.1,17.4-12.1H128L128.2,213.2z"/>
		<polygon fill="#E6E6E6" points="139.3,201.1 145.5,201.1 128.7,213.8 128.7,209.7 		"/>
		<path opacity="0.1" fill="#A67C52" d="M110.2,84.1l-1.4,2.9c0,0,0,0,0,0c2,0,3.4,1.9,3,3.8l-1.4,6.3l4.1-5.4l0.8-1.1
			C115.4,87.2,114.6,84.4,110.2,84.1z"/>
		<path fill="#FFFFFF" d="M83,45.7c0,15.9,16.1,26.1,25.4,35.3c4.5,4.5,7.1,10.7,7,17l-0.2,101c-0.1,8.1,5,15,13.2,14.7c0,0,0,0,0,0
			l-0.1-149.2c0-14.5-9.2-27.5-22.9-32.1c-2.1-0.7-4.1-1.2-5.9-1.2l-4.5,0c-0.9,0,0.8,0.7,0.8,1.6v0c0,0.5-0.2,0.9-0.6,1.2
			L83.5,44.3C83.2,44.7,83,45.2,83,45.7z"/>
		<path fill="#E6E6E6" d="M117.3,197.4l0.1-101c0-6.4-2.6-12.5-7.1-17c-9.2-9.2-25.4-19.4-25.4-35.3l0-1l-1.4,1.2
			c-0.4,0.3-0.6,0.8-0.6,1.4c0,15.9,16.1,26.1,25.4,35.3c4.5,4.5,7.1,10.7,7,17l-0.2,101.1c-0.1,8.1,5,14.9,13.2,14.9
			c0,0,0.3,0,0.3,0v-2C121.7,211.3,117.2,204.9,117.3,197.4z"/>
		<polygon opacity="0.1" fill="#A67C52" points="75.5,25.3 73.3,31.4 75.6,31.5 76.4,27.6 		"/>
		<path fill="#A67C52" d="M75.5,25.3l0.4,2.5c-1.7,1.7-0.7,4,1.1,4.8c1.2,0.5,3.3,0.2,4-1.1c-1,0.9-2.7,0.9-3.5,0.5
			c-1.6-0.6-2-2.7-0.6-4l-0.3-2.2c3.4-0.3,7.2-1.1,9.3-4c0,0,0.5,0.1,0.8,0.9c0.1,0.2,0.3,0,0.4-0.1c-0.2-1.6-2.3-2-2.3-2
			s-0.3,0.1-0.1,0.3c0.4,0.2,0.6,0.2,0.7,0.6C83.8,24.6,75.5,25.3,75.5,25.3z"/>
		<path opacity="0.1" fill="#A67C52" d="M78,14.2c4-4.6,7-4.2,9.1-0.7C85,10.5,81.9,10.8,78,14.2z"/>
		<path opacity="0.1" fill="#A67C52" d="M74.7,14.6c-3-2.3-5.6-2.1-7.6,0.6C69.5,12.9,72,13.1,74.7,14.6z"/>
		<polygon fill="#F2F2F2" points="96,25.6 95.9,33.7 84.7,43.5 84.8,32.7 		"/>
		<polygon fill="#FFFFFF" points="96,25.6 83.1,32.8 84.8,32.7 		"/>
		<polygon fill="#E6E6E6" points="83.1,32.8 83,45.7 84.9,43.2 84.8,32.7 		"/>
		<polygon opacity="5.000000e-02" fill="#792323" points="103.8,91.4 104.4,89.7 103.4,89.6 103.5,91.4 103.5,91.4 103.5,92.2 
			105.3,91.2 		"/>
		<path fill="#A67C52" d="M79.9,13c-0.2,0.2-0.1,0.5,0.1,0.4c1.5-1.1,3-1.8,5.7-0.9c0.2,0,0.1-0.3-0.2-0.4
			C83.2,11.3,81.7,11.1,79.9,13z"/>
		<path fill="#A67C52" d="M72.9,13.6c0.3,0,0.2,0.4,0,0.4c-1.2-0.2-2.7-0.9-4.2,1.1c-0.1,0-0.2-0.1-0.1-0.2
			C70.5,13,71.1,13.3,72.9,13.6z"/>
		<g>
			<circle fill="#A67C52" cx="82.6" cy="13.2" r="1.2"/>
			<circle fill="#F6C785" cx="83" cy="12.7" r="0.4"/>
			<circle fill="#736357" cx="82.6" cy="13.2" r="0.6"/>
		</g>
		<g>
			<circle fill="#A67C52" cx="70.7" cy="14.8" r="1.1"/>
			<circle fill="#F6C785" cx="71.3" cy="14.3" r="0.4"/>
			<circle fill="#736357" cx="70.9" cy="14.8" r="0.5"/>
		</g>
		<path fill="#736357" d="M78.4,1.8c0,0-0.3,5.2-0.3,5.2c0-0.1,9.3,2.7,9.3,2.7l0.3-2.7L78.4,1.8z"/>
		<g>
			<g>
				<path fill="#F6C785" d="M40.4,45.7c0,0,10.6,10.8,20.8,14.6c4.4,2.3,13.4,14.9,14.6,18.2c1,3.2-4.3,8.7-7.9,14.8
					c-2.6,4.5-1.9,9.2-3.9,10.5c-7.7,3.2-13.4-10.8-9.5-18.9l-1.6-0.3c-0.6,4.7-1.5,8.3-10.6,12.3c0.2,3.5-3.2,6.7-9.1,6.5
					c-0.1,1.9-3.2,3.7-5.9,3c-2.7,4.6-10,3.2-13.1,0.4c-3.1-3.1-9.5-8.9-6.1-18.5L7,86c-1.4-4.4,0.5-10.3,4.2-14.2
					c0,0-2.1-6.2,2-10.6s11.3-8.1,11.3-8.1C25.1,47.7,31.1,42.2,40.4,45.7z"/>
				<path opacity="0.1" fill="#A67C52" d="M8,88.2c5.7,15,15.4,16.6,19.2,18.1c-0.6,0.8-1.1,1.8-2.5,2.3
					c-6.5-1.8-13.4-4.1-17.4-17.6C7.4,89.8,7.7,88.9,8,88.2z"/>
				<path opacity="0.1" fill="#A67C52" d="M26.3,88.1c6.9-2.3,12.5-4.6,16.9-8.5c-9.5,4-18.8,7.7-20.4,7.2c0-0.8,0.1-1.7,0.4-2.4
					c4.5-12.3,1.6-32.9,1.4-31.2l-5.4,3.2C19,58,20.5,62.4,23,68.9c-0.1,5.7-0.7,11.7-2.2,15.6c-0.3,0.8-0.4,1.6-0.4,2.4
					c0.1,2.6,0.7,4.8,1.8,6.5c-1.6-2-3.2-4.5-4.7-7.6c-2.3-5.1-6.2-14.1-6.2-14.1c-1.9,2.1-3,4-4,6.9c9,18.7,15.8,22,21.6,22.7
					c2.9,1.7,4.4,1.8,4.4,1.8s-5.4-2.7-7.6-6.1c4.8,3.4,11.9,3.5,16.5,1.1l0.1-1.4c-9,3.3-14.8-0.1-17.5-4
					C23.6,91.1,24.4,88.7,26.3,88.1z"/>
			</g>
			<path opacity="0.1" fill="#A67C52" d="M31.7,68.7C41,67,43.2,79.5,43.2,79.5S43.3,66.7,31.7,68.7z"/>
			<path opacity="0.5" fill="#FCCC92" d="M31.7,68.7c-3.6,1.2-5.7,4.7-5.7,4.7l-3.2,13.3c3.2-0.2,12.1-3.8,20.4-7.2
				C43.2,79.5,40.7,66.8,31.7,68.7z"/>
			<path opacity="0.1" fill="#A67C52" d="M55.1,73.2c-0.1-0.4-0.8-4.9-2.8-3.7l0-0.4l-4.4-10h0c-0.7-1-1.4-2-2-1.4
				c-1.3,2.1,4,8.4,7.2,26.5l1.6,0.4c0,0,1.3-2.6,3.7-4.7c2.8-1.7,5-1,6.1-1.5c1.5-0.6,1.5-1.2,0-1.3c-2.2-0.9-6.6,2.7-7.5,0.8
				C56.1,76.3,55.4,74.2,55.1,73.2z"/>
		</g>
		<path fill="#A12E2F" d="M71.5,163.8c0,2.9-1.5,5.2-3.3,5.1c-1.9-0.1-3.4-2.5-3.4-5.4s1.5-5.2,3.3-5.1
			C69.9,158.5,71.5,160.9,71.5,163.8z"/>
		<g>
			<g>
				<path fill="#511718" d="M69.5,163.2C69.5,163.2,69.5,163.2,69.5,163.2l-3.2-0.1c-0.2,0-0.4-0.2-0.4-0.4c0-0.2,0.1-0.4,0.3-0.4
					l3.1,0.1c0.2,0,0.4,0.2,0.4,0.4C69.8,163.1,69.7,163.2,69.5,163.2z"/>
			</g>
			<g>
				<path fill="#511718" d="M69.8,164.9C69.8,164.9,69.8,164.9,69.8,164.9l-3.5-0.1c-0.2,0-0.4-0.2-0.4-0.4c0-0.2,0.1-0.4,0.3-0.4
					l3.4,0.1c0.2,0,0.4,0.2,0.4,0.4C70.1,164.8,70,164.9,69.8,164.9z"/>
			</g>
		</g>
		<path fill="#A12E2F" d="M64.7,212.2c0.6,0.4,1.3,1.1,2.1,2c1,1.3-0.2,4-1.8,2c-0.9-1.3-1.9-2-2.6-2.5L64.7,212.2z"/>
		<path fill="#A12E2F" d="M57.7,216.4c0.5,0.2,2.1,1,3.4,2.4c1.4,1.6,2.2-0.6,1.6-1.5c-0.9-1.2-2-1.8-2.8-2.1
			C59.5,215.3,57.6,216.3,57.7,216.4z"/>
		
			<ellipse transform="matrix(0.9809 -0.1943 0.1943 0.9809 -2.799 18.1732)" fill="#792323" cx="91.2" cy="23.4" rx="1.2" ry="2.8"/>
		<path fill="#F6C785" d="M91.1,21.2c3.3-1.4,4.7,3.6,1.3,4.2C90.4,25.4,90,22,91.1,21.2z"/>
		<polygon fill="#631212" points="65.6,108.8 84.4,125.4 65,111.4 		"/>
		<polygon opacity="0.2" fill="#792323" points="88,125.5 104.1,108.3 104.9,111 		"/>
		<path opacity="5.000000e-02" fill="#792323" d="M101.3,100.2c0,0-0.2,0.9,0,1.4c0.3,0.5,2.1,1.6,2.1,1.6c0,0.9,0.3,1.7,1.6,2.1
			l-0.6,1c-0.2,1.3,0.8,1.1,1.8,0.8c-0.6,0.5-1.3,0.8-2.1,1.2c-0.9-0.3-0.9-0.8-0.7-1.4l-1,0.2c-1.1-0.8-1-1.9-0.9-2.2
			c-2.4,0.3-2.1-1.6-2.1-1.6c-1.4,0.1-2.5-0.1-2.9-1.2l-0.1-0.7l1.1-2.4C98,100.9,99.3,101.1,101.3,100.2z"/>
		<path opacity="0.1" fill="#A67C52" d="M90.5,23.3c1.1,0.9,3,0.7,3.9,0c0,0,0.1,1.7-2,2.1C91,25.6,90.5,23.3,90.5,23.3z"/>
		<path opacity="0.5" fill="#FCCC92" d="M73.2,18.6c-0.3,0.2-0.6,0.5-0.6,0.8c0,0,0,0,0,0c1-1.2,3.6-1.5,6.5-1.2
			C76.4,17.7,74.5,17.7,73.2,18.6z"/>
	</g>
</g>
</svg>
