<?xml version="1.0" encoding="utf-8"?>
<!-- Generator: Adobe Illustrator 17.0.2, SVG Export Plug-In . SVG Version: 6.00 Build 0)  -->
<!DOCTYPE svg PUBLIC "-//W3C//DTD SVG 1.1//EN" "http://www.w3.org/Graphics/SVG/1.1/DTD/svg11.dtd">
<svg version="1.1" xmlns="http://www.w3.org/2000/svg" xmlns:xlink="http://www.w3.org/1999/xlink" x="0px" y="0px"
	 width="300.038px" height="253.905px" viewBox="0 0 300.038 253.905" enable-background="new 0 0 300.038 253.905"
	 xml:space="preserve">
<g id="Capa_2">
</g>
<g id="Capa_1">
	<g>
		<path fill="#B6A999" d="M278.563,191.716c13.545-19.702,21.475-43.565,21.475-69.281C300.038,54.816,245.222,0,177.602,0
			S55.166,54.816,55.166,122.436c0,25.716,7.93,49.579,21.475,69.281H278.563z"/>
		<path fill="none" d="M278.563,191.716c13.545-19.702,21.475-43.565,21.475-69.281C300.038,54.816,245.222,0,177.602,0
			S55.166,54.816,55.166,122.436c0,25.716,7.93,49.579,21.475,69.281H278.563z"/>
		<polygon fill="#544842" points="0,253.905 0,253.905 278.563,191.716 77.645,191.716 		"/>
		<path opacity="0.1" fill="#010202" d="M112.539,191.849c-5.325,1.243-9.865,2.659-13.568,4.228
			c-2.79,0.282-5.554,0.917-7.334,1.717c-2.393,1.077-2.428,2.165-0.314,2.701c-1.776,1.583-2.317,3.079-1.609,4.452
			c0.572,1.113,1.979,2.152,4.188,3.094l-3.045,1.081l-1.375,0.489l0.423,0.397c0.011,0.01,0.064,0.059,0.171,0.137l-27.612,10.376
			l-1.036,0.394l0.086,0.346c0.021,0.084,0.577,2.065,6.38,2.553c2.298,0.192,5.092,0.128,8.305-0.188l1.022-0.1l0.923-0.248
			c4.037-1.081,14.004-4.001,18.223-5.232c3.35,0.237,10.829,0.758,15.727,1.077c-1.862,1.75-6.204,4.552-6.253,4.583l-0.634,0.408
			l0.666,0.222c0.104,0.035,2.578,0.848,6.13,1.128c3.843,0.3,7.151-0.155,9.251-0.588l1.008-0.208l0.616-0.282
			c1.487-0.681,13.269-6.081,20.795-9.519c1.76-0.247,3.456-0.534,5.06-0.858l0.886-0.178l0.585-0.243
			c0.092-0.038,0.2-0.084,0.326-0.138c3.009-0.442,6.943-1.079,11.201-1.926l0.608,0.28l1.247,0.573l3.023-0.727
			c1.046-0.251,2.25-0.559,3.597-0.92c0.572-0.035,1.186-0.105,1.805-0.208l0.935-0.156l0.674-0.237
			c0.086-0.03,0.17-0.061,0.253-0.093c5.333-1.731,9.835-3.611,13.379-5.594c2.876-1.611,5.133-3.303,6.703-5.031
			c1.81-2.006,2.323-3.641,2.443-4.62c3.607-0.252,7.26-0.574,10.902-0.961c4.22-0.445,8.439-0.977,12.57-1.585
			c0.391,0.073,0.852,0.145,1.378,0.203c1.298,0.144,2.698,0.176,4.164,0.095c1.681-0.093,3.381-0.331,4.971-0.693H112.539z
			 M124.998,197.158c-0.18-0.203-0.258-0.407-0.236-0.612c0.046-0.414,0.498-0.825,1.381-1.257c2.089-1.02,6.128-1.922,9.151-2.496
			c1.647-0.312,3.279-0.583,4.801-0.811L124.998,197.158z"/>
		<g>
			<g>
				<path fill="#39302C" d="M177.602,0c-8.266,0-16.34,0.821-24.147,2.383v189.466h72.997V10.135C211.487,3.616,194.967,0,177.602,0
					z"/>
				<path fill="#B6A999" d="M177.602,0c-8.974,0-17.722,0.966-26.147,2.798v189.051h72.998V9.286C210.021,3.304,194.198,0,177.602,0
					z"/>
				<g>
					<path fill="#39302C" d="M202.529,2.541h-46.981l-0.235,80.173V187.73h36.021l3.972,2.026h26.474V8.216
						C215.591,5.82,209.158,3.912,202.529,2.541z"/>
				</g>
			</g>
			<path fill="#E3E2D5" d="M208.26,3.87l-0.006,0.001l-47.687,3.446l0.497,191.765h1.883L212.129,4.938l0.001,0
				C210.848,4.562,209.558,4.205,208.26,3.87z"/>
			<path fill="#B6A999" d="M211.364,4.716L162.568,8.78l0.378,190.301l57.805-11.345V7.822
				C217.679,6.665,214.548,5.627,211.364,4.716z"/>
			<path fill="#39302C" d="M172.67,121.927c0,0.667-0.54,1.207-1.207,1.207h-2.407c-0.667,0-1.207-0.54-1.207-1.207v-6.968
				c0-0.666,0.54-1.207,1.207-1.207h2.407c0.667,0,1.207,0.54,1.207,1.207V121.927z"/>
			<g>
				<g>
					<path fill="#39302C" d="M188.328,26.585v-4.86c0-0.698,0.489-1.336,1.092-1.426l12.944-2.627
						c-0.005-0.673-0.491-1.146-1.092-1.058l-15.478,2.269c-0.603,0.088-1.092,0.727-1.092,1.427v5.601
						c0,0.7,0.489,1.188,1.092,1.091l0.644-0.104C186.437,26.896,188.328,26.588,188.328,26.585z"/>
				</g>
				<path fill="#C5B7AA" d="M201.272,16.615c0.603-0.088,1.092,0.389,1.092,1.067v5.423c0,0.678-0.489,1.306-1.092,1.403
					l-15.478,2.495c-0.603,0.097-1.092-0.391-1.092-1.091v-5.601c0-0.7,0.489-1.339,1.092-1.427L201.272,16.615 M201.272,15.783
					l-15.478,2.246c-1.009,0.147-1.83,1.22-1.83,2.393v5.608c0,1.173,0.821,1.994,1.83,1.83l15.478-2.519
					c1.01-0.164,1.831-1.22,1.831-2.352v-5.416C203.103,16.439,202.282,15.636,201.272,15.783L201.272,15.783z"/>
				<path fill="#39302C" d="M211.607,35.265c0-1.269-0.27-2.623-1.585-3.481l0.003,0l-0.946-0.663l-1.429,0.398
					c-4.178,0.732-19.554,3.428-23.165,4.061c-2.791,0.489-4.104,3.583-4.181,5.429l-0.004,1.022l31.306-5.801v-0.966
					L211.607,35.265z"/>
				<path fill="#C5B7AA" d="M206.055,30.345c-1.814,0.315-21.238,3.685-23.052,4c-4.026,0.699-3.967,4.318-3.967,6.304
					c0.287-0.053,30.698-5.633,30.985-5.686C210.022,33.087,210.081,29.646,206.055,30.345z"/>
				<path fill="#39302C" d="M211.607,44.791c0-1.269-0.27-2.618-1.585-3.453h0.003l-0.946-0.646l-1.429,0.423
					c-4.178,0.806-19.554,3.772-23.165,4.468c-2.791,0.538-4.104,3.655-4.181,5.502l-0.004,1.023l31.306-6.351v-0.966
					L211.607,44.791z"/>
				<path fill="#C5B7AA" d="M206.055,39.766c-1.814,0.347-21.238,4.059-23.052,4.405c-4.026,0.769-3.967,4.387-3.967,6.373
					c0.287-0.058,30.698-6.172,30.985-6.23C210.022,42.438,210.081,38.997,206.055,39.766z"/>
				<path fill="#39302C" d="M211.607,54.493c0-1.268-0.27-2.613-1.585-3.425l0.003,0l-0.946-0.629l-1.429,0.449
					c-4.178,0.881-19.554,4.121-23.165,4.883c-2.791,0.588-4.104,3.728-4.181,5.577l-0.004,1.023l31.306-6.911v-0.966
					L211.607,54.493z"/>
				<path fill="#C5B7AA" d="M206.055,49.361c-1.814,0.379-21.238,4.439-23.052,4.818c-4.026,0.841-3.967,4.458-3.967,6.444
					c0.287-0.063,30.698-6.721,30.985-6.785C210.022,51.962,210.081,48.52,206.055,49.361z"/>
			</g>
			<g opacity="0.7">
				<path fill="#39302C" d="M78.532,50.188v141.661h72.997V2.737C121.719,9.147,95.94,26.41,78.532,50.188z"/>
				<path fill="#B6A999" d="M76.747,53.001v138.848h72.997V3.184C119.624,10.193,93.773,28.318,76.747,53.001z"/>
				<path fill="#39302C" d="M146.025,4.113c-26.014,6.925-48.623,22.198-64.781,42.778l-0.797,140.846l1.03,1.566h65.595V5.678
					l-1.03-1.566L146.025,4.113z"/>
				<path fill="#B6A999" d="M80.448,47.917v139.819h65.595V4.112h-0.016C119.582,11.151,96.656,26.818,80.448,47.917z"/>
				<g>
					<path fill="#39302C" d="M121.882,15.162h-3.338c-0.712,0.393-1.42,0.792-2.123,1.198h6.667
						C123.084,15.698,122.546,15.162,121.882,15.162z"/>
				</g>
				<path fill="#C5B7AA" d="M121.882,14.345h-1.833c-0.504,0.269-1.005,0.541-1.505,0.817h3.338c0.667,0,1.207,0.54,1.207,1.207
					v5.335c0,0.667-0.54,1.207-1.207,1.207h-15.603c-0.376,0.27-0.751,0.542-1.124,0.817h16.728c1.116,0,2.024-0.908,2.024-2.024
					v-5.335C123.906,15.253,122.998,14.345,121.882,14.345z"/>
				<path fill="#39302C" d="M90.372,109.72c0,0.667-0.54,1.207-1.207,1.207h-2.407c-0.667,0-1.207-0.54-1.207-1.207v-6.968
					c0-0.666,0.54-1.207,1.207-1.207h2.407c0.667,0,1.207,0.54,1.207,1.207V109.72z"/>
				<path fill="#39302C" d="M132.834,34.751c0-1.243-0.292-2.617-1.717-3.684l0.003,0.001l-1.024-0.809l-1.547,0.144
					c-4.524,0-21.173,0-25.084,0c-3.022,0-4.444,2.652-4.527,4.349l-0.004,0.946h33.898v-0.946H132.834z"/>
				<path fill="#C5B7AA" d="M127.17,29.456c-2.005,0-23.478,0-25.483,0c-4.45,0-4.385,3.423-4.385,5.295c0.318,0,33.935,0,34.253,0
					C131.555,32.878,131.62,29.456,127.17,29.456z"/>
				<path fill="#39302C" d="M132.834,44.082c0-1.243-0.292-2.616-1.717-3.684l0.003,0.001l-1.024-0.809l-1.547,0.144
					c-4.524,0-21.173,0-25.084,0c-3.022,0-4.444,2.652-4.527,4.348l-0.004,0.946h33.898v-0.946H132.834z"/>
				<path fill="#C5B7AA" d="M127.17,38.787c-2.005,0-23.478,0-25.483,0c-4.45,0-4.385,3.422-4.385,5.295c0.318,0,33.935,0,34.253,0
					C131.555,42.209,131.62,38.787,127.17,38.787z"/>
				<path fill="#39302C" d="M132.834,53.585c0-1.242-0.292-2.616-1.717-3.684l0.003,0.001l-1.024-0.809l-1.547,0.144
					c-4.524,0-21.173,0-25.084,0c-3.022,0-4.444,2.652-4.527,4.348l-0.004,0.946h33.898v-0.946H132.834z"/>
				<path fill="#C5B7AA" d="M127.17,48.29c-2.005,0-23.478,0-25.483,0c-4.45,0-4.385,3.422-4.385,5.295c0.318,0,33.935,0,34.253,0
					C131.555,51.713,131.62,48.29,127.17,48.29z"/>
			</g>
			<g opacity="0.9">
				<g>
					<path fill="#39302C" d="M299.449,110.509v23.695c0.385-3.931,0.584-7.916,0.587-11.947c0-0.252-0.003-0.503-0.005-0.754
						c-0.002-0.282-0.005-0.565-0.008-0.847c-0.694-48.718-29.842-90.551-71.573-109.629v0.133
						C267.215,28.882,295.121,66.238,299.449,110.509z"/>
					<polygon fill="#39302C" points="278.577,191.695 278.577,191.695 278.586,191.682 					"/>
				</g>
				<path fill="#39302C" d="M296.778,150.614V94.259c-8.508-36.123-33.014-66.072-65.631-81.959l-0.993,175.577l1.03,1.566h48.901
					C287.753,177.739,293.473,164.643,296.778,150.614z"/>
				<path fill="#B6A999" d="M295.748,154.667v-64.47c-9.436-34.662-33.719-63.204-65.595-78.375l-0.428,176.056h51.37
					C287.531,177.722,292.512,166.554,295.748,154.667z"/>
				<path fill="#39302C" d="M240.077,109.862c0,0.667-0.54,1.207-1.207,1.207h-2.408c-0.667,0-1.207-0.54-1.207-1.207v-6.968
					c0-0.666,0.54-1.207,1.207-1.207h2.408c0.667,0,1.207,0.54,1.207,1.207V109.862z"/>
				<path fill="#39302C" d="M258.511,30.543c-2.367,0-4.302,0-5.34,0c-3.022,0-4.444,2.652-4.527,4.349l-0.004,0.946h15.515
					C262.33,34.015,260.447,32.25,258.511,30.543z"/>
				<path fill="#C5B7AA" d="M257.424,29.597c-3.065,0-5.429,0-6.032,0c-4.45,0-4.385,3.423-4.385,5.295c0.153,0,8.029,0,16.19,0
					C261.33,33.066,259.404,31.301,257.424,29.597z"/>
				<path fill="#39302C" d="M268.012,39.875c-5.996,0-12.569,0-14.841,0c-3.022,0-4.444,2.652-4.527,4.348l-0.004,0.946h23.941
					C271.107,43.361,269.584,41.595,268.012,39.875z"/>
				<path fill="#C5B7AA" d="M267.14,38.928c-6.711,0-14.572,0-15.747,0c-4.45,0-4.385,3.422-4.385,5.295c0.208,0,14.728,0,24.795,0
					C270.298,42.414,268.744,40.647,267.14,38.928z"/>
				<path fill="#39302C" d="M275.86,49.378c-6.338,0-19.299,0-22.689,0c-3.022,0-4.444,2.652-4.527,4.348l-0.004,0.946h30.949
					C278.392,52.874,277.149,51.108,275.86,49.378z"/>
				<path fill="#C5B7AA" d="M275.147,48.432c-5.615,0-22.015,0-23.755,0c-4.45,0-4.385,3.422-4.385,5.295c0.269,0,24.301,0,31.946,0
					C277.731,51.926,276.461,50.161,275.147,48.432z"/>
			</g>
		</g>
		<g>
			<path opacity="0.05" fill="#010202" d="M123.484,215.705c-0.766-6.254-17.704-11.253-38.487-11.253
				c-21.271,0-38.515,5.236-38.515,11.696c0,3.145,4.088,5.999,10.737,8.101c-1.194,0.66-1.864,1.401-1.864,2.183
				c0,2.784,8.486,5.041,18.955,5.041c8.948,0,16.446-1.649,18.436-3.866c6.651-0.413,12.677-1.346,17.598-2.653
				c1.004,0.044,2.034,0.067,3.085,0.067c10.469,0,18.955-2.257,18.955-5.041C132.384,218.177,128.829,216.596,123.484,215.705z"/>
			<ellipse opacity="0.05" fill="#010202" cx="111.169" cy="219.605" rx="13.388" ry="2.586"/>
			<ellipse opacity="0.05" fill="#010202" cx="73.897" cy="221.887" rx="13.235" ry="2.434"/>
			<path fill="#39302C" d="M147.122,72.179c-0.128-7.545-1.773-14.844-4.887-21.696c-3.004-6.61-7.248-12.535-12.612-17.611
				c-5.353-5.065-11.563-9.038-18.458-11.809c-7.124-2.863-14.677-4.315-22.45-4.315c-0.348,0-0.702,0.003-1.052,0.009
				c-7.884,0.134-15.509,1.752-22.663,4.808C58.085,24.519,51.9,28.686,46.615,33.95c-5.291,5.271-9.413,11.376-12.252,18.147
				c-2.942,7.019-4.368,14.445-4.238,22.073c0.107,6.257,1.267,12.386,3.448,18.218c1.865,4.987,4.446,9.678,7.683,13.971
				c-0.179,0.356-0.32,0.729-0.423,1.115c-0.366,1.38-0.238,2.898,0.379,4.513l0.07,0.184l0.097,0.171
				c1.4,2.479,3.786,3.9,6.545,3.9c0.812,0,1.627-0.126,2.401-0.364c1.347,1.123,2.748,2.189,4.196,3.191
				c-3.444,2.682-7.413,6.384-10.642,11.068c-4.338,6.293-6.465,13.029-6.334,20.046c-1.897,1.443-3.01,3.73-2.88,6.151
				c0.174,3.256,2.516,5.918,5.614,6.672c1.86,4.344,4.671,8.163,8.372,11.371c3.016,2.615,6.651,4.846,10.827,6.647l-0.378,3.462
				l-0.171,1.564l1.296,0.892c0.034,0.023,0.193,0.132,0.472,0.302l-2.441,32.594l-0.092,1.226l0.881,0.858
				c0.215,0.209,5.344,5.126,12.125,5.126c2.686,0,5.253-0.763,7.63-2.269l0.755-0.479l0.308-0.84
				c1.347-3.672,4.017-13.434,5.134-17.574c3.764-0.15,12.167-0.49,17.628-0.761c2.474,5.027,5.146,13.396,5.176,13.489l0.387,1.219
				l1.197,0.449c0.186,0.07,4.616,1.714,8.783,1.714c4.511,0,6.598-1.926,7.555-3.541l0.459-0.775l-0.112-0.894
				c-0.271-2.159-2.459-19.297-3.857-30.236c1.048-1.076,1.934-2.246,2.642-3.492l0.391-0.688l-0.053-0.79
				c-0.008-0.124-0.021-0.273-0.037-0.447c1.726-1.906,3.827-4.563,5.697-7.87l1.264,0.6l2.596,1.232l1.002-2.693
				c0.346-0.932,0.695-2.057,1.043-3.362c0.444-0.236,0.838-0.577,1.155-1.009l0.477-0.652l0.03-0.807
				c0.004-0.103,0.004-0.207,0.001-0.314c0.592-5.999,0.031-12.197-1.667-18.427c-1.378-5.057-3.51-10.157-6.334-15.159
				c-3.266-5.783-6.76-10.208-9.007-12.798c2.574-1.686,5.014-3.573,7.281-5.632c2.625-2.384,5.026-5.006,7.156-7.811
				c0.519,0.078,1.095,0.132,1.696,0.132c1.483,0,2.781-0.326,3.86-0.97c1.464-0.873,2.453-2.293,2.861-4.106l0.005-0.021
				l0.004-0.021c0.467-2.247-0.164-3.778-0.776-4.666c-0.323-0.469-0.718-0.881-1.178-1.231c1.43-3.181,2.554-6.487,3.351-9.863
				C146.711,81.281,147.199,76.737,147.122,72.179z M65.192,128.73l-1.862,17.042c-0.617-0.456-1.146-0.942-1.583-1.456
				c-0.885-1.039-1.4-2.183-1.573-3.496c-0.41-3.103,1.176-6.458,2.578-8.727C63.516,130.858,64.356,129.725,65.192,128.73z"/>
			<path fill="#544842" d="M63.984,178.616l-3.101,41.419c0,0,8.075,7.862,16.508,2.52c1.67-4.555,5.564-19.223,5.564-19.223
				s14.43-0.559,21.215-0.921c2.817,4.953,6.14,15.407,6.14,15.407s10.416,3.909,13.146-0.703
				c-0.371-2.957-4.392-34.426-4.392-34.426L63.984,178.616z"/>
			<path fill="#FBCFA5" d="M69.694,116.218l-5.464,63.022c0,0,27.988,10.412,54.834,3.448c0.11-1.92-5.193-61.045-5.193-61.045
				L69.694,116.218z"/>
			<path fill="#E3E2D5" d="M69.694,116.218l-5.464,63.022c0,0,27.988,10.412,54.834,3.448c0.11-1.92-5.193-61.045-5.193-61.045
				L69.694,116.218z"/>
			<g>
				<path fill="#544842" d="M129.595,163.253c-4.449-2.801,0.117,6.555,0.117,6.555l3.533,1.677
					C133.245,171.485,134.044,166.053,129.595,163.253z"/>
				<path fill="#E3E2D5" d="M117.207,119.198c35.273,39.964,1.384,64.479,1.384,64.479l-7.596-30.552c0,0,7.534-7.053,9.336-11.965
					c-1.918-5.86-6.636-12.602-6.636-12.602l-1.469-8.177C112.225,120.382,115.653,118.02,117.207,119.198z"/>
				<path fill="#544842" d="M134.643,166.537c0,0,0.663,0.595,1.144-0.061c0.047-1.264-0.978-3.273-0.978-3.273l-0.783,2.507
					L134.643,166.537z"/>
				<path fill="#39302C" d="M116.902,146.733l-1.028,1.144c0,0,17.722,18.372,17.372,23.608c1.153-3.1,2.046-7.849,2.046-7.849
					l-11.677-16.804L116.902,146.733z"/>
				<path fill="#544842" d="M117.207,119.198c0,0,21.296,20.876,18.568,47.049c-0.643-5.584-19.412-19.945-19.412-19.945
					s3.258-4.474,3.149-5.443c-1.08-3.038-5.503-10.713-5.503-10.713l-0.193-7.901L117.207,119.198z"/>
			</g>
			<path fill="#FFFFFF" d="M85.935,123.545c0,0,8.091,24.807,10.535,27.099c-0.043,18.074-0.101,35.597-0.101,35.597l-11.098-1.48
				l-9.823-62.877l4.043,0.087L85.935,123.545z"/>
			<path fill="#FFFFFF" d="M105.772,128.239c-0.522,3.461-9.18,22.803-9.18,22.803l-0.899,34.172c0,0,16.389,0.638,23.005-2.138
				C113.807,169.001,106.293,124.779,105.772,128.239z"/>
			<polygon opacity="0.1" fill="#727B76" points="96.296,185.295 97.395,185.32 94.985,154.458 			"/>
			<polygon opacity="0.1" fill="#412413" points="119.793,188.356 102.959,194.098 102.415,187.542 96.723,187.943 96.216,189.326 
				89.358,187.852 88.757,185.657 96.369,186.241 96.296,185.295 101.808,185.25 104.746,191.291 119.333,185.185 			"/>
			<path fill="#544842" d="M100.502,150.53l1.709,41.403c0,0,15.055-0.846,20.354-10.174c-0.316-4.697-8.308-57.103-8.308-57.103
				l-8.614,3.086L100.502,150.53z"/>
			<polygon opacity="0.25" fill="#FFFFFF" points="105.644,127.741 100.375,150.032 108.255,144.462 106.558,142.937 
				110.984,138.864 			"/>
			<path fill="#544842" d="M69.321,115.193l-7.603,69.58c0,0,10.657,7.337,27.45,3.84c-0.455-4.026-8.81-65.518-8.81-65.518
				L69.321,115.193z"/>
			<path opacity="0.1" fill="#412413" d="M121.646,174.95c-1.136,2.892-5.972,3.267-5.972,3.267s-6.52,3.351-13.873,4.084
				c-7.608,0.846-11.006,0.553-11.006,0.553l-1.743,1.028c0,0-11.603,3.486-27.206-0.266c0.657-1.296,0.528-4.423,0.528-4.423
				S122.782,172.058,121.646,174.95z"/>
			<path fill="#39302C" d="M119.711,164.183c7.134,3.459,3.771,13.816-4.286,12.648c-6.556,3.905-24.991,5.094-24.991,5.094
				l-0.51-1.416C89.925,180.509,118.116,163.524,119.711,164.183z"/>
			<path fill="#E3E2D5" d="M66.733,115.487c-19.563,8.373-46.455,45.813-0.904,63.509c19.763,6.166,49.379-2.812,50.001-4.049
				c0.622-1.237,2.797-12.016,2.797-12.016s-11.804-4.175-4.739-11.441c-4.551-1.486-8.756-7.223-8.756-7.223
				s-2.762-0.196-5.032,0.221c-3.358-9.175-11.819-2.302-10.758,1.435c0.123,1.245-18.197,5.913-25.919,4.137
				c-15.655-10.753-0.223-28.87,7.946-28.285c7.97-1.01,0.76-8.296,0.76-8.296S69.578,113.971,66.733,115.487z"/>
			<circle fill="#E3E2D5" cx="115.488" cy="157.816" r="6.641"/>
			<circle fill="#E3E2D5" cx="109.468" cy="148.162" r="6.641"/>
			<circle fill="#E3E2D5" cx="115.858" cy="169.032" r="6.297"/>
			<path fill="#39302C" d="M99.873,142.81c0,0-2.051-3.281-5.491-3.329c-2.676-0.037-6.881,2.348-7.173,6.759
				c-0.395,0.746,2.132-0.318,2.132-0.318L99.873,142.81z"/>
			<circle fill="#E3E2D5" cx="94.758" cy="145.394" r="5.725"/>
			<path fill="none" stroke="#FFFFFF" stroke-miterlimit="10" d="M88.26,146.086"/>
			<polygon opacity="0.25" fill="#FFFFFF" points="76.613,119.226 73.435,139.21 80.113,141.684 78.053,142.856 77.618,144.648 
				84.037,148.905 80.478,122.027 			"/>
			<path fill="#544842" d="M88.26,146.086c-5.943,17.516,2.932,37.68,2.932,37.68s-41.833,2.466-49.739-25.317
				c-7.906-27.783,23.289-43.68,26.983-44.325c3.694-0.645,4.315,7.795,1.102,7.738c-3.214-0.058-23.644,20.985-2.829,28.587
				C70.799,149.771,83.833,149.074,88.26,146.086z"/>
			
				<ellipse transform="matrix(0.9986 -0.0534 0.0534 0.9986 -8.2657 2.4701)" fill="#544842" cx="42.097" cy="155.937" rx="4.809" ry="4.651"/>
			<path fill="#412413" d="M112.475,117.837"/>
			<path opacity="0.1" fill="#39302C" d="M68.319,123.486l-0.016,2.924l6.492,2.405l-0.08,1.724l6.969,1.691l-0.245-1.363
				l5.727,3.503h1.991c5.92,4.849,11.436-2.291,11.436-2.291l1.605-2.15l2.924,0.016l1.02-0.226l6.704-3.282l2.452-2.993
				l0.197-2.136l2.165-1.32l-13.035-12.201l-41.31,2.553l-3.829,8.804l-1.173,0.579l7.775,3.884l2.689-1.176L68.319,123.486z"/>
			<path fill="#E3E2D5" d="M137.9,96.802l-3.386,6.615c0,0,6.122,2.205,7.181-2.505C142.564,96.725,137.9,96.802,137.9,96.802z"/>
			
				<ellipse transform="matrix(0.9999 -0.017 0.017 0.9999 -1.2325 1.5189)" fill="#B6A999" cx="88.624" cy="73.175" rx="55.873" ry="53.792"/>
			
				<ellipse transform="matrix(0.9999 -0.017 0.017 0.9999 -0.7329 1.5221)" opacity="0.1" fill="#FFFFFF" cx="89.066" cy="43.821" rx="36.86" ry="22.283"/>
			<path opacity="0.1" fill="#39302C" d="M38.63,51.25c0,0-1.658,38.133,15.159,44.055c1.184,15.395,15.906,20.913,15.906,20.913
				s45.676,7.746,50.887-3.386c8.764-4.263,21.08-22.027,21.08-22.027s-14.448,37.186-54.003,36.002
				c-30.909-1.831-47.082-20.666-52.108-37.66C29.524,68.767,38.63,51.25,38.63,51.25z"/>
			<path opacity="0.2" fill="#3A332C" d="M96.494,99.383c-8.774-7.359-19.104-7.338-19.104-7.338l-1.518,0.121
				c0,0-5.942-0.848-0.549-4.362c1.879-0.972,3.752,2.692,4.638-1.124c-0.856-5.593-10.555-5.903-11.282,1.618
				c-6.954-0.927-5.135,5.409-5.135,5.409s-6.688,3.209-7.769,6.86c1.676,3.698,10.693,8.582,10.693,8.582s-1.013,1.918,0.152,3.324
				c0.848-0.219,1.778-0.433,2.733-0.637c11.541,3.677,20.748-4.515,21.896-4.059c0.871,0.936,0.081,4.751,0.081,4.751l7.792-5.645
				l4.246-1.783l8.211,2.236c0,0,3.533-4.622,9.544,2.404c-1.674-3.393,1.385-2.399,1.385-2.399s13.247-14.396,13.891-15.78
				c-0.742-2.3-10.646-4.912-11.892-6.576c1.011-3.821,6.79-1.702,6.79-1.702s-1.515-2.521-2.575-3.358
				c-1.06-0.837-5.018,2.687-5.018,2.687s-4.21-8.669-7.71-2.147c-0.531,2.29,3.165,4.521,3.165,4.521s-12.623,5.141-15.755,14.773
				c-0.733,3.454-2.29-4.312-2.29-4.312l8.085-33.116l2.693-5.187c0,0,0.213,4.738-0.033,8.969
				c-0.311,5.351-0.862,10.635,1.961,12.749c-0.483-7.499,0.851-12.903,3.323-20.904c2.606-6.244,6.612-3.614,6.612-3.614
				s-3.864-4.046-5.12-5.26c-4.427-3.251-14.494-1.012-14.494-1.012s-3.886,2.095,0.09,6.606
				c1.231,22.319-3.687,36.561-3.855,38.265c-6.844-13.927-6.399-42.708-6.399-42.708s-8.589-4.995-14.026,2.33
				c-1.006,2.298,3.98,4.943,3.98,4.943s-0.721,5.545,0.698,20.354c-4.245,1.878-2.276,5.229-2.276,5.229s-0.818,0.6,3.05-3.165
				c3.868-3.765,3.222-18.746,3.222-18.746S99.709,81.651,96.494,99.383z"/>
			<path fill="#39302C" d="M136.551,91.771c0,0-2.59-3.533-7.568-4.657c-0.273-0.066-0.53-0.149-0.778-0.24
				c-0.176-0.077-0.352-0.153-0.529-0.222c-0.067-0.022-0.131-0.047-0.195-0.071c-0.159-0.069-0.317-0.139-0.475-0.209
				c-2.466-1.258-2.045-4.049-0.634-4.788c2.182-0.948,2.886,0.907,1.856,1.293c-1.219,0.017-1.488,1.195-0.509,1.824
				c1.192,0.674,3.338,0.145,3.73-1.209c1.379-3.45-3.039-7.208-6.529-3.324c-0.274-1.045-0.858-1.83-1.595-2.366
				c0.324-0.639,0.497-1.366,0.461-2.176c-0.191-5.057-6.095-5.367-6.72-2.133c-0.434,2.055,1.394,2.757,2.417,2.093
				c0.356,0.073,0.338,1.117-0.382,1.558c-0.143,0.046-0.281,0.1-0.417,0.161c-0.345,0.072-0.787,0.033-1.343-0.191
				c-1.297-0.419-1.966-2.291-1.758-4.139c-0.013-5.574,1.338-10.373,2.365-14.88c0.946-4.301,2.848-6.164,4.857-5.029
				c1.047,0.751,0.332,2.03-0.464,1.939c-0.186-0.745-2.554-0.596-2.332,1.368c0.177,1.855,2.359,1.936,2.881,1.852
				c6.034-0.969,5.046-8.097,1.188-9.211c-2.325-1.151-13.453-2.711-16.425-2.629c-5.031,0.145-4.455,6.523-2.169,7.68
				c-0.105,7.854,0.823,26.179-4.956,39.088c-3.816-15.249-6.499-30.97-6.137-40.254c3.114-1.982,3.3-6.356-0.405-7.145
				c-4.472-0.834-10.958-0.756-13.871,1.116c-1.436,0.981-3.322,2.598-2.104,6.122c0.568,1.321,1.939,1.862,2.693,1.547
				c1.652-0.358,1.734-2.007-0.043-1.871c-0.562-0.281-0.296-1.075,0.051-1.302c1.032-0.44,2.017-0.117,2.427,3.934
				c1.124,14.52,1.961,11.95,1.171,20.03c-0.761,4.458-4.323,4.589-4.929,3.827c2.171,0.389,2.798-4.294-0.523-4.515
				c-3.322-0.221-3.436,3.392-3.436,3.392s0.607,5.786,7.085,5.267c1.426-0.56,4,0.31,4.972-7.837
				c0.481-4.03,0.664-10.418-0.776-18.861c4.68,8.146,10.389,40.573,9.31,44.089c-7.004-6.913-15.5-8.361-21.975-7.505
				c-3.491-1.07-2.951-4.092-1.761-5.228c0.406-0.555,2.019-0.718,1.869,0.561c-1.273,1.549,0.381,3.09,1.604,3.124
				c2.679,0.209,4.931-2.606,4.17-4.947c-0.878-4.564-8.728-6.285-10.717,0.754c-5.42-2.932-8.473,1.42-8.051,4.462
				c0.044,1.351,1.08,2.561,2.326,3.17c3.125,0.394,4.205-1.777,4.205-1.777s0.002-0.001,0.003-0.001
				c-0.062,0.002-0.124,0.005-0.186,0.006c0.343-1.424-1.38-2.421-2.334-0.942c-0.735-0.459-0.876-1.175-0.021-1.99
				c1.065-0.715,2.372-0.622,3.337,0.305c0.652,0.626,1.081,1.592,1.03,2.558c-1.718,4.702-7.402,2.659-7.414,2.654
				c-4.173,2.136-6.169,4.884-6.169,4.884s2.508,4.753,9.136,7.95c-0.227-0.03-0.454-0.056-0.681-0.074
				c0.333,0.378,0.696,0.741,1.09,1.081c-1.526,0.866-1.191,3.993,1.378,3.812c1.112-0.122,1.764-0.934,1.524-1.674
				c-0.238-0.852-1.566-0.808-1.442,0.31c-0.685,0.004-0.818-1.244,0.162-1.506c0.119-0.03,0.246-0.063,0.378-0.097
				c-0.026,0.048-0.057,0.098-0.081,0.145c0.488,0.25,0.979,0.494,1.479,0.718c1.855,0.379,3.71,0.749,5.591,0.962
				c13.333-0.024,18.307-5.349,18.307-5.349s-0.255,3.692-1.605,6.575c0.731,1.831,9.774,2.758,11.704-0.216
				c-0.393-2.782,0.174-5.886,0.314-6.581c0.023-0.037,0.049-0.076,0.074-0.116c0.544,0.349,6.612,4.113,13.134,2.649
				c0.015,0.163,0.044,0.313,0.079,0.455c0.077-0.008,0.153-0.015,0.23-0.023c0.736-0.362,1.535-0.644,2.314-0.908
				c-0.023,0.019-0.047,0.038-0.07,0.058c0.097-0.041,0.195-0.088,0.293-0.133c0.195-0.066,0.386-0.131,0.576-0.196
				c0.537-0.012,1.151,0.48,0.917,1.266c-0.122,0.371-0.69,0.523-0.7,0.053c0.5-0.25,0.365-0.762-0.112-0.811
				c-1.037-0.065-1.654,1.797-0.183,2.268c2.452,0.534,3.467-2.257,1.732-3.343c0.084-0.028,0.168-0.058,0.252-0.086
				c-0.003-0.022-0.004-0.043-0.008-0.065C132.259,104.033,136.551,91.771,136.551,91.771z M62.638,101.061
				c0,0,14.258-10.16,29.176,3.509C72.984,114.998,62.638,101.061,62.638,101.061z M112.443,55.908
				c0.757,6.562,0.74,10.352,0.121,15.078c-0.315,1.689-0.717,8.093,3.429,9.474c-0.198,1.327,0.338,2.69,2.004,3.56
				c3.484,1.481,4.678-2.614,2.264-2.492c-0.908,0.175-1.341-0.359-1.317-0.922c0.778-0.198,1.53-0.505,2.197-0.913
				c2.985,1.33,1.866,4.981-0.583,5.884c-3.91,0.692-8.767,3.159-14.548,9.832c-0.845,1.243-1.518,2.637-2.199,3.777
				C105.143,86.849,108.266,64.51,112.443,55.908z M105.455,102.938c0,0,14.748-18.751,26.359-8.904
				C121.236,111.252,105.455,102.938,105.455,102.938z"/>
			<g>
				<path fill="none" stroke="#B6A999" stroke-miterlimit="10" stroke-dasharray="5" d="M121.471,110.041
					c0.026-0.055,0.046-0.11,0.062-0.165c0.033-0.113,0.092-0.404-0.04-0.703C121.557,109.447,121.55,109.742,121.471,110.041z"/>
				<path fill="none" stroke="#B6A999" stroke-miterlimit="10" stroke-dasharray="5" d="M66.282,112.764
					c-0.339-0.203-0.577-0.566-0.636-1.017c-0.092-0.704,0.309-1.548,1.254-1.8l0.256-0.065l0.13-0.033l0.155-0.039l-0.856-0.114
					l0.196,0.169l-0.934,0.53c-0.432,0.245-0.638,0.883-0.479,1.483C65.444,112.171,65.664,112.634,66.282,112.764z"/>
				<path fill="none" stroke="#B6A999" stroke-miterlimit="10" stroke-dasharray="5" d="M135.688,91.913
					c-0.74-0.846-3.087-3.206-6.871-4.06l-0.006-0.001l-0.006-0.001c-0.273-0.066-0.554-0.153-0.86-0.265l-0.023-0.008l-0.022-0.01
					c-0.196-0.086-0.345-0.149-0.483-0.203c-0.06-0.02-0.118-0.042-0.176-0.064l-0.028-0.01l-0.018-0.007l-0.018-0.008
					c-0.109-0.048-0.218-0.096-0.327-0.144l-0.151-0.066l-0.02-0.009l-0.019-0.01c-1.381-0.705-2.178-1.916-2.185-3.323
					c-0.006-1.213,0.6-2.315,1.544-2.809l0.024-0.013l0.025-0.011c0.503-0.218,0.983-0.329,1.428-0.329c0,0,0,0,0,0
					c1.148,0,1.804,0.732,1.927,1.412c0.126,0.696-0.257,1.36-0.933,1.613l-0.123,0.046l-0.132,0.002
					c-0.23,0.003-0.346,0.076-0.357,0.115c-0.012,0.041,0.031,0.172,0.229,0.305c0.22,0.119,0.516,0.184,0.837,0.184
					c0.736,0,1.601-0.357,1.774-0.955l0.01-0.036l0.014-0.035c0.355-0.887,0.245-1.858-0.301-2.664
					c-0.538-0.795-1.399-1.269-2.302-1.269c-0.92,0-1.841,0.483-2.661,1.396l-0.939,1.045l-0.356-1.359
					c-0.213-0.814-0.654-1.469-1.309-1.947l-0.521-0.379l0.291-0.574c0.28-0.552,0.408-1.158,0.38-1.801
					c-0.043-1.135-0.417-2.065-1.083-2.695c-0.554-0.525-1.306-0.825-2.063-0.825c-0.824,0-1.862,0.392-2.076,1.498l-0.001,0.006
					l-0.001,0.006c-0.101,0.478-0.046,0.863,0.158,1.115c0.156,0.192,0.408,0.307,0.674,0.307c0.16,0,0.314-0.043,0.434-0.12
					l0.26-0.168l0.303,0.062c0.42,0.086,0.722,0.426,0.808,0.912c0.115,0.652-0.173,1.56-0.945,2.033l-0.077,0.047l-0.086,0.028
					c-0.113,0.037-0.227,0.081-0.341,0.131l-0.075,0.034l-0.08,0.017c-0.155,0.032-0.318,0.048-0.485,0.048
					c-0.394,0-0.821-0.091-1.271-0.27c-1.34-0.452-2.535-2.267-2.254-4.891c-0.005-4.858,0.982-9.042,1.936-13.087
					c0.153-0.647,0.303-1.286,0.448-1.92c0.831-3.775,2.454-5.944,4.451-5.944c0.508,0,1.018,0.143,1.515,0.424l0.036,0.02
					l0.033,0.024c0.714,0.512,1.003,1.313,0.753,2.09c-0.232,0.721-0.88,1.225-1.577,1.225c-0.055,0-0.111-0.003-0.166-0.009
					l-0.521-0.059l-0.086-0.342c-0.029-0.005-0.066-0.008-0.109-0.008c-0.181,0-0.452,0.066-0.62,0.254
					c-0.139,0.156-0.193,0.387-0.159,0.687l0.001,0.006l0.001,0.006c0.106,1.103,1.404,1.189,1.799,1.189
					c0.101,0,0.175-0.006,0.208-0.012c3.135-0.504,3.604-2.69,3.66-3.606c0.114-1.869-1.011-3.683-2.561-4.131l-0.065-0.019
					l-0.061-0.03c-2.105-1.042-12.663-2.553-15.847-2.553c-0.079,0-0.152,0.001-0.222,0.003c-2.078,0.06-2.792,1.314-3.025,2.355
					c-0.373,1.669,0.326,3.464,1.176,3.894l0.421,0.213l-0.006,0.472c-0.014,1.015-0.01,2.187-0.005,3.546
					c0.029,9.149,0.078,24.461-5.017,35.842l-0.894,1.996l-0.531-2.122c-4.192-16.749-6.494-31.877-6.16-40.468l0.015-0.396
					l0.334-0.213c1.398-0.89,2.205-2.451,1.962-3.798c-0.183-1.015-0.932-1.713-2.11-1.967c-1.708-0.318-3.696-0.493-5.6-0.493
					c-3.409,0-6.216,0.546-7.705,1.498c-1.414,0.967-2.831,2.249-1.816,5.216c0.333,0.749,1.024,1.152,1.512,1.152
					c0.099,0,0.157-0.018,0.183-0.029l0.064-0.027l0.068-0.015c0.377-0.082,0.57-0.242,0.639-0.338
					c-0.056-0.021-0.157-0.045-0.321-0.045c-0.046,0-0.093,0.002-0.143,0.006l-0.209,0.016l-0.187-0.094
					c-0.442-0.221-0.712-0.633-0.741-1.131c-0.033-0.574,0.261-1.183,0.716-1.48l0.056-0.037l0.062-0.026
					c0.331-0.141,0.633-0.21,0.924-0.21c1.835,0,2.328,2.546,2.552,4.764l0.001,0.009l0.001,0.009
					c0.436,5.638,0.835,8.739,1.1,10.791c0.43,3.344,0.56,4.353,0.07,9.37l-0.003,0.027l-0.005,0.027
					c-0.409,2.395-1.992,4.811-4.608,4.811c-0.731,0-1.336-0.233-1.659-0.641l-1.246-1.568l1.972,0.353
					c0.041,0.007,0.081,0.011,0.119,0.011c0.461,0,0.769-0.652,0.789-1.257c0.009-0.277-0.025-1.664-1.614-1.77
					c-0.08-0.005-0.16-0.008-0.237-0.008c-2.114,0-2.361,2.17-2.389,2.617c0.074,0.53,0.795,4.571,5.524,4.571
					c0.207,0,0.422-0.008,0.64-0.023c0.238-0.082,0.484-0.135,0.722-0.186c0.675-0.144,1.312-0.281,1.921-1.07
					c0.81-1.049,1.395-3.042,1.739-5.924c0.452-3.792,0.686-10.104-0.77-18.644l-0.714-4.187l2.116,3.683
					c3.084,5.367,6.062,19.736,6.901,24.012c1.657,8.444,3.139,18.515,2.476,20.675l-0.366,1.193l-0.888-0.877
					c-2.651-2.617-5.684-4.586-9.015-5.855c-2.882-1.097-5.922-1.654-9.038-1.654c-1.105,0-2.213,0.072-3.292,0.215l-0.163,0.022
					l-0.158-0.048c-0.974-0.298-2.672-1.073-3.106-2.906c-0.34-1.436,0.253-2.808,1.003-3.552c0.334-0.406,0.936-0.665,1.558-0.665
					c0.517,0,0.966,0.185,1.265,0.521c0.207,0.233,0.438,0.647,0.361,1.3l-0.026,0.221l-0.141,0.172
					c-0.292,0.355-0.359,0.692-0.205,1.03c0.224,0.491,0.836,0.845,1.246,0.857l0.019,0l0.019,0.001
					c0.074,0.006,0.149,0.009,0.223,0.009c1.007,0,1.999-0.537,2.652-1.437c0.579-0.798,0.772-1.744,0.516-2.531l-0.015-0.045
					l-0.009-0.046c-0.37-1.92-2.298-3.368-4.487-3.368c-1.075,0-3.691,0.408-4.759,4.184l-0.257,0.909l-0.831-0.45
					c-1.08-0.584-2.101-0.88-3.034-0.881c-1.44,0-2.357,0.705-2.871,1.296c-0.781,0.897-1.188,2.183-1.036,3.277l0.005,0.04
					l0.001,0.04c0.035,1.068,0.908,1.989,1.792,2.458c0.176,0.018,0.35,0.027,0.516,0.027c1.335,0,2.109-0.586,2.491-1.003
					l0.057-0.237c0.07-0.289-0.032-0.475-0.099-0.56c-0.089-0.112-0.216-0.18-0.34-0.18c-0.178,0-0.364,0.137-0.524,0.385
					l-0.404,0.626l-0.632-0.395c-0.719-0.449-0.917-1.004-0.956-1.391c-0.043-0.421,0.063-1.073,0.814-1.788l0.047-0.045
					l0.054-0.036c0.586-0.393,1.248-0.601,1.916-0.601c0.863,0,1.703,0.351,2.367,0.988c0.838,0.804,1.321,2.009,1.261,3.144
					l-0.006,0.113L70.221,93.5c-0.848,2.319-2.764,3.597-5.395,3.597c-1.155,0-2.161-0.242-2.658-0.386
					c-2.899,1.539-4.651,3.356-5.318,4.132c0.771,1.195,3.364,4.707,8.543,7.205l3.098,1.494l0.485-0.124L68.82,109.7l0.842,0.406
					l-0.992-0.133l-0.236,0.43c0.241,0.118,0.46,0.221,0.67,0.316c1.911,0.39,3.641,0.729,5.399,0.929
					c3.69-0.01,9.047-0.466,13.697-2.569c2.781-1.258,4.005-2.529,4.017-2.542l1.449-1.527l-0.143,2.097
					c-0.01,0.149-0.256,3.53-1.487,6.425c0.589,0.441,2.546,1.045,5.095,1.045c2.337,0,4.19-0.52,4.948-1.372
					c-0.323-2.763,0.191-5.67,0.362-6.52l0.028-0.138l0.076-0.119l0.075-0.117l0.408-0.639l0.638,0.409
					c0.457,0.293,4.611,2.866,9.62,2.866c1.009,0,1.998-0.107,2.939-0.318l0.842-0.189l0.031,0.35
					c0.557-0.232,1.126-0.43,1.672-0.615l0.185-0.063l0.001-0.001l0.038-0.013c0.019-0.006,0.038-0.013,0.058-0.019l0.251-0.085
					c0.088-0.03,0.175-0.06,0.262-0.09l0.112-0.039l0.005,0l0.038-0.013l-0.01-0.006l1.151-0.389l-0.009-0.048l0.597-0.219
					c5.246-1.925,8.871-6.064,10.988-9.197C134.267,95.288,135.32,92.838,135.688,91.913z M92.181,105.231
					c-4.753,2.633-9.404,3.967-13.823,3.967c-5.487,0-9.627-2.081-12.133-3.826c-2.72-1.894-4.135-3.781-4.194-3.861l-0.46-0.619
					l0.628-0.448c0.216-0.154,5.379-3.772,12.822-3.772c6.168,0,11.99,2.469,17.305,7.339l0.775,0.71L92.181,105.231z
					 M102.689,102.542l0.371-3.437c3.381-31.335,7.843-41.757,8.703-43.528l1.134-2.336l0.298,2.58
					c0.742,6.427,0.772,10.278,0.12,15.263l-0.003,0.02l-0.004,0.02c-0.284,1.52-0.619,7.437,2.924,8.618l0.603,0.201l-0.094,0.629
					c-0.122,0.816,0.055,1.956,1.579,2.764c0.4,0.167,0.775,0.251,1.114,0.251c0.944,0,1.336-0.663,1.336-1.018
					c0-0.114,0-0.287-0.405-0.287c-0.008,0-0.015,0-0.023,0c-0.142,0.024-0.282,0.036-0.416,0.036c-0.513,0-0.97-0.183-1.289-0.515
					c-0.31-0.324-0.47-0.761-0.45-1.23l0.024-0.562l0.545-0.139c0.719-0.183,1.407-0.469,1.989-0.825l0.34-0.208l0.364,0.162
					c1.474,0.657,2.291,1.887,2.242,3.375c-0.056,1.7-1.237,3.308-2.871,3.91l-0.063,0.023l-0.066,0.012
					c-4.542,0.804-9.278,4.017-14.079,9.549c-0.505,0.747-0.951,1.558-1.382,2.343c-0.263,0.479-0.512,0.931-0.768,1.36
					L102.689,102.542z M114.394,105.702c-5.257,0-9.129-2.008-9.291-2.094l-0.803-0.423l0.561-0.714
					c0.096-0.123,2.402-3.036,5.937-5.993c4.805-4.019,9.355-6.058,13.526-6.058c2.918,0,5.602,1.022,7.98,3.038l0.495,0.42
					l-0.34,0.553C126.735,103.746,119.476,105.702,114.394,105.702z"/>
			</g>
			<path fill="#E3E2D5" d="M62.638,101.061c0,0,10.345,13.937,29.176,3.509C76.896,90.901,62.638,101.061,62.638,101.061z"/>
			<path fill="#E3E2D5" d="M105.455,102.938c0,0,15.781,8.314,26.359-8.904C120.203,84.188,105.455,102.938,105.455,102.938z"/>
			<path fill="#39302C" d="M115.808,116.717c0,0-3.656,7.108-3.303,11.025c0,0-12.762,1.642-24.931,5.425
				c-1.45-2.27-18.127-6.332-18.127-6.332s0.362-5.437,1.714-8.998c-8.492-2.744,0.587-7.62,4.898-2.967
				c7.046,1.131,11.196,1.127,22.335,0.804c4.369-0.127,11.254-1.811,14.942-2.483C117.419,109.799,121.853,112.823,115.808,116.717
				z"/>
			<circle fill="#E3E2D5" cx="75.036" cy="120.495" r="6.26"/>
			<path fill="#E3E2D5" d="M78.832,116.099c-5.808-6.44-14.668,5.658-5.57,10.548c4.228,3.198,12.538,3.719,14.502,3.826
				c2.055,5.477,13.405,5.517,14.716-2.031c4.687-0.842,8.784-1.874,9.206-2.954c-0.26-5.199,0.797-10.803,0.797-10.803
				S90.675,119.742,78.832,116.099z"/>
			<path opacity="0.1" fill="#39302C" d="M84.078,117.11c0,0-2.438,4.225,3.894,4.058c3.079,1.764,5.681,1.943,7.801,1.84
				c5.73-0.456,6.349-2.738,6.755-3.462c4.186,0.108,3.946-2.946,3.946-2.946l-8.791,1.619l-9.409-0.134L84.078,117.11z"/>
			<path fill="#39302C" d="M103.813,111.993c5.988-1.206,5.127,6.876,0.233,6.547c-7.557,5.974-14.621,1.766-15.052,1.275
				c-6.305,1.836-7.206-5.799-2.109-6.336c1.121-0.758,2.039-1.091,2.76-1.218C97.3,115.652,100.075,110.562,103.813,111.993z"/>
			<path fill="#E3E2D5" d="M103.475,112.583c0.44,0.095,0.77,0.183,1.131,0.234c3.17-0.381,3.449,5.032-1.133,4.783
				c-2.142,3.119-11.191,3.833-14.175,1.362c-5.912,1.175-5.583-4.202-1.898-4.498c0.674-0.326,1.273-0.617,1.852-0.874
				C93.306,115.719,102.02,117.299,103.475,112.583z"/>
			<path fill="#39302C" d="M78.673,119.543c-3.794,0.661-2.832,3.54-2.832,3.54s0.856-0.827,1.212-0.567
				c13.501,8.801,29.421,1.061,29.352,0.728c0.05-0.397-0.456-0.447-0.914-0.956c-0.559-0.621-1.096-1.672-1.096-1.672
				s-0.285,1.337,0.586,2.243c-16.78,6.038-27.069-1.218-27.069-1.218S77.277,120.706,78.673,119.543z"/>
			<path fill="#39302C" d="M103.536,124.133c1.123,0.121-1.537,2.969-1.537,2.969s0.446,1.487,0.23,2.518
				c-1.073,2.821-3.623,3.939-3.623,3.939s3.511-2.255,2.53-4.994c-0.344-1.022-0.363-2.096-0.363-2.096
				S102.413,124.012,103.536,124.133z"/>
			<path fill="none" stroke="#FFFFFF" stroke-miterlimit="10" d="M93.817,84.982"/>
			
				<ellipse transform="matrix(0.8451 -0.5345 0.5345 0.8451 -50.1599 43.7383)" fill="#39302C" cx="50.41" cy="108.442" rx="2.9" ry="6.039"/>
			<path fill="#E3E2D5" d="M48.251,104.961c0,0-6.678,0.59-4.578,6.086c2.561,4.534,8.54,2.143,8.499-0.24
				C51.997,106.137,48.251,104.961,48.251,104.961z"/>
			<path opacity="0.1" fill="#39302C" d="M131.814,94.035c-12.03-8.588-26.6,8.923-26.6,8.923S120.055,84.249,131.814,94.035z"/>
			<path fill="#39302C" d="M109.778,99.545c5.452,0.372,11.691-6.943,17.946-7.495C120.266,90.969,113.04,99.105,109.778,99.545z"/>
			<path fill="#39302C" d="M110.127,103.577c4.926,1.859,13.48-1.041,13.48-1.041s-2.122-0.71-5.15-0.764
				C114.178,104.198,111.31,102.635,110.127,103.577z"/>
			<path fill="#FFFFFF" d="M121.948,94.076c0,0,4.55,2.843,1.517,7.733c-2.249,1.407-10.263,1.167-11.8,1.469
				c-1.537,0.3-1.886-3.732-1.886-3.732L121.948,94.076z"/>
			<path fill="#39302C" d="M119.652,96.189c-1.39,0.273-2.738-0.634-3.011-2.024c-0.077-0.395-0.052-0.782,0.044-1.146
				c-0.557-0.104-1.141-0.11-1.731,0.006c-2.495,0.49-4.12,2.91-3.631,5.404c0.489,2.495,2.909,4.121,5.404,3.631
				c2.495-0.488,4.121-2.908,3.631-5.404c-0.043-0.221-0.106-0.43-0.178-0.635C120.014,96.093,119.839,96.153,119.652,96.189z"/>
			<circle fill="#FFFFFF" cx="119.158" cy="93.67" r="2.565"/>
			<circle fill="#221E1C" cx="115.942" cy="97.391" r="2.605"/>
			<path opacity="0.1" fill="#39302C" d="M91.273,104.395c-16.492-12.152-28.635-3.334-28.635-3.334S75.606,90.851,91.273,104.395z"
				/>
			<path fill="#39302C" d="M67.681,98.636c9.067-0.471,15.548,4.236,19.203,3.917C82.735,101.725,76.668,95.242,67.681,98.636z"/>
			<path fill="#39302C" d="M83.616,104.635c-6.897,2.972-14.611,1.78-14.611,1.78s0.851-0.414,2.299-0.88
				c1.404,0.626,6.693,0.703,10.37-1.183C82.312,104.416,82.961,104.508,83.616,104.635z"/>
			<path fill="#FFFFFF" d="M69.201,98.605c-1.992,3.866,1.251,7.221,1.251,7.221s5.398,1.487,11.766-1.307
				c-0.669,0.88,1.183-1.394,0.238-2.889C81.512,100.134,73.061,96.933,69.201,98.605z"/>
			<path fill="#39302C" d="M76.974,99.516c-1.523-0.127-2.655-1.461-2.529-2.984c0.044-0.549,0.251-1.046,0.564-1.452
				c-0.144-0.026-0.291-0.048-0.44-0.061c-2.729-0.223-5.124,1.806-5.349,4.535c-0.225,2.729,1.805,5.124,4.534,5.349
				c2.729,0.225,5.125-1.807,5.349-4.535c0.043-0.519,0.003-1.026-0.106-1.508C78.456,99.321,77.738,99.578,76.974,99.516z"/>
			<circle fill="#FFFFFF" cx="77.2" cy="96.759" r="2.764"/>
			<circle fill="#221E1C" cx="74.162" cy="99.961" r="2.792"/>
			<circle fill="#FFFFFF" cx="74.435" cy="98.685" r="0.945"/>
			<circle fill="#FFFFFF" cx="116.593" cy="96.237" r="0.945"/>
			<path fill="#39302C" d="M103.385,76.707l-0.285-0.028c0.064-0.587,0.128-1.202,0.188-1.828l0.285,0.025
				C103.513,75.502,103.45,76.118,103.385,76.707z M103.74,73.044l-0.285-0.022c0.051-0.599,0.1-1.215,0.146-1.831l0.285,0.019
				C103.84,71.827,103.791,72.444,103.74,73.044z M104.013,69.375l-0.285-0.016c0.039-0.614,0.075-1.231,0.106-1.833l0.286,0.014
				C104.088,68.143,104.052,68.76,104.013,69.375z M104.206,65.703l-0.286-0.011c0.025-0.61,0.047-1.227,0.065-1.834l0.286,0.008
				C104.253,64.474,104.231,65.092,104.206,65.703z M104.314,62.027l-0.286-0.004c0.01-0.613,0.017-1.23,0.019-1.835l0.286,0.001
				C104.331,60.795,104.324,61.413,104.314,62.027z M104.327,58.35l-0.286,0.003c-0.003-0.256-0.006-0.514-0.011-0.771
				c-0.006-0.353-0.014-0.708-0.023-1.062l0.286-0.007c0.009,0.356,0.017,0.711,0.023,1.065
				C104.32,57.835,104.324,58.092,104.327,58.35z M103.944,54.686c-0.027-0.621-0.059-1.237-0.096-1.831l0.286-0.017
				c0.037,0.596,0.069,1.214,0.096,1.836L103.944,54.686z M103.717,51.026c-0.051-0.619-0.109-1.233-0.172-1.825l0.284-0.028
				c0.063,0.594,0.121,1.21,0.172,1.831L103.717,51.026z M103.319,47.383c-0.085-0.606-0.178-1.215-0.279-1.811l0.282-0.044
				c0.101,0.599,0.195,1.211,0.28,1.819L103.319,47.383z M102.71,43.768c-0.119-0.601-0.248-1.204-0.384-1.793l0.279-0.06
				c0.136,0.592,0.266,1.198,0.385,1.801L102.71,43.768z M101.887,40.194c-0.156-0.593-0.323-1.187-0.496-1.767l0.275-0.076
				c0.174,0.582,0.342,1.18,0.498,1.775L101.887,40.194z M100.836,36.677c-0.196-0.582-0.403-1.165-0.617-1.731l0.269-0.094
				c0.214,0.569,0.423,1.155,0.62,1.74L100.836,36.677z M99.54,33.237c-0.238-0.567-0.488-1.133-0.744-1.683l0.261-0.113
				c0.258,0.553,0.509,1.123,0.748,1.693L99.54,33.237z M97.984,29.9c-0.283-0.549-0.58-1.095-0.88-1.621l0.251-0.133
				c0.303,0.53,0.6,1.078,0.886,1.631L97.984,29.9z M96.153,26.696c-0.332-0.524-0.677-1.042-1.025-1.539l0.237-0.154
				c0.351,0.5,0.698,1.022,1.032,1.55L96.153,26.696z M94.025,23.669c-0.388-0.496-0.787-0.977-1.184-1.428l0.218-0.178
				c0.401,0.455,0.803,0.94,1.194,1.441L94.025,23.669z M91.568,20.887c-0.843-0.834-1.378-1.235-1.383-1.239l0.175-0.218
				c0.022,0.017,0.554,0.415,1.413,1.264L91.568,20.887z"/>
			<polygon fill="#39302C" points="106.453,68.211 106.04,77.563 138.182,83.5 138.815,75.86 			"/>
			<polygon fill="#39302C" points="93.05,68.972 94.153,80.704 55.503,93.565 53.588,87.27 			"/>
			<path opacity="0.5" fill="#FFFFFF" d="M89.158,115.081c-0.004-0.238,0.231-0.717,0.613-0.553
				c8.954,3.854,13.205,0.167,13.205,0.167s1.115,3.682-7.207,3.845C92.378,118.509,89.19,116.985,89.158,115.081z"/>
			
				<ellipse transform="matrix(0.9986 -0.0534 0.0534 0.9986 -6.0603 4.8271)" opacity="0.5" fill="#FFFFFF" cx="87.361" cy="115.898" rx="1.403" ry="1.028"/>
			<circle fill="#39302C" cx="94.393" cy="181.988" r="1.048"/>
			<path opacity="0.1" fill="#39302C" d="M114.21,126.192l1.197,6.299c0,0,2.775,5.163,4.105,8.369
				C118.638,131.802,114.21,126.192,114.21,126.192z"/>
			<path fill="#39302C" d="M109.128,155.662c5.668,3.736,4.282,8.035,4.188,8.599c4.387,4.177,1.482,9.117,1.482,9.117
				s1.055-5.835-2.77-8.799c0.939-4.524-3.861-8.306-3.861-8.306s-3.958-3.143-2.823-2.831
				C106.207,153.333,108.696,154.567,109.128,155.662z"/>
			<path fill="#39302C" d="M115.133,151.184l-1.939,4.659l3.603-4.794c0,0,1.933-8.268-5.922-10.817c-6.6-1.28-9.5,5.555-9.5,5.555
				l1.84,1.089l0.521-1.364c0,0,1.671-4.84,6.479-3.761C117.913,144.161,115.133,151.184,115.133,151.184z"/>
			<path fill="#39302C" d="M116.993,151.389c0,0,10.123,2.938,4.946,10.881c-1.223,1.74-5.588,2.69-5.588,2.69
				s2.217-1.081,2.774-1.7C126.928,157.004,116.993,151.389,116.993,151.389z"/>
			<path fill="#39302C" d="M87.769,146.992c0,0-6.711,3.391-22.231,3.578c-1.597-0.65-1.839-1.74-1.839-1.74
				s14.242-0.026,23.645-2.918C89.523,145.428,87.769,146.992,87.769,146.992z"/>
			<path opacity="0.1" fill="#39302C" d="M88.26,146.086c-2.137,21.211,2.175,35.839,2.175,35.839S82.676,160.602,88.26,146.086z"/>
			
				<ellipse transform="matrix(0.9986 -0.0534 0.0534 0.9986 -8.5702 7.2941)" fill="#D6D6D6" cx="132.331" cy="164.163" rx="0.991" ry="1.084"/>
			<path fill="#39302C" d="M62.597,179.348l-0.575,2.426c0,0,10.067,3.829,25.188,2.035
				C75.386,184.018,62.597,179.348,62.597,179.348z"/>
			<path fill="#39302C" d="M122.565,181.758c-4.22,7.29-20.354,10.174-20.354,10.174S120.543,190.621,122.565,181.758z"/>
			<polygon opacity="0.1" fill="#412413" points="101.787,180.684 102.211,191.932 99.68,180.941 			"/>
			<path fill="#39302C" d="M118.097,150.276l0.218,1.586c0,0,6.747,6.694,8.035,8.024
				C126.233,159.292,118.097,150.276,118.097,150.276z"/>
			<polygon fill="#39302C" points="114.715,129.358 118.009,149.881 117.722,144.505 115.872,133.556 			"/>
			<path fill="#39302C" d="M121.004,137.253c0.225,1.195-2.353,5.68-2.353,5.68l0.66-2.535
				C119.311,140.398,120.497,138.457,121.004,137.253z"/>
			<path opacity="0.05" fill="#FFFFFF" d="M122.693,136.448c-1.284,4.578-4.293,9.784-4.293,9.784s2.789,0.692,5.479,3.835
				C125.309,142.5,123.977,131.869,122.693,136.448z"/>
			<path opacity="0.4" fill="#39302C" d="M128.973,136.442c8.057,12.913,6.779,27.993,6.779,27.993s-0.381-1.926-2.222-5.163
				C133.263,154.282,132.011,144.965,128.973,136.442z"/>
			<path opacity="0.05" fill="#FFFFFF" d="M55.314,150.723c13.342,3.911,28.772-1.538,30.247-1.617
				c-2.414,3.274-2.903,11.438-2.903,11.438S61.973,161.095,55.314,150.723z"/>
			<path opacity="0.4" fill="#39302C" d="M43.654,160.965c10.043,18.329,44.322,19.456,44.322,19.456l1.992,2.668
				C89.968,183.089,50.565,182.976,43.654,160.965z"/>
			<path opacity="0.4" fill="#39302C" d="M61.718,184.773c0,0,19.278,6.933,27.014,6.335c-11.366,1.903-25.465-2.338-25.465-2.338
				L61.718,184.773z"/>
			<path opacity="0.4" fill="#39302C" d="M62.745,196.617c0,0,2.995,20.324,3.383,20.43c0.387,0.106,4.37,3.202,10.324,0.339
				c1.482-0.843,2.83-1.805,2.83-1.805s-1.303,5.546-1.89,6.974c-8.27,5.274-16.964-2.658-16.964-2.658L62.745,196.617z"/>
			<polygon fill="#39302C" points="88.666,203.119 108.31,201.687 105.033,204.661 			"/>
			<path opacity="0.4" fill="#39302C" d="M108.31,201.687c0,0,4.057,9.044,5.358,10.866c5.797,2.27,8.691-1.496,8.691-1.496
				s0.736,4.11,1.098,6.057c-4.158,4.253-13.146,0.703-13.146,0.703l-5.277-13.156L108.31,201.687z"/>
			<polygon fill="#39302C" points="59.488,119.142 62.566,120.89 56.928,120.138 58.682,118.634 			"/>
			<polygon fill="#39302C" points="117.773,118.973 116.338,120.121 119.926,119.69 			"/>
		</g>
		<path opacity="0.05" fill="#010202" d="M119.136,149.274c1.803,3.845,4.297,7.462,7.427,10.772
			c-0.173,0.275-0.31,0.562-0.409,0.86c-0.354,1.064-0.23,2.235,0.366,3.479l0.068,0.142l0.094,0.132
			c1.354,1.911,3.659,3.007,6.326,3.007c0.785,0,1.573-0.097,2.321-0.281c1.302,0.866,2.657,1.688,4.056,2.46
			c-3.329,2.068-7.165,4.922-10.287,8.534c-3.699,4.28-5.732,8.827-6.073,13.553l38.021,0l0.019,7.149h1.883l36.988-7.149h18.899
			c-1.333-3.87-3.381-7.771-6.091-11.597c-3.157-4.459-6.534-7.871-8.706-9.868c2.488-1.3,4.846-2.755,7.038-4.342
			c2.538-1.838,4.859-3.859,6.917-6.022c0.502,0.06,1.058,0.102,1.639,0.102c1.433,0,2.688-0.252,3.731-0.748
			c1.415-0.673,2.371-1.768,2.765-3.166l0.005-0.016l0.004-0.016c0.451-1.732-0.159-2.913-0.75-3.598
			c-0.312-0.362-0.694-0.679-1.139-0.949c1.382-2.452,2.469-5.002,3.239-7.605c1.006-3.397,1.478-6.901,1.403-10.415
			c-0.124-5.817-1.713-11.445-4.723-16.728c-2.904-5.097-7.005-9.665-12.19-13.578c-5.174-3.905-11.177-6.969-17.841-9.105
			c-6.885-2.208-14.186-3.327-21.7-3.327c-0.336,0-0.678,0.002-1.017,0.007c-7.62,0.103-14.991,1.351-21.906,3.707
			c-6.684,2.278-12.663,5.49-17.771,9.549c-5.114,4.064-9.099,8.771-11.842,13.992c-2.844,5.412-4.222,11.138-4.097,17.019
			C115.906,140.051,117.027,144.777,119.136,149.274z M147.339,179.887c0.739-0.953,1.55-1.826,2.359-2.593l-1.8,13.139
			c-0.596-0.352-1.107-0.726-1.53-1.122c-0.855-0.801-1.353-1.683-1.521-2.695C144.451,184.223,145.984,181.636,147.339,179.887z"/>
	</g>
</g>
</svg>
