<?xml version="1.0" encoding="utf-8"?>
<!-- Generator: Adobe Illustrator 18.0.0, SVG Export Plug-In . SVG Version: 6.00 Build 0)  -->
<!DOCTYPE svg PUBLIC "-//W3C//DTD SVG 1.0//EN" "http://www.w3.org/TR/2001/REC-SVG-20010904/DTD/svg10.dtd">
<svg version="1.0" id="Layer_1" xmlns="http://www.w3.org/2000/svg" xmlns:xlink="http://www.w3.org/1999/xlink" x="0px" y="0px"
	 viewBox="0 0 165 178" enable-background="new 0 0 165 178" xml:space="preserve">
<g>
	<circle opacity="0.1" fill="#893F27" cx="82.5" cy="95.5" r="82.5"/>
	<circle fill="#FFFFFF" cx="82.5" cy="82.5" r="82.5"/>
	<g>
		
			<circle fill="none" stroke="#BA2D33" stroke-width="0.8654" stroke-miterlimit="10" stroke-dasharray="3.0378,3.0378" cx="82.5" cy="82.5" r="73.5"/>
	</g>
	<g>
		<path opacity="0.3" fill="#7A2424" enable-background="new    " d="M76.6,132.8c0.3,0.7,0.5,1.3,0.5,2.1v6.9c0.5,0,1,0.2,1.5,0.2
			v-4.2C78.6,137.5,78.4,134.2,76.6,132.8z"/>
		<path opacity="0.3" fill="#7A2424" enable-background="new    " d="M111,132.8c0-5.2-11.9-9.3-26.6-9.3s-26.6,4.2-26.6,9.3
			c0,3.8,6,6.9,14.9,8.3v-5.9c0,0-0.2-2.8-2.8-3.8c0,0-1.5-1.1,0.2-1.6c0,0,4.7-0.3,6.5,2.6c-0.2-0.7-0.2-1.5,1.6-1.1
			c0,0,5.1,0.7,5.2,6.5v4.2c0.3,0,0.7,0,1,0c0.2,0,0.2,0,0.3,0v-4.2c0.2-5.9,5.2-6.5,5.2-6.5c1.8-0.5,1.8,0.5,1.6,1.1
			c1.8-3.1,6.5-2.6,6.5-2.6c1.6,0.7,0.2,1.6,0.2,1.6c-2.6,1-2.8,3.8-2.8,3.8v6C104.5,139.8,111,136.5,111,132.8z"/>
		<path opacity="0.3" fill="#7A2424" enable-background="new    " d="M89.5,137.5v4.2c0.5,0,1,0,1.5-0.2v-6.7c0-0.8,0.2-1.6,0.5-2.1
			C89.5,134.2,89.5,137.5,89.5,137.5z"/>
		<path fill="#7A2424" d="M91.3,132.8c0,0,0.2-0.2,0.2-0.5C91.4,132.4,91.3,132.6,91.3,132.8L91.3,132.8z"/>
		<path opacity="0.5" fill="#7A2424" enable-background="new    " d="M89.5,137.5c0,0,0.2-3.4,1.8-4.7c0-0.2,0.2-0.3,0.2-0.5
			c0.2-0.7,0.2-1.5-1.6-1.1c0,0-4.9,0.7-5.2,6.5v4.2c1.6,0,3.3,0,4.7-0.2v-4.2H89.5z"/>
		<path opacity="0.5" fill="#7A2424" enable-background="new    " d="M77.1,135c0-0.8-0.2-1.6-0.5-2.1l0,0c0,0-0.2-0.2-0.2-0.5
			c-1.8-3.1-6.5-2.6-6.5-2.6c-1.6,0.7-0.2,1.6-0.2,1.6c2.6,1,2.8,3.8,2.8,3.8v5.9c1.5,0.3,2.9,0.5,4.6,0.7V135z"/>
		<path opacity="0.5" fill="#7A2424" enable-background="new    " d="M98.1,131.3c0,0,1.5-1.1-0.2-1.6c0,0-4.7-0.3-6.5,2.6
			c0,0.3-0.2,0.5-0.2,0.5l0,0c-0.3,0.7-0.5,1.3-0.5,2.1v6.9c1.6-0.2,3.1-0.3,4.6-0.5v-6C95.4,135.2,95.5,132.3,98.1,131.3z"/>
		<path fill="#7A2424" d="M76.6,132.8c0-0.2-0.2-0.3-0.2-0.5C76.4,132.6,76.6,132.8,76.6,132.8L76.6,132.8z"/>
		<path opacity="0.5" fill="#7A2424" enable-background="new    " d="M78.6,137.5v4.2c1.5,0.2,3.1,0.2,4.7,0.2v-4.2
			c-0.2-5.9-5.2-6.5-5.2-6.5c-1.8-0.5-1.8,0.5-1.6,1.1c0.2,0.2,0.2,0.3,0.2,0.5C78.4,134.2,78.6,137.5,78.6,137.5z"/>
		<path opacity="0.25" fill="#7A2424" enable-background="new    " d="M53.9,105.2l-0.8,2.6c0,0-0.2,1,0.7,1.1c1,0,0.8-1,0.8-1.1
			L53.9,105.2L53.9,105.2z"/>
		<path fill="#7A2424" d="M131.4,93.9v-0.3c-7.8-1.6-15.8-1.6-20.7-1.3c0.8-2.9,1-6.2,1-9.8c0-5.2-2-9.5-5.2-12.7
			c0.5-1.8,1.3-5.9-0.8-11.1c0,0-3.6-1.1-11.9,4.4c-3.1-1-6.5-1.3-10-1.3c-3.8,0-7.7,0.5-11.3,1.5c-8.5-5.9-12.2-4.6-12.2-4.6
			c-2.4,6.2-1,10.6-0.5,11.8c-2.9,3.1-4.6,7-4.6,11.9c0,3.8,0.5,7,1.5,9.8C51.8,92,44.1,92,36.4,93.6v0.3c7.7-1.5,15.3-1.6,20.2-1.3
			c0.2,0.7,0.5,1.1,0.8,1.8c-4.7,0.2-13.1,0.8-20.9,2.9l0.2,0.3c8-2.3,16.2-2.8,21.1-2.9c2.9,5.4,8.5,8.8,18.6,10
			c-1.5,1-2.9,2.6-3.4,5.4c-2,1-8.2,3.3-11.9-3.1c0,0-2.1-3.8-6-4.1c0,0-3.9,0-0.3,2.4c0,0,2.6,1.1,4.4,5.7c0,0,2.3,7.8,13.5,5.2v8
			c0,0-0.2,2.8-2.8,3.8c0,0-1.5,1.1,0.2,1.6c0,0,7.2,0.7,7.2-5.4v-8.7c0,0-0.3-3.4,1.5-4.7v14.4c0,0-0.2,3.4-2,4.7
			c0,0-1.1,2.1,1.5,1.5c0,0,5.1-0.7,5.2-6.5l0.2-14.5h1.1l0.2,14.5c0.2,5.9,5.2,6.5,5.2,6.5c2.6,0.7,1.5-1.5,1.5-1.5
			c-1.8-1.3-2-4.7-2-4.7v-14.4c1.6,1.3,1.5,4.6,1.5,4.6v8.8c0,5.9,7.2,5.4,7.2,5.4c1.6-0.7,0.2-1.6,0.2-1.6c-2.6-1-2.8-3.8-2.8-3.8
			v-11.4c0-4.4-2-6.9-3.8-8.2c10.8-1.1,16-4.6,18.3-10c4.7,0.2,13.2,0.7,21.4,2.9l0.2-0.3c-8-2.3-16.5-2.9-21.2-2.9
			c0.2-0.5,0.5-1.1,0.7-1.6C115.4,92.4,123.6,92.4,131.4,93.9z M55.9,104.2c-0.5,0-0.8-0.2-0.8-0.5s0.3-0.5,0.8-0.5s0.8,0.2,0.8,0.5
			C56.7,103.9,56.4,104.2,55.9,104.2z M57.3,104.8c0-0.3,0.3-0.5,0.8-0.5c0.5,0,0.8,0.2,0.8,0.5s-0.3,0.5-0.8,0.5
			C57.7,105.3,57.3,105.2,57.3,104.8z M58.6,106.3c0-0.3,0.3-0.5,0.8-0.5c0.5,0,0.8,0.2,0.8,0.5s-0.3,0.5-0.8,0.5
			C59,107,58.6,106.6,58.6,106.3z M60.6,108.8c-0.5,0-0.8-0.2-0.8-0.5c0-0.3,0.3-0.5,0.8-0.5s0.8,0.2,0.8,0.5
			C61.3,108.4,60.9,108.8,60.6,108.8z M61.9,110.4c-0.5,0-0.8-0.2-0.8-0.5c0-0.3,0.3-0.5,0.8-0.5s0.8,0.2,0.8,0.5
			C62.6,110.1,62.2,110.4,61.9,110.4z M63.7,111.7c-0.5,0-0.8-0.2-0.8-0.5c0-0.3,0.3-0.5,0.8-0.5s0.8,0.2,0.8,0.5
			C64.4,111.5,64,111.7,63.7,111.7z M66.1,112.7c-0.5,0-0.8-0.2-0.8-0.5c0-0.3,0.3-0.5,0.8-0.5s0.8,0.2,0.8,0.5
			C67,112.5,66.5,112.7,66.1,112.7z M68.6,112.7c-0.5,0-0.8-0.2-0.8-0.5c0-0.3,0.3-0.5,0.8-0.5s0.8,0.2,0.8,0.5
			C69.4,112.5,69.1,112.7,68.6,112.7z M71,112.4c-0.5,0-0.8-0.2-0.8-0.5c0-0.3,0.3-0.5,0.8-0.5c0.5,0,0.8,0.2,0.8,0.5
			C71.9,112,71.5,112.4,71,112.4z M83.8,102.6c-11.8,0-21.2-1.8-21.2-13.1c0-2.8,1.3-5.2,3.6-7.3c3.8-3.4,10.3-1.6,17.6-1.6
			s13.7-1.8,17.6,1.6c2.3,2.1,3.6,4.6,3.6,7.3C105,102.2,95.4,102.6,83.8,102.6z"/>
		<g>
			<ellipse fill="#7A2424" cx="72.3" cy="90.2" rx="2.9" ry="4.2"/>
			<ellipse fill="#7A2424" cx="96" cy="90.2" rx="2.9" ry="4.2"/>
			<circle fill="#7A2424" cx="83.8" cy="95.9" r="1.1"/>
			<path fill="#7A2424" d="M86.1,98.2c-0.2,0-0.3,0-0.5,0.2c-0.3,0.8-1,1.3-2,1.3c-0.8,0-1.6-0.5-2-1.3c0-0.2-0.3-0.3-0.5-0.2
				c-0.2,0-0.3,0.3-0.2,0.5c0.3,1.1,1.5,1.8,2.6,1.8s2.1-0.7,2.6-1.8C86.4,98.5,86.2,98.2,86.1,98.2z"/>
		</g>
		<g opacity="0.12">
			<ellipse fill="#7A2424" cx="55.9" cy="103.7" rx="0.8" ry="0.5"/>
			<path fill="#7A2424" d="M58.8,104.8c0-0.3-0.3-0.5-0.8-0.5s-0.8,0.2-0.8,0.5s0.3,0.5,0.8,0.5S58.8,105.2,58.8,104.8z"/>
			<ellipse fill="#7A2424" cx="59.3" cy="106.3" rx="0.8" ry="0.5"/>
			<ellipse fill="#7A2424" cx="60.6" cy="108.1" rx="0.8" ry="0.5"/>
			<ellipse fill="#7A2424" cx="61.9" cy="109.7" rx="0.8" ry="0.5"/>
			<ellipse fill="#7A2424" cx="63.7" cy="111.2" rx="0.8" ry="0.5"/>
			<ellipse fill="#7A2424" cx="66.1" cy="112.2" rx="0.8" ry="0.5"/>
			<ellipse fill="#7A2424" cx="68.6" cy="112.2" rx="0.8" ry="0.5"/>
			<path fill="#7A2424" d="M71,111.2c0.5,0,0.8,0.2,0.8,0.5c0,0.3-0.3,0.5-0.8,0.5c-0.5,0-0.8-0.2-0.8-0.5
				C70.4,111.5,70.7,111.2,71,111.2z"/>
		</g>
		<path fill="#7A2424" d="M72.2,83.8c2.4,0,4.4,2.8,4.4,6.4s-2,6.4-4.4,6.4s-4.4-2.8-4.4-6.4C67.8,86.6,69.7,83.8,72.2,83.8
			 M72.2,83.3c-2.8,0-4.9,3.1-4.9,6.9c0,3.8,2.3,6.9,4.9,6.9c2.8,0,4.9-3.1,4.9-6.9C77.1,86.4,75,83.3,72.2,83.3L72.2,83.3z"/>
		<path fill="#7A2424" d="M96,83.8c2.4,0,4.4,2.8,4.4,6.4s-2,6.4-4.4,6.4s-4.4-2.8-4.4-6.4C91.4,86.6,93.6,83.8,96,83.8 M96,83.3
			c-2.8,0-4.9,3.1-4.9,6.9c0,3.8,2.3,6.9,4.9,6.9c2.8,0,4.9-3.1,4.9-6.9C100.9,86.4,98.6,83.3,96,83.3L96,83.3z"/>
	</g>
	<g>
		<path fill="#7A2424" d="M51.2,46.7h3.2v1.5h-5.1V35.3h1.9V46.7z"/>
		<path fill="#7A2424" d="M57.4,35.3h2.3c1.3,0,1.9,0.6,1.9,1.8v9.3c0,1.2-0.6,1.8-1.9,1.8h-2.3c-1.3,0-1.9-0.6-1.9-1.8v-9.3
			C55.5,35.9,56.1,35.3,57.4,35.3z M59.8,46.1v-8.7c0-0.2,0-0.4-0.1-0.5c-0.1-0.1-0.2-0.1-0.5-0.1H58c-0.2,0-0.4,0-0.5,0.1
			c-0.1,0.1-0.1,0.2-0.1,0.5v8.7c0,0.2,0,0.4,0.1,0.5c0.1,0.1,0.2,0.1,0.5,0.1h1.2c0.2,0,0.4,0,0.5-0.1
			C59.7,46.5,59.8,46.4,59.8,46.1z"/>
		<path fill="#7A2424" d="M69.6,39.1h-1.9v-1.7c0-0.2,0-0.4-0.1-0.5c-0.1-0.1-0.2-0.1-0.5-0.1h-1.1c-0.2,0-0.4,0-0.5,0.1
			c-0.1,0.1-0.1,0.2-0.1,0.5v8.8c0,0.2,0,0.4,0.1,0.5c0.1,0.1,0.2,0.1,0.5,0.1h1.1c0.2,0,0.4,0,0.5-0.1c0.1-0.1,0.1-0.2,0.1-0.5V43
			h-1v-1.4h2.9v4.8c0,1.2-0.6,1.8-1.9,1.8h-2.2c-1.3,0-1.9-0.6-1.9-1.8v-9.3c0-1.2,0.6-1.8,1.9-1.8h2.2c1.3,0,1.9,0.6,1.9,1.8V39.1z
			"/>
		<path fill="#7A2424" d="M71.7,35.3h1.9v12.9h-1.9V35.3z"/>
		<path fill="#7A2424" d="M80.5,35.3h1.7v12.9h-1.9l-2.7-9.3v9.3h-1.7V35.3h2l2.6,9.1V35.3z"/>
		<path fill="#7A2424" d="M96.8,35.3h1.9l-2.1,12.9H94l-1.4-9.7l-1.4,9.7h-2.6l-2.1-12.9h1.9l1.4,11.2l1.7-11.2h2.1l1.7,11.2
			L96.8,35.3z"/>
		<path fill="#7A2424" d="M100.1,35.3h1.9v12.9h-1.9V35.3z"/>
		<path fill="#7A2424" d="M109.5,35.3v1.5h-2.2v11.4h-1.9V36.8h-2.2v-1.5H109.5z"/>
		<path fill="#7A2424" d="M115.2,35.3h1.9v12.9h-1.9v-5.7h-2.7v5.7h-1.9V35.3h1.9V41h2.7V35.3z"/>
	</g>
</g>
</svg>
