<?xml version="1.0" encoding="utf-8"?>
<!-- Generator: Adobe Illustrator 18.1.1, SVG Export Plug-In . SVG Version: 6.00 Build 0)  -->
<!DOCTYPE svg PUBLIC "-//W3C//DTD SVG 1.1//EN" "http://www.w3.org/Graphics/SVG/1.1/DTD/svg11.dtd">
<svg version="1.1" id="Layer_1" xmlns="http://www.w3.org/2000/svg" xmlns:xlink="http://www.w3.org/1999/xlink" x="0px" y="0px"
	 viewBox="0 0 166.8 222.5" enable-background="new 0 0 166.8 222.5" xml:space="preserve">
<g>
	<path fill="#FF6666" d="M142.9,175.5c14.8-15.1,23.9-35.7,23.9-58.5c0-46.1-37.3-83.4-83.4-83.4S0,71,0,117.1
		c0,22.8,9.1,43.4,23.9,58.5H142.9z"/>
	<g>
		<path opacity="0.1" fill="#883E26" d="M126.4,208c-0.6-0.3-0.2-1-0.8-1.3l23.9-5.8c0,0-46.5-2.5-47.3-3.3
			c-0.7-0.6-5.1,6.6-6.3,8.6c-1.3,0.1-2.6,0.2-3.8,0.5H58c-1.7-0.3-3.5-0.6-5.4-0.6c-7.3,0-13.3,3-13.3,6.6c0,3.7,3,9.6,13.7,9.6
			c2.4,0,4.7-0.3,6.6-0.9c7.6-5.4,21.4-6.8,31.4-6.8c4.5,0,8.9,1.4,12.6,3.9c3.1,2,8.5,3.4,14.7,3.4c9.7,0,17.5-3.3,17.5-7.4
			C136,211.7,132.1,209.2,126.4,208z"/>
		<path fill="#B6A999" d="M47.5,207.5h78.3c0,0,0-128.1,0-138.9L70.3,32.1C60.7,33.5,53,35,46.4,36.7L47.5,207.5z"/>
		<path opacity="0.2" fill="#897F73" d="M101.1,67.6l0.1,13.1l6.3,4.6l-0.8,6.1l-10.5-1.1l-12.7,27.8l-2.7-85l-34.5,3.5l1.3,170.9
			h38.7l-2.5-82h2c0.9,10,3.3,20,7.2,28.8c-4.5,12.1,4.9,32.2,4.5,53.2h6.3l-4.6-88.7l3.8-11.3l3.8-2.7l1-5.6l3.5-4.4l3.3-5.6
			l3.5-14.8L101.1,67.6z"/>
		<polygon fill="#BA2B32" points="64.9,97.1 64.9,105.2 83.1,122.5 86.5,122.5 102.1,105.4 102.2,95.1 		"/>
		<polygon fill="#A12E2F" points="64.9,97.1 64.9,105.2 83.1,122.5 84.8,122.5 84.4,101.2 		"/>
		<path fill="#B3B3B3" d="M94.2,24.7l-34.4,1.1c0,0,17.7,15.2,17.8,15.2c0.1,0,6.8-2.9,6.8-2.9L94.2,24.7z"/>
		<path fill="#F6C785" d="M105.7,55.6c-0.2,4.6-3.2,11.2-4.1,15.2s0.3,24.6,0.3,24.6c-14.5,10.3-37.2,2.3-37.2,2.3
			s-2.8-13.4-5.1-21.1C53.7,70.8,50,62.5,50,62.5c0.1,5-2.2,8.9-5.7,12.3L28,70.6c-0.3-4.3,0.9-9.1,4.5-15
			c2.1-10.3,7-17.9,17.5-19.9c0,0,18.9-2.8,19.6-3c0.7-0.2,25.9-2.1,25.9-2.1C108.2,32.4,107.4,43.7,105.7,55.6z"/>
		<path opacity="0.1" fill="#A67C52" d="M82.1,72.7l1.6-0.2l-2.7-33c-1.9-0.7-2.1-2.7-0.3-3.3l-0.3-3.2c0,0-0.5-0.5-1.4-1.2
			c-4.9,0.4-9.1,0.7-9.4,0.8C69,33,50,35.8,50,35.8c-10.6,1.9-15.4,9.5-17.5,19.9c-3.7,5.9-4.8,10.7-4.5,15l16.4,4.3
			c3.5-3.4,5.8-7.4,5.7-12.3c0,0,3.7,8.3,9.5,14.1c2.3,7.7,5.1,21.1,5.1,21.1s8.7,3.1,18.7,3c0.6,0,1.1,0,1.1,0L82.1,72.7z"/>
		<path fill="#792323" d="M64.8,105.2c-3.9,17-5.9,36.3-2.2,48.6c-0.3,4.3,0.2,6.1,0.6,8.3c0.1,12.9,6.7,31.1,1.6,42
			c-0.8,2.6-14.9,6.8-17.3,14.6c2.6,0.4,12.3,1.8,20.1-6.3c4,0.3,7-1.5,7-1.5c-2.6-27.6,7.8-34.9,2.8-55.1
			c4.3-11.3,5.2-25.4,5.7-34.4L64.8,105.2z"/>
		<path fill="#A12E2F" d="M86.5,121.4c0,0,2.5,16.6,7.4,30.3c0.6,1.7,1,3.4,0.8,5.2c-2.4,19.9,6,29.1,4.3,46.6
			c-0.5,5.4-2.1,7.6,6.8,7.6c0,0,4.2,6.9,15.8,5.3c0-2.1-0.7-5.9-10.5-10.9c-2.6-1.3-4.5-3.8-5.1-6.6c-1.8-8.3,1.2-25.8,2.2-38.3
			c1.1-2.2,1.3-6.1,1.2-7.8c0-0.3-0.1-0.6,0-0.9c2.3-12.2,0.6-20.2-7.3-47.1L86.5,121.4z"/>
		<g>
			<ellipse fill="#BA2B32" cx="104.6" cy="159.2" rx="3.1" ry="4.9"/>
			<g>
				<g>
					<path fill="#883E26" d="M106.4,158.7C106.4,158.7,106.4,158.7,106.4,158.7l-3-0.2c-0.2,0-0.3-0.2-0.3-0.4
						c0-0.2,0.2-0.4,0.4-0.4l3,0.2c0.2,0,0.3,0.2,0.3,0.4C106.7,158.5,106.6,158.7,106.4,158.7z"/>
				</g>
				<g>
					<path fill="#883E26" d="M106.5,160.5C106.5,160.5,106.5,160.5,106.5,160.5l-3.3-0.1c-0.2,0-0.3-0.2-0.3-0.4
						c0-0.2,0.2-0.4,0.4-0.4l3.2,0.1c0.2,0,0.3,0.2,0.3,0.4C106.8,160.3,106.7,160.5,106.5,160.5z"/>
				</g>
			</g>
			<path fill="#BA2B32" d="M109.1,204.1l2.1,1.4c0,0-2,0-3.3,2.8c-0.4,0.7-2.4-0.1-1.9-1.9C107.1,204.1,109.1,204.1,109.1,204.1z"/>
			<path fill="#BA2B32" d="M112.5,206.2c-0.6,0.1-2.5,1-3.2,3c-0.5,1.5,1,2.3,1.5,1.6c1.3-2.9,3.7-3.5,3.7-3.5L112.5,206.2z"/>
		</g>
		<g>
			<path opacity="0.2" fill="#792323" d="M92.9,99.5L92.9,99.5c0.3,1.2,2,2.5,4,2.3c0,0.8,0.5,1.5,1.4,1.8c0.4,1.1,1.4,1.6,2.8,1.6
				c0.2,0.7,0.7,1.6,1.4,1l-1.1-3.9l0.4-7C99.1,97.4,96.2,98.6,92.9,99.5z"/>
		</g>
		<path opacity="5.000000e-02" fill="#792323" d="M96.4,91.2L93,99.5c3.1-0.8,6.1-2.1,8.8-4c0,0-0.2-3.4-0.4-7.6l0-0.1L96.4,91.2z"
			/>
		<path fill="#F6C785" d="M97.5,30.4c4.9,0.5,12.8,3.5,15.1,12.8c4.9,3.8,6.8,8.9,8.3,14.2c3,3.9,4.5,6.7,4.4,11.3
			c-1.7,5.4-8.4,13.8-16,23.5c-0.7,1-1.2,1.8-1.2,1.8s-1.1,2.3-2.1,4c-0.6,0.9-1.4,5.1-1.5,5.3c-0.3,0.6-2.4,1.6-2.4,1.6
			s-1.2-0.4-0.6-1.4c-0.4,0-1,0.2-1,0.2c-0.7-0.2-1.2-1.4-0.9-2.1c-1,0.4-2.4-0.5-2.1-1.5c0,0-2.9,0.3-2.9-1.6
			c1.2-3.4,3.5-7.5,3.5-7.5l3.4-1.7l-0.1-2.5c0.5-0.1,3.3,0.5,3.3,0.5s2.9-3.9,3.8-7.7c0.5-3.4,0.4-9.4,2.5-14.4
			c-3.3-2.3-6.4-4.9-8.7-8.2L97.5,30.4z"/>
		<path opacity="5.000000e-02" fill="#792323" d="M97.5,100.5h-0.6c0,0,1.8-5.4,3.5-6.2c0.9-0.4,0.6,0.9,0.6,0.9
			C99.6,96.1,99.1,97.5,97.5,100.5z"/>
		<path opacity="5.000000e-02" fill="#792323" d="M99.1,101.7l2.8-3.4l0.9-1.4c0,0,0.6-0.3,0.8-0.2c0.2,0.1,0,0.4,0,0.4l-1.5,1.9
			l-2.6,2.8L99.1,101.7z"/>
		<path opacity="5.000000e-02" fill="#792323" d="M101.1,103.5c0.2,0,2.3-2,2.6-2.5c0.3-0.5,0.7-1.2,0.8-0.9
			c0.2,0.4-0.5,1.3-0.5,1.3l-2.6,2.2L101.1,103.5z"/>
		<path fill="#A67C52" d="M81.2,33.1c0,0-0.2,3.2-0.2,3.2c-2,0.6-0.8,2.7,0.6,3.3c-2.2,0-2.7-2.8-0.7-3.7v-2.6L81.2,33.1z"/>
		<path fill="#F6C785" d="M64.1,21.9c-3.5-0.5-3.4,4.5-0.1,4.2C65.8,25.6,65.3,22.3,64.1,21.9z"/>
		<path opacity="0.1" fill="#A67C52" d="M61.4,23.5h2.5v2.6C62.9,25.9,61.7,25.5,61.4,23.5z"/>
		<path fill="#BA2B32" d="M88.8,6.2c0,0,2.9,19,3.4,23c-10.6,8.6-29.6,1.1-29.6,0.7c0-0.3,1.8-22.7,1.8-22.7s5.2-6.8,11-7.3
			C81.2-0.4,88.8,6.2,88.8,6.2z"/>
		<path fill="#792323" d="M86.7,21c2.2-1.1,1.5-4.2-1-2.7c-3.1,1.7-7.1,2.8-10.3,3.4l-0.1-0.3l-0.7-4.1l0.1-0.5
			c0.7-0.1,1.4-0.1,2.4-0.1c-0.2-0.6-0.4-0.6-0.5-1.7c0,0,2.9,2.6,6.4,1.9c0.3,0.1,0.6,0.5,0.4,0.9c-0.1,0.2-0.5,0.1-0.4-0.1
			c0.1,0.1,0.2-0.1,0.1-0.2c-0.1-0.2-0.4-0.1-0.5,0.1c-0.1,0.3,0.2,0.7,0.7,0.7c0.9-0.2,0.7-1.1,0.3-1.6c1.3-0.4,3-1.7,3.7-3.8
			c-1-0.8-2-2-3.6-2.7c-0.4-0.2-0.5-0.6-0.5-0.7c0-0.7,1-0.9,0.9-0.4c-0.2-0.1-0.5,0.4-0.2,0.6c0.3,0.1,0.5,0.1,0.7-0.1
			c0.6-0.9-0.6-1.8-1.5-1.2C82.2,7.1,80.5,7.8,81,9c0.3,0.7,1.5,0.2,1-0.4c-0.1-0.1-0.4,0-0.3,0.2c-0.2,0-0.3-0.3,0-0.5
			c0.7-0.3,1.6,1-0.1,1.6c-2.8,0.5-4.9,3.5-4.9,3.5c0.3-2.3,0.9-5.5,2.2-8.2c0,0-0.8,2.7-0.6,4.2c0.2,1.9,2.8,0.9,2.1-0.5
			C80,8.3,79,8.6,79.2,9.4c0.1,0.3,0.6,0.2,0.6-0.1c0.3,0,0.2,0.4,0.1,0.5c-0.1,0.2-0.8,0.4-1-0.4c-0.3-1.5,0.7-4,1.5-4.8
			C81,4,81.9,4.5,81.5,5.1c-0.2-0.5-0.9-0.4-0.9,0.1c-0.2,0.8,0.9,1.2,1.6,0.7c0.9-0.6,0.8-2.1-0.4-2.7c-1.7-0.9-2.9-0.7-3.7-0.5
			c-1.3,0.5-1.3,1.7-0.5,2.5c-0.1,2.1-1,5.3-2.4,7c0-0.1-0.1-0.1-0.1-0.2l0-0.3L75.3,0c-5.8,0.5-11,7.3-11,7.3S62.6,29.7,62.6,30
			c0,0.2,9.1,3.9,18.3,3.3c2.1-3,4.8-4.8,7.5-6.8C87.7,25.2,85.9,23.3,86.7,21z"/>
		<path fill="#FFC200" d="M75.3,11.7c1.4-1.8,2.3-5,2.4-7c-0.8-0.8-0.8-2,0.5-2.5c0.7-0.2,1.9-0.4,3.7,0.5c1.3,0.6,1.4,2.1,0.4,2.7
			c-0.8,0.6-1.8,0.1-1.6-0.7c0-0.5,0.7-0.6,0.9-0.1c0.4-0.6-0.5-1-1.1-0.5c-0.8,0.7-1.8,3.3-1.5,4.8c0.2,0.8,0.9,0.5,1,0.4
			c0.1-0.1,0.2-0.4-0.1-0.5c0,0.3-0.5,0.4-0.6,0.1C79,8.2,80,7.8,80.3,8.5c0.7,1.4-1.9,2.4-2.1,0.5c-0.2-1.5,0.6-4.2,0.6-4.2
			c-1.3,2.7-1.9,5.9-2.2,8.2c0,0,2.2-3,4.9-3.5c1.6-0.6,0.8-1.9,0.1-1.6c-0.3,0.2-0.2,0.5,0,0.5C81.6,8.1,81.8,8,82,8.1
			c0.5,0.6-0.7,1.2-1,0.4c-0.5-1.3,1.3-2,2.1-0.7c0.9-0.6,2.1,0.4,1.5,1.2c-0.2,0.2-0.5,0.2-0.7,0.1c-0.3-0.2,0-0.7,0.2-0.6
			c0.1-0.5-0.9-0.3-0.9,0.4c0,0.2,0.1,0.6,0.5,0.7c1.6,0.7,2.6,2.4,3.6,3.2c-1.1,1.9-2.4,2.9-3.7,3.4c0.4,0.4,0.6,1.4-0.3,1.6
			c-0.5,0.1-0.8-0.4-0.7-0.7c0.1-0.2,0.3-0.3,0.5-0.1c0.1,0.1,0,0.3-0.1,0.2c-0.1,0.2,0.3,0.3,0.4,0.1c0.2-0.4-0.1-0.7-0.4-0.9
			c-3.5,0.7-6.4-1.9-6.4-1.9c0.2,1,0.4,1.6,0.5,2.1c-1.2-0.3-2.4-0.4-3.5-0.1c0.5-0.5,0.6-1.3,0.6-1.7c-1.3,1.5-2.7,2.3-4.1,2.4
			c-0.8,0.1-0.9,0.6-0.5,0.7c-0.2-0.1,0-0.3,0.2-0.3c0.4,0.1,0.3,0.8-0.4,0.7c-0.3,0-0.7-0.6-0.1-1.1c-1.4-0.2-2.5-1-4.3-2.2
			c1.2-1.1,2-2.4,3.6-2.9c0.5-0.3,0.4-0.9-0.2-0.7c0.3,0.2,0.2,0.6-0.2,0.5c-0.8-0.3-0.1-1.4,0.9-0.9c0.2-1.4,2.1-0.2,1,0.6
			c-0.3,0.1-0.6-0.3-0.1-0.5c-0.1-0.2-0.4-0.1-0.5,0c-0.2,0.2-0.2,0.6,0.2,0.7c1.3-0.1,2.8,0.3,4.6,1.8c0-3.3-1.2-6.4-2.5-7.7
			c0,0,1.7,3.3,1.3,5.2c-0.3,1.2-1.8,0.6-1.5-0.4c0.1-0.3,0.3-0.4,0.5-0.3c0.3,0.1,0.3,0.4,0,0.5c0.1,0.2,0.4,0.2,0.5-0.1
			c0.4-1.2-1.4-6.2-3.2-5c-0.4,0.4-0.5,1,0.1,1c-0.3-0.3-0.1-0.8,0.3-0.7c0.5,0.2,0.4,0.6,0.2,1c-0.2,0.4-1.1,0.6-1.5,0
			c-0.3-0.3-0.3-1,0.4-2c0.7-0.9,2.3-2.1,3.5-2.5C73.7,2.1,74.3,4,73.4,5C73.3,6.8,74.1,9.9,75.3,11.7z"/>
		<path fill="#FBB03B" d="M69.3,18.3c0.7,0.2,0.8-0.6,0.4-0.7c-0.2,0-0.3,0.2-0.2,0.3c-0.4-0.1-0.3-0.6,0.5-0.7
			c1.4-0.1,2.8-0.9,4.1-2.4c0,0.3-0.2,1.2-0.6,1.7c0.4-0.1,0.8-0.1,1.2-0.1l0.3-0.1l0.9-4.6v-0.1c-2-1.9-2.3-4.8-2.1-6.6
			c0.9-1,0.1-2.9-1.3-2.5c-1.2,0.4-2.9,1.6-3.6,2.5c-0.7,1-0.7,1.7-0.4,2c0.5,0.6,1.3,0.4,1.5,0c0.2-0.4,0.3-0.8-0.2-1
			c-0.4-0.1-0.7,0.5-0.3,0.7c-0.6,0-0.6-0.6-0.1-1c1.7-1.2,3.5,3.8,3.2,5c-0.1,0.3-0.4,0.3-0.5,0.1c0.3-0.1,0.3-0.4,0-0.5
			c-0.2-0.1-0.4,0-0.5,0.3c-0.3,1,1.2,1.6,1.5,0.4c0.4-1.9-1.3-5.2-1.3-5.2c1.3,1.3,2.5,4.5,2.5,7.7c-1.8-1.5-3.3-1.9-4.6-1.8
			c-0.3-0.1-0.4-0.5-0.2-0.7c0.1-0.1,0.4-0.2,0.5,0c-0.4,0.2-0.1,0.6,0.1,0.5c1.1-0.8-0.8-1.9-1-0.6c-1-0.5-1.7,0.6-0.9,0.9
			c0.4,0.1,0.5-0.3,0.2-0.5c0.6-0.1,0.7,0.5,0.2,0.7c-1.5,0.5-2.4,1.8-3.6,2.9c1.7,1.3,2.8,2.1,4.3,2.2C68.5,17.7,69,18.3,69.3,18.3
			z"/>
		<path fill="#F6C785" d="M71.5,18.8c0,0-1.6,0.1-1.4,1.2c0.2,1,1.8,0.4,1.8,0.4L71.5,18.8z"/>
		<path opacity="0.1" fill="#A67C52" d="M71.6,18.8l-0.5,0.1c-0.4,0.5-0.4,1.1,0,1.7l0.9-0.2L71.6,18.8z"/>
		<path opacity="0.3" fill="#792323" d="M79.6,18.8c-0.1,0.7-0.4,1.1-1.1,0.9c-1.9,1.9-5.3,2.1-6.6,0.7L79.6,18.8z"/>
		<path fill="#F6C785" d="M77.8,17.6c-2.6-0.5-4.5-0.4-5.8,0.5c-0.7,0.6-0.9,1.5-0.1,2.3c1.2,1.1,4.4,0.8,6.4-1.2
			C80.8,19.3,79.7,16.7,77.8,17.6z"/>
		<path fill="#FFC200" d="M70.1,22.2c-2.9,0.2-2.7,2.4-0.8,2.3c1.8,1.7,2.1,4.1,2.3,6.7c3.6,0.1,6.8,0.6,9.3,2.2
			c1.4-2.6,4-4.8,7.5-6.8c-0.7-1.3-2.3-4-1.5-6.3c2.2-1.1,1.4-3.6-1.2-2.2C79.6,21.4,70.1,22.2,70.1,22.2z"/>
		<path fill="#FBB03B" d="M69.3,24.5c1.8,1.7,2.1,4.1,2.3,6.7c3.5,0.1,6.8,0.6,9.3,2.1c0,0,0,0,0,0l-5.6-11.9v0
			c-3,0.6-5.2,0.8-5.2,0.8C67.1,22.4,67.4,24.6,69.3,24.5z"/>
		<path fill="#F6C785" d="M76.9,13.8c3-3.5,6.2-4.8,8.8-0.7C83.1,16.5,80.1,16.4,76.9,13.8z"/>
		<path fill="#F6C785" d="M73.6,14.2c-3.6,4.8-7.3,0.6-7.3,0.6S69,10.3,73.6,14.2z"/>
		<path opacity="0.1" fill="#A67C52" d="M49.6,47.6l6.2,8.4c1.1,2.1-5.6,6.3-5.6,6.3L49.6,47.6z"/>
		<polygon fill="#736357" points="64.9,8.1 70.8,4.3 71.6,7.3 65.3,9.5 		"/>
		<path fill="#F6C785" d="M84.6,18.6c2.5-1.2,4.6,2.1,2,4.3l0.4,3.5c0,0-5.6,2.9-7,4.4c-3.3-0.2-7.7-0.5-7.7-0.5
			c-0.4-3.3-1.7-5.6-3-7.9C75,22.3,80.1,21,84.6,18.6z"/>
		<path fill="#F6C785" d="M78.7,31.4c-3.5,1.6-6.3-2.6-3.3-4.5L75,24.7l4.5-0.3C80.2,27.9,81,30.2,78.7,31.4z"/>
		<path opacity="0.1" fill="#A67C52" d="M80.5,43.4c-9.6,3.2-19.4,1.7-29.4-3.2c-1.6-1.3-3.7-2.2-6.8-2.6l1.2-0.5L80.5,43.4z"/>
		<path fill="#E6E6E6" d="M80.5,43.4c-19.4,3-25.1-4.5-35-6.4l0.8-0.8L80.5,43.4z"/>
		<path fill="#FFFFFF" d="M80.5,43.4c-19.3,1.8-23.9-5.1-34.2-7.2c4.1-1.2,14.9-3.9,23.7-4.2L80.5,43.4z"/>
		<polygon fill="#F2F2F2" points="74.1,32.9 80.5,43.4 59.9,33.7 59.9,25.8 		"/>
		<polygon fill="#E6E6E6" points="74.1,32.9 80.5,43.4 73.2,33.3 		"/>
		<polygon fill="#FFFFFF" points="59.9,25.8 74.1,32.9 73.2,33.3 		"/>
		<path opacity="0.1" fill="#A67C52" d="M68.9,73.5c10.1,3,19.3,2,28,0C87.4,73.5,78.1,73.5,68.9,73.5z"/>
		<circle fill="#A67C52" cx="83.5" cy="90.3" r="1.1"/>
		<path opacity="0.1" fill="#A67C52" d="M81.4,43.5c0,17.3,9.4,26.4,19.8,37.2l0-9.8L81.4,43.5z"/>
		<polygon fill="#B6A999" points="142.2,195.1 149.5,201 133.7,201 		"/>
		<path fill="#F2F2F2" d="M125.4,207.2c1.7-1.3,16.8-11.7,16.8-11.7h-17L125.4,207.2z"/>
		<polygon fill="#E6E6E6" points="136.2,195.5 142.2,195.5 125.9,206.8 125.9,202.8 		"/>
		<path opacity="0.1" fill="#A67C52" d="M108,81.3l-1.3,2.9c0,0,0,0,0,0c1.9,0,3.3,1.8,2.9,3.6l-1.4,6.1l3.9-5.2l0.8-1
			C113,84.3,112.2,81.7,108,81.3z"/>
		<path fill="#FFFFFF" d="M81.7,44.2c0,15.4,15.6,25.2,24.5,34.1c4.4,4.4,6.8,10.3,6.8,16.5l-0.2,97.7c-0.1,7.9,4.9,14.5,12.7,14.3
			c0,0,0,0,0,0l-0.1-144.3c0-14-8.9-26.6-22.1-31.1c-2.1-0.7-4-1.1-5.7-1.1l-4.3,0c-0.9,0,0.8,0.7,0.8,1.6v0c0,0.5-0.2,0.9-0.5,1.2
			l-11.4,9.8C81.8,43.2,81.7,43.7,81.7,44.2z"/>
		<path fill="#E6E6E6" d="M114.8,191l0.1-97.7c0-6.2-2.3-12.1-6.7-16.5c-8.9-8.9-24.4-18.7-24.4-34.1v-0.9l-1.5,1.1
			c-0.4,0.3-0.6,0.8-0.6,1.3c0,15.4,15.6,25.2,24.5,34.1c4.4,4.4,6.8,10.3,6.8,16.5l-0.2,98.1c-0.1,7.9,4.9,14.6,12.7,14.6
			c0,0,0.3,0,0.3,0v-2.4C119.9,204.4,114.7,198.2,114.8,191z"/>
		<polygon opacity="0.1" fill="#A67C52" points="74.4,24.5 72.3,30.4 74.6,30.5 75.3,26.7 		"/>
		<path fill="#A67C52" d="M74.4,24.5l0.4,2.4c-1.7,1.7-0.7,3.9,1.1,4.6c1.2,0.5,3.2,0.2,3.9-1c-1,0.9-2.6,0.9-3.4,0.5
			c-1.6-0.6-1.9-2.6-0.6-3.9L75.4,25c3.3-0.3,7-1.1,9-3.9c0,0,0.5,0.1,0.8,0.8c0.1,0.2,0.3,0,0.4-0.1c-0.2-1.5-2.3-1.9-2.3-1.9
			s-0.3,0.1-0.1,0.3c0.4,0.2,0.6,0.2,0.7,0.5C82.5,23.8,74.4,24.5,74.4,24.5z"/>
		<path opacity="0.1" fill="#A67C52" d="M76.9,13.8c3.8-4.5,6.7-4,8.8-0.7C83.6,10.2,80.6,10.4,76.9,13.8z"/>
		<path opacity="0.1" fill="#A67C52" d="M73.6,14.2c-2.9-2.3-5.4-2.1-7.3,0.6C68.6,12.5,71.1,12.7,73.6,14.2z"/>
		<polygon fill="#F2F2F2" points="94.2,24.7 94.2,32.6 83.4,42.1 83.5,31.7 		"/>
		<polygon fill="#FFFFFF" points="94.2,24.7 81.8,31.7 83.5,31.7 		"/>
		<polygon fill="#E6E6E6" points="81.8,31.7 81.7,44.2 83.5,41.8 83.5,31.7 		"/>
		<polygon opacity="5.000000e-02" fill="#792323" points="101.8,88.4 102.4,86.8 101.4,86.7 101.5,88.4 101.5,88.4 101.5,89.2 
			103.3,88.2 		"/>
		<path fill="#A67C52" d="M78.7,12.6c-0.2,0.2-0.1,0.4,0.1,0.4c1.4-1.1,2.9-1.7,5.5-0.9c0.1,0,0.1-0.3-0.1-0.4
			C81.8,10.9,80.5,10.8,78.7,12.6z"/>
		<path fill="#A67C52" d="M71.9,13.2c0.3,0,0.2,0.4,0,0.4c-1.1-0.2-2.6-0.8-4.1,1c-0.1,0-0.2-0.1-0.1-0.2
			C69.6,12.6,70.1,12.9,71.9,13.2z"/>
		<g>
			<circle fill="#A67C52" cx="81.3" cy="12.8" r="1.2"/>
			<circle fill="#F6C785" cx="81.7" cy="12.3" r="0.4"/>
			<circle fill="#736357" cx="81.3" cy="12.8" r="0.6"/>
		</g>
		<g>
			<circle fill="#A67C52" cx="69.8" cy="14.3" r="1"/>
			<circle fill="#F6C785" cx="70.3" cy="13.9" r="0.4"/>
			<circle fill="#736357" cx="70" cy="14.3" r="0.5"/>
		</g>
		<path fill="#736357" d="M77.2,1.7c0,0-0.3,5.1-0.3,5s9,2.6,9,2.6l0.3-2.7L77.2,1.7z"/>
		<g>
			<g>
				<path fill="#F6C785" d="M40.5,44.2c0,0,10.2,10.5,20.1,14.1c4.2,2.3,13,14.4,14.1,17.6c0.9,3.1-4.2,8.4-7.6,14.3
					c-2.6,4.4-1.9,8.9-3.7,10.2c-7.5,3-13-10.4-9.2-18.3l-1.6-0.3c-0.6,4.6-1.5,8.1-10.3,11.9c0.2,3.4-3.1,6.4-8.8,6.3
					c-0.1,1.9-3.1,3.6-5.7,2.9c-2.7,4.5-9.6,3.1-12.7,0.4c-3-3-9.2-8.6-5.9-17.9l-1-2.1c-1.4-4.3,0.5-10,4.1-13.7c0,0-2-6,1.9-10.2
					s11-7.9,11-7.9C25.7,46.2,31.5,40.8,40.5,44.2z"/>
				<path opacity="0.1" fill="#A67C52" d="M9.2,85.3c5.5,14.5,14.9,16,18.6,17.5c-0.5,0.8-1.1,1.7-2.5,2.2c-6.2-1.7-13-3.9-16.9-17
					C8.6,86.9,8.9,86,9.2,85.3z"/>
				<path opacity="0.1" fill="#A67C52" d="M26.9,85.2c6.7-2.2,12.1-4.5,16.3-8.2C34,80.8,25,84.3,23.4,83.9c0-0.8,0.1-1.6,0.4-2.4
					c4.4-11.9,1.6-31.8,1.4-30.2L20,54.5c-0.2,1.6,1.2,5.9,3.6,12.2c-0.1,5.5-0.7,11.3-2.1,15.1c-0.3,0.8-0.4,1.6-0.4,2.4
					c0.1,2.5,0.7,4.6,1.8,6.3c-1.6-2-3.1-4.4-4.6-7.4c-2.2-4.9-6-13.7-6-13.7c-1.8,2-2.9,3.9-3.9,6.7c8.7,18.1,15.2,21.3,20.9,22
					c2.8,1.7,4.3,1.8,4.3,1.8s-5.2-2.6-7.4-5.9c4.7,3.3,11.5,3.4,16,1l0.1-1.4c-8.7,3.2-14.4-0.1-16.9-3.8
					C24.2,88.1,25,85.8,26.9,85.2z"/>
			</g>
			<path opacity="0.1" fill="#A67C52" d="M32.1,66.5c9-1.6,11.1,10.5,11.1,10.5S43.2,64.5,32.1,66.5z"/>
			<path opacity="0.5" fill="#FCCC92" d="M32.1,66.5c-3.5,1.1-5.5,4.6-5.5,4.6l-3.1,12.8c3.1-0.2,11.7-3.7,19.7-6.9
				C43.2,76.9,40.8,64.6,32.1,66.5z"/>
			<path opacity="0.1" fill="#A67C52" d="M54.7,70.8c-0.1-0.3-0.8-4.8-2.7-3.6l0-0.2l-4.2-9.5h0c-0.7-1-1.4-2.1-2-1.5
				c-1.2,2.1,3.9,8,6.9,25.5l1.6,0.4c0,0,1.2-2.6,3.6-4.6c2.7-1.7,4.8-1,5.9-1.5c1.5-0.6,1.4-1.1,0-1.3c-2.1-0.9-6.4,2.6-7.2,0.8
				C55.7,73.8,55,71.8,54.7,70.8z"/>
		</g>
		<path fill="#A12E2F" d="M70.6,158.5c0,2.8-1.4,5-3.2,4.9c-1.8-0.1-3.3-2.4-3.3-5.2c0-2.8,1.4-5,3.2-4.9
			C69,153.3,70.5,155.7,70.6,158.5z"/>
		<g>
			<g>
				<path fill="#511718" d="M68.7,157.9C68.6,157.9,68.6,157.9,68.7,157.9l-3.1-0.1c-0.2,0-0.4-0.2-0.4-0.4c0-0.2,0.1-0.4,0.3-0.4
					l3,0.1c0.2,0,0.4,0.2,0.4,0.4C68.9,157.7,68.8,157.9,68.7,157.9z"/>
			</g>
			<g>
				<path fill="#511718" d="M68.9,159.5C68.9,159.5,68.9,159.5,68.9,159.5l-3.4-0.1c-0.2,0-0.4-0.2-0.4-0.4c0-0.2,0.1-0.4,0.3-0.4
					l3.3,0.1c0.2,0,0.4,0.2,0.4,0.4C69.2,159.4,69.1,159.5,68.9,159.5z"/>
			</g>
		</g>
		<path fill="#A12E2F" d="M64,205.2c0.6,0.4,1.2,1,2,2c1,1.3-0.2,3.8-1.7,1.9c-0.9-1.3-1.8-2-2.5-2.4L64,205.2z"/>
		<path fill="#A12E2F" d="M57.2,209.3c0.4,0.2,2.1,0.9,3.2,2.3c1.4,1.6,2.2-0.6,1.6-1.5c-0.9-1.2-2-1.8-2.7-2.1
			C59,208.2,57.1,209.3,57.2,209.3z"/>
		
			<ellipse transform="matrix(0.9809 -0.1943 0.1943 0.9809 -2.6807 17.8506)" fill="#792323" cx="89.7" cy="22.6" rx="1.1" ry="2.7"/>
		<path fill="#F6C785" d="M89.5,20.5c3.2-1.4,4.6,3.4,1.2,4C88.9,24.6,88.4,21.3,89.5,20.5z"/>
		<polygon fill="#631212" points="64.8,105.2 83.1,121.3 64.3,107.7 		"/>
		<polygon opacity="0.2" fill="#792323" points="86.5,121.4 102.1,104.8 102.9,107.4 		"/>
		<path opacity="5.000000e-02" fill="#792323" d="M99.4,96.9c0,0-0.2,0.9,0,1.4c0.3,0.5,2,1.5,2,1.5c0,0.9,0.3,1.6,1.5,2l-0.5,1
			c-0.2,1.2,0.7,1.1,1.7,0.8c-0.6,0.4-1.3,0.8-2,1.2c-0.8-0.3-0.9-0.8-0.6-1.4l-1,0.2c-1.1-0.7-1-1.8-0.9-2.1
			c-2.4,0.3-2.1-1.5-2.1-1.5c-1.3,0.1-2.4-0.1-2.8-1.1l-0.1-0.7l1-2.4C96.2,97.6,97.5,97.8,99.4,96.9z"/>
		<path opacity="0.1" fill="#A67C52" d="M88.9,22.6c1.1,0.9,2.9,0.7,3.8,0c0,0,0.1,1.7-1.9,2C89.4,24.7,88.9,22.6,88.9,22.6z"/>
		<path opacity="0.5" fill="#FCCC92" d="M72.2,18c-0.3,0.2-0.5,0.4-0.6,0.7c0,0,0,0,0,0c1.2-1.2,3.5-1.5,6.3-1.2
			C75.3,17.1,73.5,17.1,72.2,18z"/>
	</g>
</g>
</svg>
