<?xml version="1.0" encoding="utf-8"?>
<!-- Generator: Adobe Illustrator 17.0.0, SVG Export Plug-In . SVG Version: 6.00 Build 0)  -->
<!DOCTYPE svg PUBLIC "-//W3C//DTD SVG 1.1//EN" "http://www.w3.org/Graphics/SVG/1.1/DTD/svg11.dtd">
<svg version="1.1" id="Capa_1" xmlns="http://www.w3.org/2000/svg" xmlns:xlink="http://www.w3.org/1999/xlink" x="0px" y="0px"
	 width="172.354px" height="31.739px" viewBox="0 0 172.354 31.739" enable-background="new 0 0 172.354 31.739"
	 xml:space="preserve">
<g>
	<g>
		<path fill="#B4A797" d="M172.354,12.271c0,0.639-0.233,1.187-0.697,1.654c-0.466,0.464-1.021,0.697-1.669,0.697
			c-0.633,0-1.183-0.233-1.647-0.697c-0.464-0.467-0.7-1.014-0.7-1.654c0-0.658,0.233-1.214,0.686-1.675
			c0.461-0.457,1.014-0.688,1.661-0.688c0.648,0,1.204,0.235,1.669,0.698C172.121,11.072,172.354,11.627,172.354,12.271z
			 M172.354,21.767c0,0.645-0.233,1.203-0.697,1.664c-0.466,0.466-1.021,0.698-1.669,0.698c-0.647,0-1.2-0.233-1.661-0.698
			c-0.454-0.461-0.686-1.019-0.686-1.664c0-0.652,0.233-1.2,0.686-1.663c0.461-0.459,1.014-0.683,1.661-0.683
			c0.66,0,1.221,0.224,1.68,0.683C172.125,20.567,172.354,21.115,172.354,21.767z"/>
	</g>
	<g>
		<g>
			<path fill="#B4A797" d="M16.972,11.702c-1.157,0.845-2.025,1.256-2.601,1.233c-0.514-0.045-0.914-0.322-1.2-0.833
				c-0.2-0.335-0.3-0.59-0.3-0.768c0-0.333,0.231-0.567,0.7-0.7c1.8-0.577,3.044-1.61,3.732-3.1
				c0.423-0.866,0.635-1.644,0.635-2.333c0-0.978-0.423-1.468-1.266-1.468c-1.314,0-3.135,1.48-5.469,4.436
				c-1.09,1.401-2.03,2.755-2.818,4.066c-0.788,1.313-1.44,2.601-1.95,3.868c-0.421,1.066-0.773,1.956-1.049,2.667
				c-0.279,0.712-0.473,1.256-0.585,1.633c-0.533,1.668-0.8,3.158-0.8,4.469c0,1.468,0.443,2.479,1.333,3.034
				c0.222,0.155,0.5,0.235,0.835,0.235c0.933,0,2.111-0.58,3.534-1.734c1.288-1.045,2.211-2.046,2.768-3.001
				c0.466-0.778,0.831-1.166,1.1-1.166c0.266,0,0.516,0.166,0.749,0.5c0.235,0.333,0.352,0.645,0.352,0.933
				c0,0.333-0.114,0.645-0.335,0.933c-3.134,4.379-6.157,6.569-9.068,6.569c-0.935,0-1.846-0.257-2.736-0.768
				C0.845,29.383,0,27.517,0,24.804c0-2.622,0.723-5.5,2.168-8.636c2.446-5.222,5.302-9.235,8.568-12.036
				c2.178-1.843,4.279-2.766,6.302-2.766c1.133,0,2.011,0.378,2.633,1.133c0.623,0.756,0.933,1.712,0.933,2.868
				c0,1.045-0.245,2.056-0.733,3.034C19.271,9.646,18.304,10.746,16.972,11.702z"/>
			<path fill="#B4A797" d="M35.609,22.171c-0.935,0.933-2.023,1.5-3.266,1.7c-0.269,0.045-0.545,0.078-0.835,0.1
				c-0.29,0.023-0.59,0.033-0.9,0.033c-1.556,0-2.618-0.206-3.184-0.616c-0.568-0.412-0.85-0.95-0.85-1.617
				c0-0.31,0.088-0.8,0.267-1.468c0.021-0.088,0.021-0.155,0-0.2c-0.045-0.021-0.107,0-0.185,0.068
				c-0.078,0.067-0.14,0.145-0.183,0.233c-0.333,0.668-0.933,1.39-1.801,2.168c-1.245,1.112-2.433,1.667-3.568,1.667
				c-1.088,0-1.933-0.368-2.533-1.1c-0.623-0.69-0.933-1.59-0.933-2.701c0-1.445,0.445-3.011,1.333-4.701
				c0.888-1.711,2.133-3.011,3.734-3.901c1.2-0.667,2.411-1.011,3.636-1.033c0.911-0.023,1.744,0.166,2.501,0.566
				c0.355,0.2,0.6,0.179,0.733-0.066c0.155-0.245,0.288-0.423,0.398-0.535c0.179-0.178,0.355-0.299,0.535-0.366
				c0.221-0.068,0.645-0.033,1.266,0.1c0.624,0.11,1.012,0.233,1.169,0.366c0.221,0.245,0.255,0.58,0.1,1
				c-0.314,0.667-0.935,2.046-1.869,4.135c-0.355,0.823-0.649,1.551-0.883,2.184c-0.233,0.633-0.428,1.183-0.583,1.65
				c-0.155,0.466-0.233,0.855-0.233,1.166c0,0.29,0.078,0.513,0.233,0.668c0.355,0.355,1.1,0.533,2.235,0.533
				c0.421,0,0.966-0.2,1.631-0.6c0.38-0.221,0.724-0.46,1.035-0.715c0.31-0.255,0.578-0.54,0.8-0.851c0.11-0.135,0.2-0.1,0.266,0.1
				c0.155,0.378,0.212,0.811,0.167,1.3C35.797,21.815,35.719,22.06,35.609,22.171z M28.407,13.868c0-0.378-0.377-0.578-1.133-0.6
				c-0.668-0.043-1.478,0.235-2.434,0.834c-0.912,0.6-1.645,1.323-2.2,2.166c-1,1.58-1.501,2.913-1.501,4.001
				c0,1.045,0.4,1.568,1.2,1.568c0.421,0,0.921-0.29,1.501-0.867c0.11-0.11,0.283-0.306,0.517-0.583
				c0.231-0.278,0.538-0.64,0.916-1.083c1.023-1.245,2.056-2.991,3.101-5.237C28.396,14.025,28.407,13.957,28.407,13.868z"/>
			<path fill="#B4A797" d="M44.31,22.171c-0.933,0.933-2.023,1.5-3.268,1.7c-0.711,0.133-1.376,0.2-2.001,0.2
				c-1,0-1.832-0.155-2.499-0.467c-0.89-0.488-1.333-1.321-1.333-2.501c0-0.155,0.005-0.333,0.016-0.533
				c0.012-0.2,0.029-0.433,0.05-0.7c0.179-1.778,0.778-4.467,1.8-8.068c0.823-2.889,1.59-5.234,2.301-7.035
				c0.755-2,1.821-2.946,3.201-2.835c0.466,0.045,0.85,0.262,1.15,0.65c0.3,0.39,0.45,0.885,0.45,1.485c0,0.378-0.067,0.778-0.2,1.2
				c-0.467,1.378-1.235,2.778-2.301,4.202c-0.135,0.177-0.366,0.643-0.7,1.398c-1.245,3.735-2.111,6.702-2.601,8.903
				c-0.155,0.622-0.235,1.056-0.235,1.301c0,0.29,0.079,0.512,0.235,0.667c0.31,0.31,1.066,0.466,2.266,0.466
				c0.424,0,0.969-0.2,1.635-0.6c0.378-0.221,0.721-0.46,1.033-0.715c0.312-0.255,0.578-0.54,0.8-0.851
				c0.112-0.135,0.2-0.1,0.267,0.1c0.155,0.378,0.21,0.811,0.166,1.3C44.498,21.815,44.422,22.06,44.31,22.171z"/>
			<path fill="#B4A797" d="M53.011,22.171c-0.931,0.933-2.021,1.5-3.266,1.7c-0.711,0.133-1.378,0.2-2.001,0.2
				c-1,0-1.833-0.155-2.501-0.467c-0.89-0.488-1.333-1.321-1.333-2.501c0-0.155,0.005-0.333,0.016-0.533
				c0.014-0.2,0.029-0.433,0.052-0.7c0.178-1.778,0.776-4.467,1.8-8.068c0.821-2.889,1.589-5.234,2.301-7.035
				c0.755-2,1.821-2.946,3.201-2.835c0.466,0.045,0.849,0.262,1.149,0.65c0.3,0.39,0.452,0.885,0.452,1.485
				c0,0.378-0.069,0.778-0.2,1.2c-0.469,1.378-1.235,2.778-2.301,4.202c-0.135,0.177-0.367,0.643-0.7,1.398
				c-1.245,3.735-2.113,6.702-2.601,8.903c-0.157,0.622-0.235,1.056-0.235,1.301c0,0.29,0.078,0.512,0.235,0.667
				c0.31,0.31,1.066,0.466,2.266,0.466c0.422,0,0.967-0.2,1.635-0.6c0.376-0.221,0.721-0.46,1.031-0.715
				c0.312-0.255,0.58-0.54,0.8-0.851c0.112-0.135,0.2-0.1,0.269,0.1c0.155,0.378,0.21,0.811,0.166,1.3
				C53.2,21.815,53.123,22.06,53.011,22.171z"/>
		</g>
		<g>
			<path fill="#B4A797" d="M83.047,19.104c-0.731,0-1.345-0.1-1.832-0.3c-0.2-0.09-0.369-0.112-0.5-0.067
				c-0.069,0.022-0.155,0.199-0.269,0.533c-0.555,2.133-1.421,4.091-2.601,5.869c-1.511,2.266-3.077,3.399-4.698,3.399
				c-1.245,0-2.18-0.511-2.801-1.533c-0.469-0.823-0.7-1.901-0.7-3.234c0-2.733,0.9-6.202,2.701-10.403
				c1.666-3.844,3.887-6.856,6.668-9.036c2.487-2,4.933-2.966,7.333-2.899c1.98,0.043,3.47,0.733,4.47,2.066
				c0.821,1.09,1.231,2.545,1.231,4.369c0,2.001-0.545,4.044-1.632,6.135c-1.18,2.266-2.59,3.746-4.236,4.433
				C85.161,18.881,84.116,19.104,83.047,19.104z M87.931,9.034c0.035-0.378,0.052-0.755,0.052-1.133
				c0-2.511-0.824-3.789-2.466-3.834c-2.045-0.022-4.356,1.623-6.936,4.934c-2.132,2.778-3.577,5.402-4.332,7.868
				c-1.025,3.401-1.535,5.614-1.535,6.635c0,0.912,0.29,1.367,0.866,1.367c1.09,0,2.301-2.368,3.636-7.102
				c0.355-1.356,0.721-3.621,1.1-6.802c0.045-0.378,0.228-0.666,0.549-0.866c0.324-0.2,0.638-0.4,0.952-0.6
				c0.421-0.333,0.821-0.5,1.2-0.5c0.421,0,0.655,0.255,0.7,0.767c0.045,0.6,0.038,1.394-0.017,2.384
				c-0.055,0.989-0.173,2.184-0.352,3.584c-0.065,0.445,0.055,0.69,0.369,0.733c1.511,0.112,2.856-0.577,4.032-2.066
				c1.025-1.223,1.69-2.635,2.001-4.235C87.838,9.791,87.9,9.414,87.931,9.034z"/>
			<path fill="#B4A797" d="M108.22,22.171c-0.935,0.933-2.021,1.5-3.266,1.7c-0.269,0.045-0.545,0.078-0.835,0.1
				c-0.29,0.023-0.59,0.033-0.9,0.033c-1.556,0-2.618-0.206-3.184-0.616c-0.566-0.412-0.849-0.95-0.849-1.617
				c0-0.31,0.086-0.8,0.266-1.468c0.021-0.088,0.021-0.155,0-0.2c-0.045-0.021-0.107,0-0.183,0.068
				c-0.079,0.067-0.141,0.145-0.183,0.233c-0.335,0.668-0.935,1.39-1.801,2.168c-1.245,1.112-2.435,1.667-3.57,1.667
				c-1.086,0-1.931-0.368-2.532-1.1c-0.624-0.69-0.935-1.59-0.935-2.701c0-1.445,0.445-3.011,1.335-4.701
				c0.887-1.711,2.131-3.011,3.732-3.901c1.2-0.667,2.411-1.011,3.636-1.033c0.911-0.023,1.745,0.166,2.501,0.566
				c0.355,0.2,0.6,0.179,0.734-0.066c0.155-0.245,0.286-0.423,0.397-0.535c0.179-0.178,0.355-0.299,0.535-0.366
				c0.221-0.068,0.645-0.033,1.266,0.1c0.624,0.11,1.014,0.233,1.169,0.366c0.221,0.245,0.255,0.58,0.1,1
				c-0.314,0.667-0.935,2.046-1.869,4.135c-0.355,0.823-0.649,1.551-0.883,2.184c-0.231,0.633-0.428,1.183-0.583,1.65
				c-0.155,0.466-0.231,0.855-0.231,1.166c0,0.29,0.076,0.513,0.231,0.668c0.355,0.355,1.1,0.533,2.235,0.533
				c0.421,0,0.966-0.2,1.631-0.6c0.379-0.221,0.724-0.46,1.035-0.715c0.31-0.255,0.58-0.54,0.8-0.851c0.11-0.135,0.2-0.1,0.266,0.1
				c0.155,0.378,0.214,0.811,0.169,1.3C108.41,21.815,108.33,22.06,108.22,22.171z M101.018,13.868c0-0.378-0.376-0.578-1.131-0.6
				c-0.669-0.043-1.48,0.235-2.435,0.834c-0.91,0.6-1.645,1.323-2.2,2.166c-1,1.58-1.501,2.913-1.501,4.001
				c0,1.045,0.4,1.568,1.2,1.568c0.421,0,0.921-0.29,1.501-0.867c0.11-0.11,0.283-0.306,0.517-0.583
				c0.231-0.278,0.538-0.64,0.918-1.083c1.021-1.245,2.056-2.991,3.101-5.237C101.008,14.025,101.018,13.957,101.018,13.868z"/>
			<path fill="#B4A797" d="M124.29,22.171c-0.931,0.933-2.021,1.5-3.266,1.7c-0.51,0.11-1,0.183-1.466,0.217
				c-0.469,0.033-0.9,0.038-1.3,0.016c-1.445-0.066-2.446-0.2-3.001-0.4c-0.2-0.088-0.39-0.11-0.569-0.066
				c-0.245,0.088-0.555,0.166-0.931,0.233c-0.379,0.068-0.824,0.145-1.335,0.233c0.065,0-0.079-0.016-0.435-0.05
				c-0.355-0.032-0.921-0.095-1.701-0.183c-0.176-0.022-0.32,0.033-0.431,0.168c-0.314,1.066-0.624,2.156-0.935,3.266
				c-0.31,1.113-0.635,2.268-0.966,3.469c-0.179,0.421-0.49,0.678-0.935,0.766c-1.045,0.267-1.811,0.267-2.301,0
				c-0.4-0.2-0.531-0.488-0.4-0.866c0.355-0.935,0.824-2.328,1.4-4.184c0.58-1.857,1.29-4.186,2.135-6.987
				c0.445-1.665,0.904-3.349,1.383-5.049c0.476-1.701,0.972-3.429,1.483-5.184c0.155-0.335,0.39-0.568,0.7-0.7
				c0.135-0.045,0.466-0.09,1-0.135c0.555,0,0.921,0.045,1.1,0.135c0.49,0.222,0.634,0.577,0.434,1.066
				c-0.089,0.244-0.241,0.712-0.452,1.4c-0.21,0.69-0.473,1.623-0.783,2.801c-0.045,0.177-0.045,0.278,0,0.3
				c0.045,0.045,0.1,0.022,0.166-0.068c1.914-2.244,3.556-3.366,4.936-3.366c0.51,0,0.99,0.11,1.435,0.333
				c1.311,0.645,1.966,1.634,1.966,2.969c0,0.4-0.065,1.11-0.2,2.133c-0.11,0.912-0.611,2.046-1.501,3.401
				c-0.624,0.933-1.124,1.589-1.5,1.966c-0.266,0.268-0.3,0.435-0.1,0.5c0.666,0.268,1.59,0.323,2.766,0.168
				c0.445-0.068,0.99-0.268,1.635-0.6c0.776-0.445,1.366-0.956,1.766-1.534c0.11-0.135,0.2-0.1,0.266,0.1
				c0.155,0.378,0.214,0.811,0.169,1.3C124.48,21.815,124.4,22.06,124.29,22.171z M117.706,13.886
				c-0.279-0.3-0.628-0.451-1.049-0.451c-0.29,0-0.59,0.09-0.9,0.268c-0.645,0.377-1.59,1.5-2.835,3.366
				c-1.18,1.801-1.88,3.068-2.101,3.801c-0.045,0.177-0.01,0.277,0.1,0.3c0.11,0.022,0.266-0.006,0.466-0.083
				c0.2-0.078,0.5-0.117,0.9-0.117c1.045,0,1.856,0.167,2.435,0.5c0.09,0.045,0.279-0.1,0.566-0.433c0.69-0.8,1.325-1.801,1.901-3
				c0.58-1.2,0.88-2.179,0.9-2.934C118.113,14.591,117.985,14.185,117.706,13.886z"/>
			<path fill="#B4A797" d="M137.159,22.171c-0.935,0.933-2.021,1.512-3.266,1.733c-0.98,0.2-2.08,0.3-3.301,0.3
				c-2.556,0-4.356-0.421-5.402-1.266c-1.2-1-1.801-2.378-1.801-4.134c0-1.535,0.445-3.178,1.335-4.936
				c0.642-1.266,1.542-2.211,2.698-2.834c0.955-0.533,1.945-0.8,2.97-0.8c0.576,0,1.031,0.078,1.366,0.235
				c1.29,0.555,1.935,1.634,1.935,3.234c0,0.355-0.034,0.733-0.1,1.133c-0.179,1.067-0.98,2.368-2.401,3.901
				c-0.445,0.488-0.883,0.927-1.318,1.316c-0.435,0.39-0.862,0.74-1.283,1.05c-0.114,0.112-0.169,0.179-0.169,0.2
				c0,0.09,0.135,0.2,0.4,0.335c0.98,0.555,2.525,0.733,4.636,0.533c1.38-0.133,2.546-0.845,3.501-2.134
				c0.11-0.135,0.2-0.1,0.266,0.1c0.155,0.378,0.21,0.811,0.169,1.3C137.349,21.815,137.27,22.06,137.159,22.171z M129.14,13.452
				c-0.545,0.41-0.973,0.951-1.283,1.616c-0.71,1.49-1.066,2.735-1.066,3.736c0,0.711,0.221,0.911,0.665,0.6
				c1.49-0.935,2.622-2.068,3.401-3.401c0.489-0.822,0.734-1.501,0.734-2.035c0-0.755-0.324-1.134-0.969-1.134
				C130.178,12.835,129.685,13.04,129.14,13.452z"/>
			<path fill="#B4A797" d="M150.964,22.171c-0.98,0.978-2.066,1.545-3.266,1.7c-2.025,0.333-3.518,0.278-4.484-0.167
				c-0.969-0.444-1.452-1.111-1.452-2.001c0-0.221,0.034-0.488,0.1-0.8c0.11-0.51,0.252-1.043,0.417-1.598
				c0.166-0.555,0.373-1.156,0.617-1.801c0.355-1,0.621-1.645,0.8-1.935c0.155-0.266,0.155-0.566,0-0.9
				c-0.155-0.31-0.6-0.665-1.335-1.065c-0.179-0.112-0.321-0.012-0.435,0.3c-0.555,1.378-0.976,2.416-1.266,3.116
				c-0.29,0.7-0.445,1.073-0.466,1.118c-0.935,1.845-2.1,3.345-3.501,4.501c-0.869,0.666-1.79,1.078-2.77,1.233
				c-0.131,0.045-0.231-0.022-0.3-0.2c-0.155-0.333-0.231-0.7-0.231-1.1c0-0.2,0.045-0.31,0.131-0.333
				c0.8-0.177,1.445-0.445,1.935-0.8c0.355-0.267,0.855-0.767,1.5-1.501c0.445-0.555,1-1.51,1.666-2.868
				c0.735-1.488,1.3-2.956,1.7-4.401c0.024-0.088,0.041-0.15,0.052-0.183c0.01-0.033,0.017-0.061,0.017-0.083
				c-0.024-0.135-0.1-0.335-0.235-0.6c-0.135-0.268-0.2-0.545-0.2-0.835c0-0.088,0.007-0.188,0.017-0.3
				c0.01-0.11,0.028-0.221,0.048-0.333c0.245-1.265,0.88-1.888,1.901-1.866c0.869,0.022,1.345,0.566,1.435,1.633
				c0.021,0.2-0.034,0.488-0.166,0.866c-0.045,0.135-0.045,0.235,0,0.3c0.045,0.067,0.145,0.139,0.3,0.217
				c0.155,0.077,0.366,0.177,0.631,0.3c0.269,0.122,0.6,0.295,1,0.517c0.8,0.445,1.335,0.778,1.601,1
				c0.445,0.377,0.624,0.855,0.535,1.433c-0.066,0.355-0.455,1.401-1.166,3.134c-0.355,0.845-0.628,1.528-0.818,2.05
				c-0.19,0.523-0.307,0.883-0.352,1.083c-0.131,0.645,0.124,1.035,0.769,1.168c0.266,0.067,0.8,0.077,1.601,0.032
				c0.421-0.021,0.966-0.221,1.631-0.6c0.8-0.443,1.414-0.966,1.835-1.566c0.11-0.135,0.2-0.1,0.266,0.1
				c0.155,0.378,0.21,0.811,0.169,1.3C151.153,21.815,151.074,22.06,150.964,22.171z"/>
			<path fill="#B4A797" d="M164.764,22.171c-0.931,0.933-2.021,1.5-3.266,1.7c-0.645,0.11-1.376,0.145-2.201,0.1
				c-0.955-0.067-1.576-0.2-1.866-0.4c-0.11-0.067-0.245-0.077-0.4-0.032c-0.535,0.2-0.811,0.31-0.835,0.333
				c-0.4,0.088-0.987,0.155-1.766,0.2c-1.621,0.088-2.89-0.333-3.801-1.267c-0.135-0.11-0.245-0.121-0.335-0.033
				c-0.666,0.533-1.511,0.9-2.532,1.1c-0.2,0-0.311-0.067-0.335-0.2c-0.155-0.333-0.235-0.7-0.235-1.1
				c0-0.223,0.045-0.345,0.135-0.368c1.155-0.2,2.29-0.921,3.401-2.166c0.31-0.355,0.69-0.828,1.135-1.417
				c0.445-0.588,0.956-1.294,1.531-2.117c1.29-1.823,2.035-3.035,2.235-3.635c0.021-0.155-0.028-0.371-0.152-0.651
				c-0.121-0.277-0.183-0.56-0.183-0.85c0-0.088,0.007-0.183,0.017-0.283c0.01-0.1,0.028-0.206,0.052-0.317
				c0.11-0.555,0.466-1.011,1.066-1.366c0.645-0.4,1.245-0.588,1.8-0.567c1.09,0.045,1.621,0.48,1.601,1.3
				c-0.045,0.29-0.19,0.668-0.435,1.134c-0.155,0.312-0.276,0.562-0.366,0.75c-0.09,0.19-0.155,0.33-0.2,0.417
				c-0.11,0.313-0.11,0.513,0,0.6c0.221,0.178,0.435,0.423,0.635,0.733c0.2,0.312,0.41,0.69,0.631,1.134
				c0.555,1.089,0.811,2.211,0.769,3.367c-0.024,0.312-0.086,0.65-0.186,1.018c-0.1,0.366-0.259,0.76-0.483,1.183
				c-0.331,0.6-0.6,1-0.8,1.201c-0.155,0.155-0.145,0.295,0.035,0.417c0.176,0.122,0.735,0.16,1.666,0.115
				c0.424-0.021,0.969-0.221,1.635-0.6c0.8-0.443,1.411-0.966,1.832-1.566c0.114-0.135,0.2-0.1,0.269,0.1
				c0.155,0.378,0.21,0.811,0.166,1.3C164.954,21.815,164.878,22.06,164.764,22.171z M157.296,17.737
				c0-0.823-0.121-1.501-0.365-2.034c-0.066-0.155-0.155-0.212-0.266-0.167c-0.114,0-0.2,0.077-0.269,0.233
				c-0.09,0.2-0.611,0.935-1.566,2.201c-0.845,1.067-1.411,1.768-1.7,2.101c-0.11,0.155-0.166,0.267-0.166,0.333
				c0,0.135,0.131,0.245,0.4,0.335c0.376,0.178,0.631,0.555,0.766,1.134c0.045,0.177,0.279,0.2,0.7,0.067
				c1.066-0.355,1.811-1.212,2.235-2.568C157.22,18.904,157.296,18.359,157.296,17.737z"/>
		</g>
	</g>
	<circle fill="#372F2C" cx="62.945" cy="14.982" r="14.983"/>
	<circle fill="#E2E1D4" cx="62.944" cy="14.982" r="13.737"/>
	<g>
		<path fill="#372F2C" d="M58.486,8.803c-0.06-0.235-0.126-0.413-0.193-0.537c-0.067-0.122-0.145-0.228-0.231-0.314
			c-0.148-0.146-0.369-0.221-0.664-0.221c-0.309,0-0.561,0.099-0.759,0.295c-0.185,0.21-0.276,0.536-0.276,0.98v1.605h1.718v1.128
			h-1.718v6.778h1.718v1.128h-2.956v-0.831h-0.019V11.74h-1.347v-1.128h1.347V9.191c0-0.381,0.053-0.729,0.159-1.043
			c0.103-0.314,0.267-0.588,0.488-0.823c0.419-0.479,0.973-0.721,1.663-0.721c0.615,0,1.114,0.192,1.497,0.573
			c0.185,0.199,0.335,0.41,0.452,0.638c0.117,0.228,0.2,0.502,0.25,0.823L58.486,8.803z"/>
		<path fill="#372F2C" d="M65.82,18.518c-0.849,0.924-1.921,1.387-3.213,1.387c-1.293,0-2.364-0.462-3.215-1.387
			c-0.862-0.898-1.293-2.025-1.293-3.381c0-1.354,0.431-2.48,1.293-3.38c0.85-0.923,1.921-1.385,3.215-1.385
			c1.292,0,2.365,0.462,3.213,1.385c0.862,0.9,1.293,2.026,1.293,3.38C67.113,16.493,66.682,17.619,65.82,18.518z M64.933,12.552
			c-0.604-0.677-1.38-1.016-2.327-1.016c-0.948,0-1.724,0.338-2.328,1.016c-0.604,0.678-0.906,1.541-0.906,2.585
			c0,1.047,0.302,1.91,0.906,2.587c0.604,0.678,1.38,1.016,2.328,1.016c0.947,0,1.723-0.338,2.327-1.016
			c0.604-0.678,0.906-1.54,0.906-2.587C65.839,14.093,65.537,13.23,64.933,12.552z"/>
		<path fill="#372F2C" d="M73.541,11.592c-1.218,0-2.118,0.253-2.695,0.757c-0.567,0.506-0.85,1.306-0.85,2.402v3.767h1.792v1.128
			h-3.047v-0.98V11.74h-1.663v-1.128h2.918v1.202c0.11-0.16,0.247-0.326,0.407-0.5c0.159-0.17,0.338-0.314,0.534-0.424
			c0.172-0.086,0.368-0.166,0.583-0.239c0.216-0.075,0.44-0.133,0.674-0.176c0.233-0.043,0.467-0.076,0.702-0.102
			c0.233-0.024,0.448-0.029,0.645-0.017l0.5,0.017v1.22H73.541z"/>
	</g>
</g>
</svg>
