<?xml version="1.0" encoding="utf-8"?>
<!-- Generator: Adobe Illustrator 18.0.0, SVG Export Plug-In . SVG Version: 6.00 Build 0)  -->
<!DOCTYPE svg PUBLIC "-//W3C//DTD SVG 1.0//EN" "http://www.w3.org/TR/2001/REC-SVG-20010904/DTD/svg10.dtd">
<svg version="1.0" id="Layer_1" xmlns="http://www.w3.org/2000/svg" xmlns:xlink="http://www.w3.org/1999/xlink" x="0px" y="0px"
	 viewBox="0 0 71.3 30" enable-background="new 0 0 71.3 30" xml:space="preserve">
<g>
	<g>
		<g>
			<rect x="22.4" y="26.4" fill="#A23030" width="0.8" height="3.6"/>
			<polygon fill="#A23030" points="31.4,29.9 31.4,27.1 30.3,27.1 30.3,26.4 33.3,26.4 33.3,27.1 32.2,27.1 32.2,29.9 			"/>
			<polygon fill="#A23030" points="35.2,29.9 35.2,26.4 37.6,26.4 37.6,27.1 36,27.1 36,27.8 37.4,27.8 37.4,28.5 36,28.5 36,29.2 
				37.7,29.2 37.7,29.9 			"/>
			<polygon fill="#A23030" points="55.8,29.9 55.8,27.1 54.7,27.1 54.7,26.4 57.7,26.4 57.7,27.1 56.6,27.1 56.6,29.9 			"/>
			<rect x="59.8" y="26.4" fill="#A23030" width="0.8" height="3.6"/>
			<polygon fill="#A23030" points="67.8,29.9 67.8,26.4 70.2,26.4 70.2,27.1 68.6,27.1 68.6,27.8 70,27.8 70,28.5 68.6,28.5 
				68.6,29.2 70.3,29.2 70.3,29.9 			"/>
			<path fill="#A23030" d="M51.2,30c-1,0-1.9-0.8-1.9-1.9c0-1,0.8-1.9,1.9-1.9c0.8,0,1.5,0.5,1.7,1.2l0,0.1h-0.8l0,0
				c-0.2-0.3-0.6-0.6-0.9-0.6c-0.6,0-1.1,0.5-1.1,1.1c0,0.6,0.5,1.1,1.1,1.1c0.4,0,0.8-0.2,0.9-0.6l0,0H53l0,0.1
				C52.7,29.5,52,30,51.2,30z"/>
			<polygon fill="#A23030" points="27.9,26.4 27.9,28.6 26.4,26.4 25.6,26.4 25.6,29.9 26.4,29.9 26.4,27.7 27.9,29.9 27.9,29.9 
				27.9,29.9 28.7,29.9 28.7,26.4 			"/>
			<path fill="#A23030" d="M41.6,29.9h1l-0.8-1.1c0.4-0.2,0.7-0.7,0.7-1.2c0-0.7-0.6-1.3-1.3-1.3l0,0h-1.4l0,0v3.6h0.8V29h0.2
				L41.6,29.9z M40.7,27.2h0.5l0,0c0.3,0,0.5,0.2,0.5,0.5c0,0.3-0.2,0.5-0.5,0.5l0,0h-0.5V27.2z"/>
			<path fill="#A23030" d="M46.9,29.9h0.9l-1.4-3.6h-0.7l-1.4,3.6h0.9l0.3-0.8h1.2L46.9,29.9z M45.7,28.3l0.3-0.7l0.3,0.7H45.7z"/>
			<polygon fill="#A23030" points="65.1,26.4 64.2,28.7 63.3,26.4 62.4,26.4 63.8,29.9 64.6,29.9 66,26.4 			"/>
		</g>
		<path fill="#A23030" d="M14.4,18.4c0.5,0.5,1,0.7,1.7,0.7c0.7,0,1.2-0.2,1.7-0.7c0.2-0.2,0.3-0.4,0.5-0.6h4.3
			c-0.2,1.4-0.8,2.6-1.9,3.6c-1.3,1.3-2.8,1.9-4.6,1.9c0,0,0,0,0,0c-0.1,0-0.1,0-0.2,0c-1.2,0-2.3-0.4-3.2-0.9
			c-0.4-0.3-0.8-0.6-1.2-1c-1.3-1.3-1.9-2.8-1.9-4.6c0-1.8,0.6-3.3,1.9-4.6c1.3-1.3,2.8-1.9,4.6-1.9c0,0,0,0,0,0c0,0,0,0,0,0
			c0.2,0,0.5,0,0.7,0c1.5,0.2,2.8,0.8,3.9,1.9c1,1,1.7,2.2,1.9,3.6h-4.3c-0.1-0.2-0.3-0.5-0.5-0.7c-0.4-0.5-1-0.7-1.7-0.7
			c-0.7,0-1.2,0.2-1.7,0.7c-0.4,0.5-0.7,1-0.7,1.7C13.7,17.4,13.9,17.9,14.4,18.4z"/>
		<g>
			<g>
				<path fill="#A23030" d="M1.8,15.1c0.5,0.3,1,0.2,1.4-0.3c0.3-0.4,0.2-1-0.3-1.4c-0.5-0.3-1-0.2-1.4,0.3
					C1.2,14.2,1.3,14.8,1.8,15.1z"/>
				<path fill="#A23030" d="M4.9,9.7C4.7,9.6,4.4,9.6,4.3,9.8c-0.1,0.2-0.1,0.5,0.1,0.6c0.2,0.1,0.5,0.1,0.6-0.1
					C5.1,10.1,5.1,9.9,4.9,9.7z"/>
				<path fill="#A23030" d="M2.6,10.8c0.3,0.2,0.7,0.1,0.8-0.2c0.2-0.3,0.1-0.7-0.2-0.8C3,9.6,2.6,9.7,2.4,10
					C2.2,10.2,2.3,10.6,2.6,10.8z"/>
				<path fill="#A23030" d="M3.2,8.4c0.6,0.4,1.3,0.2,1.7-0.3C5.2,7.5,5,6.8,4.5,6.4C3.9,6,3.2,6.2,2.8,6.8S2.6,8.1,3.2,8.4z"/>
				<path fill="#A23030" d="M5.9,7C6.3,7.2,6.8,7.2,7,6.8S7.1,6,6.8,5.7C6.4,5.5,5.9,5.6,5.7,5.9C5.5,6.3,5.6,6.8,5.9,7z"/>
				<path fill="#A23030" d="M7.2,4.1C7.5,4.3,7.8,4.2,8,4c0.2-0.3,0.1-0.6-0.2-0.8C7.6,3,7.2,3.1,7.1,3.3C6.9,3.6,7,4,7.2,4.1z"/>
				<path fill="#A23030" d="M9.9,5.4c0.4,0.3,1,0.2,1.2-0.3c0.3-0.4,0.2-1-0.3-1.2c-0.4-0.3-1-0.2-1.2,0.3C9.3,4.5,9.4,5.1,9.9,5.4z
					"/>
				<path fill="#A23030" d="M9.9,1.4c0.4,0.2,0.8,0.1,1.1-0.2c0.2-0.4,0.1-0.8-0.2-1.1S9.9,0,9.7,0.4C9.4,0.7,9.5,1.2,9.9,1.4z"/>
				<path fill="#A23030" d="M13.2,2.6c0.5,0.3,1.2,0.2,1.6-0.3C15,1.9,15,1.3,14.7,1c0.1,0,0.3-0.1,0.3-0.2c0.1-0.2,0.1-0.5-0.1-0.6
					c-0.2-0.1-0.5-0.1-0.6,0.1c-0.1,0.1-0.1,0.2-0.1,0.3c-0.5-0.2-1.1,0-1.4,0.4C12.5,1.6,12.6,2.3,13.2,2.6z"/>
				<path fill="#A23030" d="M16.1,4.5c0.4,0.3,1,0.2,1.2-0.3c0.3-0.4,0.2-1-0.3-1.2c-0.4-0.3-1-0.2-1.2,0.3
					C15.6,3.7,15.7,4.2,16.1,4.5z"/>
				<path fill="#A23030" d="M17.7,1.6c0.4,0.3,1,0.2,1.2-0.3c0.3-0.4,0.2-1-0.3-1.2c-0.4-0.3-1-0.2-1.2,0.3
					C17.2,0.8,17.3,1.4,17.7,1.6z"/>
				<path fill="#A23030" d="M19.7,3c0.3,0.2,0.6,0.1,0.8-0.2s0.1-0.6-0.2-0.8c-0.3-0.2-0.6-0.1-0.8,0.2C19.4,2.5,19.4,2.8,19.7,3z"
					/>
				<path fill="#A23030" d="M23.6,7c-0.4-0.2-0.8-0.1-1.1,0.2S22.4,8,22.7,8.3c0.4,0.2,0.8,0.1,1.1-0.2C24,7.7,23.9,7.2,23.6,7z"/>
				<path fill="#A23030" d="M3.5,22.3c-0.4-0.2-0.8-0.1-1.1,0.2s-0.1,0.8,0.2,1.1s0.8,0.1,1.1-0.2C4,23,3.9,22.5,3.5,22.3z"/>
				<path fill="#A23030" d="M0.9,20.4c-0.3-0.2-0.6-0.1-0.8,0.2c-0.2,0.3-0.1,0.6,0.2,0.8c0.3,0.2,0.6,0.1,0.8-0.2
					C1.2,20.9,1.2,20.6,0.9,20.4z"/>
				<path fill="#A23030" d="M22.1,8.3c-0.1-0.1-0.2-0.1-0.4-0.1l0,0c0,0-0.3,0-0.2-0.3c0,0,0.1-0.1,0.1-0.1c0.1-0.2,0.1-0.5-0.1-0.6
					C21.2,7,21,7,20.8,7.3c-0.1,0.2-0.1,0.5,0.1,0.6c0,0,0.1,0,0.1,0.1c0,0,0,0,0,0c0.1,0.1,0,0.2,0,0.2c-0.1,0-0.2,0.1-0.3,0.2
					c-0.1-0.1-0.1-0.2-0.2-0.2C20.4,8,20.1,8,19.9,8.1c0.1-0.5-0.1-0.9-0.5-1.2c-0.1-0.1-0.3-0.1-0.4-0.2c0.1,0,0.1-0.1,0.2-0.2
					c0.1-0.1,0.1-0.2,0.1-0.4l0,0c0,0,0.1-0.6,0.6-0.3c0.4,0.3,1,0.2,1.2-0.3c0.3-0.4,0.2-1-0.3-1.2c-0.4-0.3-1-0.2-1.2,0.3
					c-0.1,0.2-0.2,0.3-0.2,0.5l0,0c0,0,0,0,0,0l0,0c0,0.1,0,0.5-0.5,0.5l0,0c0,0-0.1,0-0.1-0.1c-0.3-0.2-0.8-0.1-1,0.2
					c-0.1-0.2-0.2-0.3-0.3-0.4c-0.4-0.3-1-0.2-1.2,0.3c0,0.1-0.1,0.1-0.1,0.2c0,0,0,0,0,0c-0.2-0.2-0.5-0.2-0.7-0.1
					c0,0,0.1-0.1,0.1-0.2c0.3-0.5,0.2-1.2-0.3-1.6c-0.5-0.3-1.2-0.2-1.6,0.3c-0.2,0.3-0.2,0.6-0.2,0.9c-0.4-0.2-1-0.1-1.3,0.4
					c-0.2,0.3-0.2,0.6-0.1,0.9c0,0,0,0,0,0.1c0,0,0,0,0,0.1c0.2,0.3,0.5,0.3,0.7,0.4l0,0c0.2,0.1,0.3,0.3,0.3,0.5
					c0,0.3-0.3,0.6-0.6,0.6c-0.3,0-0.6-0.3-0.6-0.6c0,0,0-0.1,0-0.1v0c0-0.4-0.1-0.5-0.2-0.6c0,0,0,0,0,0c-0.1-0.1-0.3-0.1-0.4-0.1
					l0,0c0,0,0,0,0,0l0,0c0,0-0.1,0-0.1,0c-0.1,0-0.1,0-0.2,0c-0.1,0-0.2,0-0.3,0c-0.2,0-0.3-0.2-0.5-0.2l0,0
					c-0.4-0.2-0.9,0-1.1,0.3C9.1,6.9,9.1,7.1,9.1,7.3c0,0,0,0,0,0c0,0,0,0,0,0c0,0.1,0.1,0.3,0.2,0.4c0,0,0,0.1-0.1,0.1c0,0,0,0,0,0
					c0,0-0.1,0-0.1,0c0,0-0.1,0-0.1,0c-0.1,0-0.1,0-0.1,0.1c0,0,0,0,0,0c0,0-0.1,0-0.1-0.1c0,0,0-0.1,0-0.1c0,0,0,0,0,0
					c0,0,0,0,0-0.1l0,0C8.5,7.4,8.4,7.3,8.3,7.2C7.9,7,7.3,7.1,7.1,7.5c-0.3,0.4-0.2,1,0.3,1.2c0.2,0.1,0.4,0.2,0.6,0.1l0,0
					c0.1-0.1,0.2-0.1,0.4-0.1c0.5,0,0.8,0.4,0.8,0.8c0,0.5-0.4,0.8-0.8,0.8c-0.5,0-0.8-0.4-0.8-0.8v0C7.5,9.4,7.3,9.1,7.1,9
					c-0.5-0.3-1-0.2-1.3,0.3c-0.3,0.5-0.2,1,0.3,1.3c0.1,0.1,0.3,0.1,0.4,0.2c-0.3,0-0.6,0.2-0.8,0.4c0,0-0.1,0-0.1-0.1
					c-0.6-0.4-1.3-0.2-1.7,0.3c-0.4,0.6-0.2,1.3,0.3,1.7c0.2,0.1,0.4,0.2,0.6,0.2c0,0-0.1,0.1-0.1,0.1c-0.3,0.5-0.2,1,0.3,1.3
					C5.2,14.9,5.3,15,5.4,15c0.3,0.2,0.3,0.6,0.2,0.9c0,0.1-0.4,0.5-0.8,0.1c-0.1-0.1-0.2-0.2-0.3-0.2c-0.6-0.4-1.3-0.2-1.7,0.3
					c-0.3,0.4-0.3,1,0,1.4c-0.2,0-0.4,0-0.6,0.1c0-0.3-0.1-0.6-0.4-0.8c-0.4-0.3-1-0.2-1.2,0.3c-0.3,0.4-0.2,1,0.3,1.2
					c0.3,0.2,0.7,0.2,1,0c0,0.3,0.1,0.5,0.3,0.7c0.4,0.2,0.8,0.1,1.1-0.2c0,0,0-0.1,0.1-0.1l0,0l0,0c0-0.1,0.1-0.2,0.1-0.2
					C3.5,18,3.7,18,3.8,18c0,0,0,0,0,0c0,0,0,0,0,0l0,0c0.1,0,0.2,0,0.3,0l0,0c0,0,0,0,0,0c0.1,0,0.2-0.1,0.3-0.1
					c0.2,0,0.3,0.2,0.3,0.4l0,0c0,0,0,0.1-0.1,0.1c0,0,0,0,0,0c0,0,0,0.1,0,0.1c-0.1,0.4,0,0.8,0.4,1c0.2,0.1,0.4,0.2,0.5,0.1
					c0.1,0,0.1,0,0.2,0c0,0,0.1,0,0.1,0c0,0,0,0,0,0.1c0.3,0.1,0.5,0.3,0.5,0.6c0,0.3-0.3,0.6-0.6,0.6c-0.3,0-0.5-0.2-0.6-0.4
					c0,0,0-0.1-0.1-0.1c0-0.1,0-0.2-0.1-0.3v0l0,0c-0.1-0.2-0.2-0.3-0.3-0.4c-0.4-0.3-1-0.2-1.2,0.3c-0.3,0.4-0.2,1,0.3,1.2
					c0.3,0.2,0.8,0.2,1.1-0.1l0,0l0,0c0,0,0,0,0,0c0.2-0.2,0.3-0.1,0.3,0.1c-0.1,0.5,0,1,0.5,1.2c0,0,0,0,0.1,0
					c-0.1,0.1-0.2,0.2-0.3,0.3c-0.3,0.4-0.2,1,0.3,1.2c0.4,0.3,1,0.2,1.2-0.2c0,0.3,0.2,0.6,0.4,0.8c0.5,0.3,1.1,0.2,1.4-0.3
					c0.1-0.2,0.1-0.4,0.1-0.4l0,0c0,0,0,0,0-0.1c0-0.2,0.2-0.4,0.4-0.4c0.2,0,0.4,0.2,0.4,0.4c0,0.1-0.1,0.2-0.2,0.3l0,0l0,0
					c0,0-0.1,0.1-0.1,0.1c0,0-0.1,0-0.1,0.1c0,0,0,0,0,0c0,0,0,0-0.1,0.1c0,0-0.1,0.1-0.1,0.1c-0.1,0.2-0.2,0.4-0.2,0.6
					c-0.1,0.6-0.5,0.3-0.5,0.3C8,25,7.6,25.1,7.4,25.4c-0.2,0.3-0.1,0.6,0.2,0.8c0.3,0.2,0.6,0.1,0.8-0.2c0,0,0,0,0-0.1l0,0
					c0,0,0,0,0,0c0,0,0,0,0,0c0.1-0.1,0.2-0.4,0.6-0.3c0.1,0.1,0.1,0.1,0.2,0.2c0.1,0.1,0.2,0.1,0.3,0.1c0,0,0,0,0,0.1
					c-0.1,0.2-0.1,0.5,0.1,0.6c0.2,0.1,0.5,0.1,0.6-0.1c0.1-0.2,0.1-0.4-0.1-0.6c0.2-0.1,0.5-0.2,0.6-0.5c0-0.1,0.1-0.2,0.1-0.3
					c0.1,0.2,0.2,0.4,0.4,0.5c0.6,0.4,1.3,0.2,1.7-0.3c0-0.1,0.1-0.2,0.1-0.2c0-0.1,0-0.2,0.1-0.2c-3.4-1.2-5.9-4.4-5.9-8.2
					c0-4.8,3.9-8.7,8.7-8.7c2.2,0,4.1,0.8,5.7,2.1c0.4-0.2,0.9-0.8,0.8-0.8C22.6,8.9,22.4,8.5,22.1,8.3z"/>
			</g>
		</g>
		<g>
			<g>
				<polygon fill="#A23030" points="51.2,22.7 46.8,22.7 43.1,10.6 47.5,10.6 				"/>
				<polygon fill="#A23030" points="58.6,22.7 54.2,22.7 50.5,10.6 54.9,10.6 				"/>
				<polygon fill="#A23030" points="54.2,22.7 58.6,22.7 62.4,10.6 58,10.6 				"/>
				<polygon fill="#A23030" points="46.8,22.7 51.2,22.7 54.9,10.6 50.5,10.6 				"/>
			</g>
			<path fill="#A23030" d="M69.5,12.4c-1.1-1.1-2.5-1.7-4.1-1.8h-4.2v3v0v9h4.2c0,0,0,0,0,0l0,0l0,0c1.6,0,2.9-0.6,4.1-1.8
				c1.2-1.2,1.8-2.6,1.8-4.3C71.3,15,70.7,13.6,69.5,12.4z M66.8,18.3c-0.4,0.5-1,0.7-1.6,0.7h-0.2v-4.6c0,0,0.1,0,0.2,0
				c0.6,0,1.2,0.2,1.6,0.7c0.5,0.5,0.7,1,0.7,1.6C67.5,17.3,67.3,17.9,66.8,18.3z"/>
			<path fill="#A23030" d="M43.2,12.1c-1.2-1.3-2.8-1.9-4.6-1.9l0,0l0,0l0,0c-1.8,0-3.3,0.6-4.6,1.9c-1.3,1.3-1.9,2.8-1.9,4.6
				c0,1.8,0.6,3.3,1.9,4.6c1.3,1.3,2.8,1.9,4.6,1.9c1.8,0,3.4-0.6,4.6-1.9c1.3-1.3,1.9-2.8,1.9-4.6C45.1,14.9,44.5,13.4,43.2,12.1z
				 M40.3,18.4c-0.5,0.5-1,0.7-1.7,0.7c-0.6,0-1.2-0.2-1.6-0.7c-0.5-0.4-0.7-1-0.7-1.6c0-0.7,0.2-1.2,0.7-1.7c0.4-0.5,1-0.7,1.6-0.7
				c0.7,0,1.2,0.2,1.7,0.7c0.5,0.5,0.7,1,0.7,1.7C41,17.4,40.7,17.9,40.3,18.4z"/>
			<path fill="#A23030" d="M30.6,18.9c0.2-0.1,0.5-0.3,0.9-0.7c0.4-0.3,0.7-0.8,0.9-1.4c0.2-0.6,0.3-1.3,0.3-2
				c0-1.1-0.4-2.1-1.2-2.9c-0.7-0.7-1.6-1.1-2.6-1.2h-6.8c1.6,1.6,2.5,3.7,2.5,6.1c0,2.3-0.9,4.4-2.4,6h4.1v-3.3l1.9,3.3h4.5
				L30.6,18.9z M28.9,15.2C28.9,15.2,28.9,15.2,28.9,15.2C28.9,15.2,28.9,15.2,28.9,15.2v0.1c0,0.2-0.1,0.4-0.3,0.6
				c-0.2,0.2-0.4,0.3-0.6,0.3h-1.4h0l0,0v-2h1.4c0.3,0,0.5,0.1,0.6,0.3C28.7,14.6,28.8,14.8,28.9,15.2L28.9,15.2L28.9,15.2z"/>
		</g>
	</g>
</g>
</svg>
