<?xml version="1.0" encoding="utf-8"?>
<!-- Generator: Adobe Illustrator 16.0.0, SVG Export Plug-In . SVG Version: 6.00 Build 0)  -->
<!DOCTYPE svg PUBLIC "-//W3C//DTD SVG 1.1//EN" "http://www.w3.org/Graphics/SVG/1.1/DTD/svg11.dtd">
<svg version="1.1" id="Layer_1" xmlns="http://www.w3.org/2000/svg" xmlns:xlink="http://www.w3.org/1999/xlink" x="0px" y="0px"
	 width="32px" height="32px" viewBox="0 0 32 32" enable-background="new 0 0 32 32" xml:space="preserve">
<path fill="#F9F9F8" d="M16,0.688c8.561,0,15.5,6.786,15.5,15.156C31.5,24.214,24.561,31,16,31C7.439,31,0.5,24.214,0.5,15.844
	C0.5,7.474,7.439,0.688,16,0.688z"/>
<path fill="#992C2E" d="M16,3c7.456,0,13.5,6.044,13.5,13.5S23.456,30,16,30S2.5,23.956,2.5,16.5S8.544,3,16,3z"/>
<path fill="#F9F9F8" d="M16.12,4.22c6.882,0,12.46,5.534,12.46,12.358c0,6.825-5.578,12.361-12.46,12.361S3.66,23.405,3.66,16.578
	C3.659,9.753,9.238,4.22,16.12,4.22z"/>
<g>
	<g>
		<polygon fill="#992C2E" points="19.514,10.833 18.83,9.995 11.486,16.615 11.828,17.034 11.523,17.482 18.867,23.001 
			19.477,22.104 12.677,16.995 		"/>
	</g>
</g>
</svg>
