<?xml version="1.0" encoding="utf-8"?>
<!-- Generator: Adobe Illustrator 17.0.2, SVG Export Plug-In . SVG Version: 6.00 Build 0)  -->
<!DOCTYPE svg PUBLIC "-//W3C//DTD SVG 1.1//EN" "http://www.w3.org/Graphics/SVG/1.1/DTD/svg11.dtd">
<svg version="1.1" id="Capa_1" xmlns="http://www.w3.org/2000/svg" xmlns:xlink="http://www.w3.org/1999/xlink" x="0px" y="0px"
	 width="28.047px" height="28.047px" viewBox="0 0 28.047 28.047" enable-background="new 0 0 28.047 28.047" xml:space="preserve">
<g>
	<g>
		<path fill="#B9B7B4" d="M0,14.023C0,6.291,6.291,0,14.023,0c7.733,0,14.024,6.291,14.024,14.023s-6.291,14.023-14.024,14.023
			C6.291,28.047,0,21.756,0,14.023z M27.047,14.023C27.047,6.842,21.205,1,14.023,1C6.842,1,1,6.842,1,14.023
			s5.842,13.023,13.023,13.023C21.205,27.047,27.047,21.205,27.047,14.023z"/>
	</g>
	<polygon fill="#B9B7B4" points="21.213,12.189 19.963,10.939 14.024,16.877 8.085,10.939 6.835,12.189 14.024,19.377 	"/>
</g>
</svg>
