<?xml version="1.0" encoding="utf-8"?>
<!-- Generator: Adobe Illustrator 17.0.2, SVG Export Plug-In . SVG Version: 6.00 Build 0)  -->
<!DOCTYPE svg PUBLIC "-//W3C//DTD SVG 1.1//EN" "http://www.w3.org/Graphics/SVG/1.1/DTD/svg11.dtd">
<svg version="1.1" id="Capa_1" xmlns="http://www.w3.org/2000/svg" xmlns:xlink="http://www.w3.org/1999/xlink" x="0px" y="0px"
	 width="28.047px" height="28.047px" viewBox="0 0 28.047 28.047" enable-background="new 0 0 28.047 28.047" xml:space="preserve">
<g>
	<g>
		<path fill="#FFFFFF" d="M14.023,28.047C6.291,28.047,0,21.756,0,14.024C0,6.291,6.291,0,14.023,0s14.023,6.291,14.023,14.024
			C28.047,21.756,21.756,28.047,14.023,28.047z M14.023,1C6.842,1,1,6.842,1,14.024c0,7.181,5.842,13.023,13.023,13.023
			s13.023-5.842,13.023-13.023C27.047,6.842,21.205,1,14.023,1z"/>
	</g>
	<polygon fill="#FFFFFF" points="12.189,6.835 10.939,8.085 16.877,14.024 10.939,19.963 12.189,21.213 19.377,14.024 	"/>
</g>
</svg>
