<?xml version="1.0" encoding="utf-8"?>
<!-- Generator: Adobe Illustrator 17.0.2, SVG Export Plug-In . SVG Version: 6.00 Build 0)  -->
<!DOCTYPE svg PUBLIC "-//W3C//DTD SVG 1.1//EN" "http://www.w3.org/Graphics/SVG/1.1/DTD/svg11.dtd">
<svg version="1.1" id="Capa_1" xmlns="http://www.w3.org/2000/svg" xmlns:xlink="http://www.w3.org/1999/xlink" x="0px" y="0px"
	 width="31.268px" height="31.268px" viewBox="58.446 3.315 31.268 31.268" enable-background="new 58.446 3.315 31.268 31.268"
	 xml:space="preserve">
<g>
	<path fill="#FFFFFF" d="M58.446,18.949c0,8.634,7,15.634,15.634,15.634s15.634-7,15.634-15.634s-7-15.634-15.634-15.634
		S58.446,10.315,58.446,18.949z"/>
	<path fill="#312926" d="M60.016,18.949c0,7.767,6.297,14.064,14.064,14.064s14.064-6.297,14.064-14.064S81.847,4.885,74.08,4.885
		S60.016,11.182,60.016,18.949z M86.919,18.949c0,7.091-5.748,12.839-12.839,12.839c-7.091,0-12.839-5.748-12.839-12.839
		S66.989,6.11,74.08,6.11C81.171,6.11,86.919,11.858,86.919,18.949z"/>
	<polygon fill="#312926" points="75.822,12.712 68.93,19.604 68.931,19.604 68.922,19.613 75.813,26.504 77.229,25.088 
		71.754,19.613 77.238,14.129 	"/>
</g>
</svg>
