<?xml version="1.0" encoding="utf-8"?>
<!-- Generator: Adobe Illustrator 16.2.1, SVG Export Plug-In . SVG Version: 6.00 Build 0)  -->
<!DOCTYPE svg PUBLIC "-//W3C//DTD SVG 1.1//EN" "http://www.w3.org/Graphics/SVG/1.1/DTD/svg11.dtd">
<svg version="1.1" id="Layer_1" xmlns="http://www.w3.org/2000/svg" xmlns:xlink="http://www.w3.org/1999/xlink" x="0px" y="0px"
	 width="250px" height="250px" viewBox="0 0 250 250" enable-background="new 0 0 250 250" xml:space="preserve">
<g>
	<circle opacity="0.1" fill="#893F27" enable-background="new    " cx="125" cy="134.129" r="115.871"/>
	<circle fill="#FFFFFF" cx="125" cy="115.871" r="115.871"/>
	<g>
		<circle fill="#FF6666" cx="125" cy="115.871" r="103.23"/>
	</g>
	<g>
		<path opacity="0.3" fill="#7A2424" enable-background="new    " d="M116.713,186.517c0.421,0.983,0.702,1.826,0.702,2.95v9.69
			c0.703,0,1.405,0.28,2.107,0.28v-5.898C119.522,193.118,119.242,188.483,116.713,186.517z"/>
		<path opacity="0.3" fill="#7A2424" enable-background="new    " d="M165.028,186.517c0-7.304-16.714-13.062-37.36-13.062
			c-20.646,0-37.359,5.898-37.359,13.062c0,5.337,8.427,9.691,20.927,11.657v-8.286c0,0-0.281-3.933-3.933-5.337
			c0,0-2.106-1.545,0.281-2.248c0,0,6.601-0.421,9.129,3.652c-0.281-0.983-0.281-2.107,2.247-1.545c0,0,7.163,0.982,7.303,9.129
			v5.898c0.422,0,0.983,0,1.404,0c0.281,0,0.281,0,0.422,0v-5.898c0.281-8.286,7.303-9.129,7.303-9.129
			c2.529-0.702,2.529,0.702,2.248,1.545c2.527-4.354,9.129-3.652,9.129-3.652c2.247,0.984,0.281,2.248,0.281,2.248
			c-3.652,1.404-3.933,5.337-3.933,5.337v8.427C155.898,196.348,165.028,191.713,165.028,186.517z"/>
		<path opacity="0.3" fill="#7A2424" enable-background="new    " d="M134.832,193.118v5.898c0.701,0,1.404,0,2.105-0.28v-9.41
			c0-1.124,0.281-2.248,0.703-2.949C134.832,188.483,134.832,193.118,134.832,193.118z"/>
		<path fill="#7A2424" d="M137.359,186.517c0,0,0.281-0.28,0.281-0.702C137.5,185.955,137.359,186.236,137.359,186.517
			L137.359,186.517z"/>
		<path opacity="0.5" fill="#7A2424" enable-background="new    " d="M134.832,193.118c0,0,0.28-4.775,2.527-6.602
			c0-0.28,0.281-0.421,0.281-0.702c0.281-0.982,0.281-2.106-2.248-1.545c0,0-6.881,0.983-7.303,9.129v5.899
			c2.247,0,4.635,0,6.602-0.281v-5.898H134.832z"/>
		<path opacity="0.5" fill="#7A2424" enable-background="new    " d="M117.416,189.607c0-1.124-0.281-2.248-0.702-2.95l0,0
			c0,0-0.281-0.28-0.281-0.702c-2.528-4.354-9.129-3.652-9.129-3.652c-2.247,0.984-0.281,2.248-0.281,2.248
			c3.652,1.404,3.933,5.337,3.933,5.337v8.286c2.107,0.422,4.073,0.703,6.46,0.983V189.607L117.416,189.607z"/>
		<path opacity="0.5" fill="#7A2424" enable-background="new    " d="M146.91,184.41c0,0,2.106-1.545-0.281-2.247
			c0,0-6.601-0.421-9.129,3.651c0,0.422-0.281,0.702-0.281,0.702l0,0c-0.421,0.983-0.701,1.826-0.701,2.95v9.69
			c2.246-0.28,4.354-0.421,6.46-0.702v-8.427C143.118,189.888,143.258,185.814,146.91,184.41z"/>
		<path fill="#7A2424" d="M116.713,186.517c0-0.28-0.281-0.421-0.281-0.702C116.433,186.236,116.713,186.517,116.713,186.517
			L116.713,186.517z"/>
		<path opacity="0.5" fill="#7A2424" enable-background="new    " d="M119.522,193.118v5.898c2.107,0.281,4.354,0.281,6.601,0.281
			v-5.899c-0.28-8.286-7.303-9.129-7.303-9.129c-2.528-0.702-2.528,0.702-2.247,1.545c0.281,0.281,0.281,0.422,0.281,0.702
			C119.242,188.483,119.522,193.118,119.522,193.118z"/>
		<path opacity="0.25" fill="#7A2424" enable-background="new    " d="M84.832,147.753l-1.124,3.651c0,0-0.281,1.404,0.983,1.545
			c1.405,0,1.124-1.404,1.124-1.545L84.832,147.753L84.832,147.753z"/>
		<path fill="#7A2424" d="M193.68,131.882v-0.421c-10.955-2.248-22.191-2.248-29.072-1.826c1.123-4.072,1.404-8.708,1.404-13.764
			c0-7.303-2.81-13.342-7.304-17.837c0.702-2.528,1.825-8.287-1.124-15.59c0,0-5.056-1.545-16.713,6.18
			c-4.354-1.404-9.129-1.826-14.045-1.826c-5.337,0-10.815,0.702-15.871,2.106c-11.938-8.286-17.135-6.46-17.135-6.46
			c-3.371,8.708-1.405,14.888-0.702,16.573c-4.073,4.354-6.461,9.832-6.461,16.714c0,5.337,0.702,9.832,2.107,13.764
			c-6.882-0.281-17.697-0.281-28.511,1.967v0.421c10.814-2.106,21.489-2.247,28.371-1.825c0.281,0.982,0.702,1.545,1.124,2.527
			c-6.601,0.281-18.399,1.124-29.354,4.073l0.281,0.421c11.236-3.23,22.752-3.932,29.635-4.072
			c4.073,7.584,11.938,12.359,26.124,14.045c-2.107,1.404-4.073,3.651-4.775,7.584c-2.809,1.404-11.517,4.635-16.713-4.354
			c0,0-2.95-5.338-8.427-5.759c0,0-5.478,0-0.421,3.37c0,0,3.651,1.546,6.18,8.006c0,0,3.23,10.955,18.96,7.304v11.236
			c0,0-0.281,3.933-3.933,5.337c0,0-2.106,1.545,0.281,2.247c0,0,10.112,0.983,10.112-7.584v-12.22c0,0-0.421-4.775,2.106-6.601
			v20.225c0,0-0.281,4.775-2.809,6.601c0,0-1.545,2.949,2.107,2.107c0,0,7.163-0.983,7.303-9.129l0.281-20.365h1.545l0.281,20.365
			c0.28,8.286,7.303,9.129,7.303,9.129c3.652,0.982,2.107-2.107,2.107-2.107c-2.529-1.825-2.81-6.601-2.81-6.601v-20.225
			c2.247,1.825,2.106,6.46,2.106,6.46v12.36c0,8.286,10.113,7.584,10.113,7.584c2.246-0.983,0.28-2.247,0.28-2.247
			c-3.651-1.404-3.933-5.338-3.933-5.338v-16.011c0-6.18-2.809-9.69-5.337-11.517c15.169-1.545,22.472-6.461,25.702-14.045
			c6.602,0.281,18.539,0.982,30.057,4.072l0.28-0.421c-11.235-3.229-23.174-4.073-29.775-4.073c0.281-0.701,0.702-1.545,0.983-2.246
			C171.208,129.775,182.725,129.775,193.68,131.882z M87.641,146.348c-0.703,0-1.124-0.28-1.124-0.701
			c0-0.422,0.421-0.703,1.124-0.703c0.702,0,1.124,0.281,1.124,0.703C88.764,145.927,88.343,146.348,87.641,146.348z
			 M89.607,147.191c0-0.422,0.421-0.703,1.124-0.703s1.124,0.281,1.124,0.703c0,0.421-0.421,0.701-1.124,0.701
			C90.168,147.893,89.607,147.753,89.607,147.191z M91.433,149.298c0-0.421,0.421-0.702,1.124-0.702s1.124,0.281,1.124,0.702
			S93.258,150,92.556,150C91.994,150.281,91.433,149.719,91.433,149.298z M94.242,152.809c-0.702,0-1.124-0.28-1.124-0.701
			c0-0.422,0.421-0.703,1.124-0.703s1.124,0.281,1.124,0.703C95.225,152.247,94.663,152.809,94.242,152.809z M96.067,155.057
			c-0.702,0-1.124-0.281-1.124-0.703c0-0.421,0.421-0.701,1.124-0.701s1.124,0.28,1.124,0.701
			C97.051,154.635,96.489,155.057,96.067,155.057z M98.596,156.882c-0.703,0-1.124-0.28-1.124-0.702s0.421-0.702,1.124-0.702
			c0.702,0,1.124,0.28,1.124,0.702C99.579,156.602,99.017,156.882,98.596,156.882z M101.966,158.287
			c-0.702,0-1.124-0.281-1.124-0.703c0-0.421,0.421-0.702,1.124-0.702s1.124,0.281,1.124,0.702
			C103.23,158.006,102.528,158.287,101.966,158.287z M105.478,158.287c-0.702,0-1.124-0.281-1.124-0.703
			c0-0.421,0.421-0.702,1.124-0.702s1.124,0.281,1.124,0.702C106.601,158.006,106.18,158.287,105.478,158.287z M108.848,157.865
			c-0.702,0-1.124-0.281-1.124-0.702s0.421-0.702,1.124-0.702c0.703,0,1.124,0.281,1.124,0.702
			C110.112,157.303,109.551,157.865,108.848,157.865z M126.826,144.102c-16.573,0-29.775-2.528-29.775-18.399
			c0-3.933,1.826-7.303,5.056-10.253c5.337-4.775,14.466-2.247,24.719-2.247c10.252,0,19.241-2.528,24.719,2.247
			c3.23,2.95,5.057,6.461,5.057,10.253C156.602,143.539,143.118,144.102,126.826,144.102z"/>
		<g>
			<ellipse fill="#7A2424" cx="110.674" cy="126.685" rx="4.073" ry="5.899"/>
			<ellipse fill="#7A2424" cx="143.961" cy="126.685" rx="4.072" ry="5.899"/>
			<circle fill="#7A2424" cx="126.826" cy="134.691" r="1.545"/>
			<path fill="#7A2424" d="M130.057,137.922c-0.281,0-0.422,0-0.703,0.28c-0.421,1.124-1.404,1.826-2.809,1.826
				c-1.124,0-2.247-0.702-2.809-1.826c0-0.28-0.421-0.421-0.702-0.28c-0.281,0-0.421,0.421-0.281,0.701
				c0.421,1.545,2.106,2.529,3.651,2.529s2.949-0.984,3.652-2.529C130.478,138.343,130.197,137.922,130.057,137.922z"/>
		</g>
		<g opacity="0.12">
			<ellipse fill="#7A2424" cx="87.641" cy="145.646" rx="1.124" ry="0.702"/>
			<path fill="#7A2424" d="M91.713,147.191c0-0.422-0.421-0.703-1.124-0.703s-1.124,0.281-1.124,0.703
				c0,0.421,0.421,0.701,1.124,0.701S91.713,147.753,91.713,147.191z"/>
			<ellipse fill="#7A2424" cx="92.416" cy="149.298" rx="1.124" ry="0.702"/>
			<ellipse fill="#7A2424" cx="94.242" cy="151.826" rx="1.124" ry="0.703"/>
			<ellipse fill="#7A2424" cx="96.067" cy="154.073" rx="1.124" ry="0.702"/>
			<ellipse fill="#7A2424" cx="98.596" cy="156.18" rx="1.124" ry="0.702"/>
			<ellipse fill="#7A2424" cx="101.966" cy="157.584" rx="1.124" ry="0.703"/>
			<ellipse fill="#7A2424" cx="105.478" cy="157.584" rx="1.124" ry="0.703"/>
			<path fill="#7A2424" d="M108.848,156.18c0.703,0,1.124,0.281,1.124,0.702s-0.421,0.702-1.124,0.702
				c-0.702,0-1.124-0.281-1.124-0.702C108.006,156.602,108.427,156.18,108.848,156.18z"/>
		</g>
		<path fill="#7A2424" d="M110.534,117.697c3.371,0,6.18,3.933,6.18,8.989c0,5.057-2.809,8.988-6.18,8.988s-6.18-3.932-6.18-8.988
			C104.354,121.629,107.022,117.697,110.534,117.697 M110.534,116.994c-3.933,0-6.882,4.354-6.882,9.691
			c0,5.337,3.23,9.691,6.882,9.691c3.933,0,6.882-4.354,6.882-9.691C117.416,121.348,114.466,116.994,110.534,116.994
			L110.534,116.994z"/>
		<path fill="#7A2424" d="M143.961,117.697c3.371,0,6.18,3.933,6.18,8.989c0,5.057-2.809,8.988-6.18,8.988s-6.18-3.932-6.18-8.988
			C137.5,121.629,140.59,117.697,143.961,117.697 M143.961,116.994c-3.933,0-6.883,4.354-6.883,9.691
			c0,5.337,3.23,9.691,6.883,9.691c3.932,0,6.882-4.354,6.882-9.691C150.843,121.348,147.612,116.994,143.961,116.994
			L143.961,116.994z"/>
	</g>
	<g>
		<path fill="#FFFFFF" d="M104.04,65.59h4.494v2.107h-7.163V49.579h2.669V65.59z"/>
		<path fill="#FFFFFF" d="M112.747,49.579h3.23c1.826,0,2.669,0.843,2.669,2.528v13.062c0,1.686-0.843,2.528-2.669,2.528h-3.23
			c-1.826,0-2.668-0.843-2.668-2.528V52.107C110.079,50.421,110.921,49.579,112.747,49.579z M116.118,64.747V52.528
			c0-0.281,0-0.562-0.141-0.703c-0.141-0.14-0.281-0.14-0.702-0.14h-1.686c-0.281,0-0.562,0-0.702,0.14
			c-0.141,0.141-0.141,0.281-0.141,0.703v12.219c0,0.281,0,0.562,0.141,0.702c0.141,0.141,0.281,0.141,0.702,0.141h1.686
			c0.281,0,0.562,0,0.702-0.141C115.978,65.309,116.118,65.168,116.118,64.747z"/>
		<path fill="#FFFFFF" d="M129.882,54.916h-2.669v-2.387c0-0.281,0-0.562-0.14-0.703c-0.141-0.14-0.281-0.14-0.702-0.14h-1.545
			c-0.281,0-0.562,0-0.703,0.14c-0.141,0.141-0.141,0.281-0.141,0.703v12.359c0,0.281,0,0.562,0.141,0.702s0.281,0.141,0.703,0.141
			h1.545c0.281,0,0.562,0,0.702-0.141c0.14-0.141,0.14-0.281,0.14-0.702v-4.495h-1.404v-1.966h4.073v6.742
			c0,1.686-0.843,2.528-2.669,2.528h-3.09c-1.825,0-2.668-0.843-2.668-2.528V52.107c0-1.686,0.843-2.528,2.668-2.528h3.09
			c1.826,0,2.669,0.843,2.669,2.528V54.916z"/>
		<path fill="#FFFFFF" d="M132.832,49.579h2.668v18.118h-2.668V49.579z"/>
		<path fill="#FFFFFF" d="M145.191,49.579h2.387v18.118h-2.668l-3.792-13.062v13.062h-2.388V49.579h2.809l3.652,12.781V49.579z"/>
	</g>
</g>
</svg>
