<?xml version="1.0" encoding="utf-8"?>
<!-- Generator: Adobe Illustrator 17.0.0, SVG Export Plug-In . SVG Version: 6.00 Build 0)  -->
<!DOCTYPE svg PUBLIC "-//W3C//DTD SVG 1.1//EN" "http://www.w3.org/Graphics/SVG/1.1/DTD/svg11.dtd">
<svg version="1.1" id="Capa_1" xmlns="http://www.w3.org/2000/svg" xmlns:xlink="http://www.w3.org/1999/xlink" x="0px" y="0px"
	 width="65.366px" height="65.366px" viewBox="0 0 65.366 65.366" enable-background="new 0 0 65.366 65.366" xml:space="preserve">
<g>
	<path fill="#524640" d="M9.577,47.737l-0.595,2.061c0,0-0.154,0.744,0.548,0.876c0.732-0.017,0.671-0.7,0.622-0.92L9.577,47.737z"
		/>
	<path fill="#524640" d="M32.682,0C14.661,0,0,14.661,0,32.682c0,18.021,14.661,32.684,32.682,32.684
		c18.022,0,32.684-14.663,32.684-32.684C65.366,14.661,50.704,0,32.682,0z M2.506,32.682c0-16.668,13.51-30.176,30.176-30.176
		c16.666,0,30.178,13.508,30.178,30.176c0,1.789-0.165,3.539-0.464,5.243c-3.567-0.274-6.82-0.245-9.133-0.149
		c0.612-2.21,0.795-4.748,0.795-7.582c0-4.063-1.525-7.316-4.002-9.785c0.433-1.397,1.011-4.501-0.58-8.476
		c0,0-2.8-0.891-9.144,3.356c-2.482-0.622-5.13-0.928-7.778-0.928c-2.913,0-5.855,0.37-8.601,1.123
		c-6.542-4.464-9.433-3.549-9.433-3.549c-1.885,4.714-0.72,8.207-0.365,9.073c-2.217,2.391-3.571,5.446-3.571,9.188
		c0,2.827,0.323,5.36,1.109,7.565c-2.279-0.081-5.363-0.091-8.725,0.169C2.67,36.223,2.506,34.473,2.506,32.682z M48.799,35.66
		c0,9.795-7.301,10.062-16.305,10.062c-9.009,0-16.308-1.356-16.308-10.062c0-2.085,1.023-4.019,2.783-5.627
		c2.93-2.675,7.893-1.258,13.523-1.258c5.607,0,10.551-1.432,13.488,1.229C47.759,31.617,48.799,33.56,48.799,35.66z M3.025,38.199
		c3.392-0.262,6.498-0.247,8.772-0.162c0.174,0.458,0.365,0.898,0.582,1.327c-2.233,0.073-5.429,0.279-8.937,0.803
		C3.277,39.52,3.146,38.859,3.025,38.199z M3.52,40.431c3.551-0.529,6.778-0.729,9.002-0.798c2.208,4.119,6.564,6.777,14.313,7.612
		c-1.099,0.739-2.222,1.995-2.675,4.119c-1.5,0.72-6.244,2.467-9.09-2.428c0,0-1.593-2.915-4.645-3.143c0,0-2.959-0.046-0.203,1.845
		c0,0,1.978,0.932,3.343,4.44c0,0,1.784,5.977,10.38,4.058v5.419C13.983,58.545,6.197,50.534,3.52,40.431z M23.411,52.759
		c0,0.228-0.267,0.409-0.592,0.409c-0.328,0-0.592-0.184-0.592-0.409s0.264-0.406,0.592-0.406
		C23.144,52.353,23.411,52.534,23.411,52.759z M21.48,53.077c0,0.225-0.267,0.411-0.59,0.411c-0.33,0-0.595-0.184-0.595-0.411
		c0-0.23,0.264-0.411,0.595-0.411C21.215,52.666,21.48,52.849,21.48,53.077z M19.578,53.077c-0.003,0.228-0.267,0.411-0.592,0.411
		c-0.328,0-0.592-0.184-0.592-0.411c0-0.23,0.264-0.411,0.592-0.411C19.311,52.666,19.578,52.849,19.578,53.077z M17.666,52.348
		c0,0.23-0.267,0.411-0.592,0.411c-0.328,0-0.592-0.184-0.592-0.411s0.264-0.411,0.592-0.411
		C17.4,51.937,17.666,52.12,17.666,52.348z M13.797,48.211c0.328,0,0.592,0.181,0.592,0.406c0,0.225-0.264,0.409-0.592,0.409
		c-0.326,0-0.59-0.184-0.59-0.409C13.207,48.39,13.474,48.211,13.797,48.211z M12.796,47.842c-0.328,0-0.592-0.181-0.592-0.411
		c0-0.223,0.264-0.406,0.592-0.406s0.592,0.181,0.592,0.406C13.388,47.661,13.124,47.842,12.796,47.842z M14.707,49.575
		c0.325,0,0.592,0.181,0.592,0.411c-0.002,0.225-0.267,0.406-0.592,0.406c-0.328,0-0.592-0.181-0.592-0.406
		C14.115,49.758,14.379,49.575,14.707,49.575z M15.708,50.847c0.326,0,0.592,0.184,0.592,0.409c0,0.228-0.267,0.411-0.592,0.411
		c-0.328,0-0.595-0.183-0.595-0.411C15.114,51.031,15.378,50.847,15.708,50.847z M11.748,46.523c0,0.228-0.264,0.406-0.592,0.406
		c-0.326,0-0.592-0.179-0.592-0.406c0-0.228,0.264-0.411,0.592-0.411S11.748,46.295,11.748,46.523z M28.492,62.564
		c-0.368-0.051-0.725-0.139-1.089-0.206v-6.689c0,0-0.22-2.673,1.089-3.598V62.564z M32.682,62.86c-0.184,0-0.365-0.012-0.548-0.015
		l0.086-11.09h0.92l0.088,11.09C33.045,62.848,32.865,62.86,32.682,62.86z M36.865,52.167c1.309,1.021,1.092,3.502,1.092,3.502
		v6.691c-0.366,0.064-0.722,0.152-1.092,0.203V52.167z M41.415,61.572v-8.089c0-3.444-1.451-5.267-2.869-6.229
		c8.26-0.815,12.228-3.49,14.054-7.634c2.231,0.064,5.563,0.255,9.248,0.803C59.17,50.534,51.383,58.562,41.415,61.572z
		 M61.924,40.161c-3.653-0.546-6.962-0.746-9.206-0.813c0.174-0.416,0.326-0.852,0.458-1.302c2.311-0.095,5.58-0.13,9.173,0.147
		C62.226,38.857,62.089,39.515,61.924,40.161z"/>
	<ellipse fill="#524640" cx="23.717" cy="36.22" rx="2.259" ry="3.256"/>
	<ellipse fill="#524640" cx="41.921" cy="36.22" rx="2.259" ry="3.256"/>
	<circle fill="#524640" cx="32.542" cy="40.5" r="0.848"/>
	<path fill="#524640" d="M34.336,42.296c-0.142-0.051-0.298,0.025-0.35,0.166c-0.218,0.614-0.803,1.03-1.454,1.03
		c-0.654,0-1.238-0.414-1.456-1.03c-0.051-0.139-0.208-0.218-0.35-0.166c-0.14,0.049-0.215,0.206-0.166,0.348
		c0.296,0.832,1.087,1.393,1.97,1.393c0.881,0,1.672-0.561,1.965-1.393C34.552,42.501,34.478,42.345,34.336,42.296z"/>
	<path fill="#524640" d="M23.675,30.89c-2.083,0-3.779,2.364-3.779,5.269c0,2.908,1.696,5.27,3.779,5.27
		c2.085,0,3.781-2.364,3.781-5.27C27.456,33.255,25.76,30.89,23.675,30.89z M23.675,41.043c-1.872,0-3.395-2.186-3.395-4.883
		c0-2.697,1.522-4.885,3.395-4.885c1.875,0,3.395,2.188,3.395,4.885C27.07,38.857,25.55,41.043,23.675,41.043z"/>
	<path fill="#524640" d="M41.88,30.89c-2.083,0-3.779,2.364-3.779,5.269c0,2.908,1.696,5.27,3.779,5.27
		c2.085,0,3.781-2.364,3.781-5.27C45.661,33.255,43.965,30.89,41.88,30.89z M41.88,41.043c-1.872,0-3.392-2.186-3.392-4.883
		c0-2.697,1.52-4.885,3.392-4.885c1.875,0,3.395,2.188,3.395,4.885C45.274,38.857,43.755,41.043,41.88,41.043z"/>
</g>
</svg>
