<?xml version="1.0" encoding="utf-8"?>
<!-- Generator: Adobe Illustrator 16.0.0, SVG Export Plug-In . SVG Version: 6.00 Build 0)  -->
<!DOCTYPE svg PUBLIC "-//W3C//DTD SVG 1.1//EN" "http://www.w3.org/Graphics/SVG/1.1/DTD/svg11.dtd">
<svg version="1.1" id="Layer_1" xmlns="http://www.w3.org/2000/svg" xmlns:xlink="http://www.w3.org/1999/xlink" x="0px" y="0px"
	 width="250px" height="250px" viewBox="0 0 250 250" enable-background="new 0 0 250 250" xml:space="preserve">
<g>
	<circle opacity="0.1" fill="#893F27" enable-background="new    " cx="125" cy="131.481" r="82.269"/>
	<circle fill="#FFFFFF" cx="125" cy="118.519" r="82.269"/>
	<g>
		
			<circle fill="none" stroke="#BA2D33" stroke-width="0.8654" stroke-miterlimit="10" stroke-dasharray="3.0378,3.0378" cx="125" cy="118.519" r="73.294"/>
	</g>
	<g>
		<path opacity="0.3" fill="#7A2424" enable-background="new    " d="M119.116,168.678c0.299,0.697,0.499,1.295,0.499,2.094v6.88
			c0.499,0,0.997,0.199,1.496,0.199v-4.188C121.11,173.363,120.912,170.072,119.116,168.678z"/>
		<path opacity="0.3" fill="#7A2424" enable-background="new    " d="M153.42,168.678c0-5.187-11.867-9.274-26.525-9.274
			c-14.659,0-26.525,4.188-26.525,9.274c0,3.788,5.983,6.88,14.858,8.275v-5.883c0,0-0.199-2.792-2.792-3.789
			c0,0-1.496-1.098,0.2-1.596c0,0,4.687-0.299,6.481,2.593c-0.199-0.698-0.199-1.497,1.595-1.097c0,0,5.085,0.697,5.185,6.48v4.188
			c0.301,0,0.698,0,0.997,0c0.2,0,0.2,0,0.3,0v-4.188c0.199-5.883,5.186-6.48,5.186-6.48c1.795-0.499,1.795,0.498,1.596,1.097
			c1.794-3.091,6.482-2.593,6.482-2.593c1.594,0.698,0.198,1.596,0.198,1.596c-2.593,0.997-2.792,3.789-2.792,3.789v5.982
			C146.938,175.656,153.42,172.366,153.42,168.678z"/>
		<path opacity="0.3" fill="#7A2424" enable-background="new    " d="M131.98,173.363v4.188c0.498,0,0.997,0,1.495-0.198v-6.681
			c0-0.799,0.199-1.596,0.499-2.094C131.98,170.072,131.98,173.363,131.98,173.363z"/>
		<path fill="#7A2424" d="M133.775,168.678c0,0,0.199-0.2,0.199-0.5C133.875,168.278,133.775,168.478,133.775,168.678
			L133.775,168.678z"/>
		<path opacity="0.5" fill="#7A2424" enable-background="new    " d="M131.98,173.363c0,0,0.199-3.391,1.795-4.688
			c0-0.198,0.199-0.299,0.199-0.498c0.199-0.697,0.199-1.495-1.596-1.096c0,0-4.886,0.697-5.186,6.48v4.188
			c1.596,0,3.291,0,4.688-0.2v-4.188H131.98z"/>
		<path opacity="0.5" fill="#7A2424" enable-background="new    " d="M119.615,170.871c0-0.799-0.2-1.596-0.499-2.095l0,0
			c0,0-0.199-0.198-0.199-0.498c-1.795-3.091-6.481-2.593-6.481-2.593c-1.596,0.698-0.2,1.596-0.2,1.596
			c2.593,0.997,2.792,3.789,2.792,3.789v5.883c1.496,0.3,2.892,0.5,4.586,0.698V170.871L119.615,170.871z"/>
		<path opacity="0.5" fill="#7A2424" enable-background="new    " d="M140.557,167.182c0,0,1.494-1.098-0.2-1.596
			c0,0-4.687-0.299-6.481,2.592c0,0.3-0.199,0.498-0.199,0.498l0,0c-0.299,0.699-0.498,1.297-0.498,2.095v6.88
			c1.594-0.198,3.092-0.299,4.587-0.498v-5.982C137.863,171.07,137.963,168.178,140.557,167.182z"/>
		<path fill="#7A2424" d="M119.116,168.678c0-0.2-0.199-0.3-0.199-0.5C118.917,168.478,119.116,168.678,119.116,168.678
			L119.116,168.678z"/>
		<path opacity="0.5" fill="#7A2424" enable-background="new    " d="M121.11,173.363v4.188c1.496,0.2,3.092,0.2,4.687,0.2v-4.188
			c-0.199-5.883-5.185-6.48-5.185-6.48c-1.794-0.5-1.794,0.497-1.595,1.096c0.199,0.199,0.199,0.3,0.199,0.498
			C120.912,170.072,121.11,173.363,121.11,173.363z"/>
		<path opacity="0.25" fill="#7A2424" enable-background="new    " d="M96.481,141.154l-0.798,2.593c0,0-0.2,0.997,0.698,1.097
			c0.998,0,0.798-0.997,0.798-1.097L96.481,141.154L96.481,141.154z"/>
		<path fill="#7A2424" d="M173.763,129.887v-0.299c-7.778-1.597-15.756-1.597-20.642-1.297c0.797-2.892,0.997-6.183,0.997-9.772
			c0-5.186-1.995-9.473-5.186-12.664c0.499-1.795,1.296-5.884-0.798-11.069c0,0-3.59-1.097-11.866,4.388
			c-3.091-0.997-6.481-1.296-9.972-1.296c-3.79,0-7.679,0.499-11.269,1.495c-8.476-5.883-12.167-4.586-12.167-4.586
			c-2.393,6.183-0.997,10.571-0.498,11.767c-2.892,3.091-4.587,6.98-4.587,11.867c0,3.789,0.498,6.98,1.496,9.772
			c-4.886-0.199-12.565-0.199-20.243,1.396v0.299c7.678-1.494,15.257-1.596,20.143-1.295c0.2,0.697,0.499,1.097,0.798,1.793
			c-4.687,0.2-13.063,0.799-20.841,2.893l0.199,0.299c7.978-2.293,16.154-2.792,21.041-2.891c2.892,5.384,8.476,8.774,18.548,9.971
			c-1.496,0.998-2.892,2.593-3.39,5.385c-1.994,0.998-8.177,3.291-11.866-3.091c0,0-2.094-3.79-5.983-4.089c0,0-3.89,0-0.299,2.393
			c0,0,2.592,1.098,4.387,5.684c0,0,2.293,7.778,13.462,5.187v7.978c0,0-0.2,2.793-2.792,3.789c0,0-1.495,1.097,0.2,1.596
			c0,0,7.18,0.697,7.18-5.385v-8.676c0,0-0.299-3.391,1.495-4.688v14.359c0,0-0.2,3.391-1.995,4.688c0,0-1.097,2.094,1.496,1.496
			c0,0,5.086-0.697,5.185-6.482l0.2-14.459h1.096l0.2,14.459c0.199,5.884,5.185,6.482,5.185,6.482
			c2.594,0.697,1.496-1.496,1.496-1.496c-1.795-1.295-1.994-4.688-1.994-4.688v-14.359c1.596,1.297,1.495,4.588,1.495,4.588v8.774
			c0,5.884,7.181,5.385,7.181,5.385c1.594-0.698,0.199-1.595,0.199-1.595c-2.594-0.997-2.793-3.79-2.793-3.79v-11.368
			c0-4.388-1.994-6.88-3.789-8.177c10.77-1.097,15.954-4.587,18.248-9.972c4.688,0.199,13.162,0.696,21.34,2.891l0.199-0.299
			c-7.977-2.293-16.453-2.893-21.141-2.893c0.2-0.497,0.498-1.097,0.698-1.595C157.808,128.391,165.984,128.391,173.763,129.887z
			 M98.475,140.156c-0.499,0-0.798-0.197-0.798-0.497s0.299-0.499,0.798-0.499c0.498,0,0.798,0.199,0.798,0.499
			C99.272,139.857,98.973,140.156,98.475,140.156z M99.871,140.756c0-0.299,0.299-0.499,0.798-0.499s0.798,0.2,0.798,0.499
			s-0.299,0.498-0.798,0.498C100.269,141.254,99.871,141.154,99.871,140.756z M101.167,142.252c0-0.299,0.299-0.499,0.798-0.499
			s0.798,0.2,0.798,0.499s-0.301,0.498-0.799,0.498C101.566,142.949,101.167,142.551,101.167,142.252z M103.162,144.744
			c-0.499,0-0.798-0.198-0.798-0.498c0-0.299,0.299-0.498,0.798-0.498c0.499,0,0.798,0.199,0.798,0.498
			C103.86,144.346,103.461,144.744,103.162,144.744z M104.458,146.34c-0.498,0-0.798-0.199-0.798-0.499
			c0-0.298,0.299-0.497,0.798-0.497s0.798,0.199,0.798,0.497C105.156,146.041,104.757,146.34,104.458,146.34z M106.253,147.637
			c-0.5,0-0.798-0.199-0.798-0.499s0.299-0.498,0.798-0.498c0.498,0,0.798,0.198,0.798,0.498
			C106.951,147.438,106.552,147.637,106.253,147.637z M108.646,148.634c-0.498,0-0.798-0.2-0.798-0.499s0.299-0.498,0.798-0.498
			c0.5,0,0.798,0.199,0.798,0.498C109.543,148.434,109.045,148.634,108.646,148.634z M111.139,148.634
			c-0.499,0-0.798-0.2-0.798-0.499s0.299-0.498,0.798-0.498c0.5,0,0.798,0.199,0.798,0.498
			C111.937,148.434,111.638,148.634,111.139,148.634z M113.532,148.334c-0.499,0-0.798-0.199-0.798-0.498s0.299-0.498,0.798-0.498
			c0.499,0,0.798,0.199,0.798,0.498C114.429,147.936,114.031,148.334,113.532,148.334z M126.297,138.562
			c-11.767,0-21.141-1.795-21.141-13.063c0-2.792,1.296-5.185,3.59-7.279c3.789-3.391,10.271-1.596,17.551-1.596
			c7.279,0,13.66-1.795,17.55,1.596c2.294,2.094,3.591,4.587,3.591,7.279C147.438,138.162,137.863,138.562,126.297,138.562z"/>
		<g>
			<ellipse fill="#7A2424" cx="114.829" cy="126.197" rx="2.892" ry="4.188"/>
			<ellipse fill="#7A2424" cx="138.463" cy="126.197" rx="2.891" ry="4.188"/>
			<circle fill="#7A2424" cx="126.297" cy="131.881" r="1.097"/>
			<path fill="#7A2424" d="M128.59,134.174c-0.199,0-0.299,0-0.499,0.199c-0.298,0.799-0.996,1.297-1.994,1.297
				c-0.798,0-1.595-0.498-1.994-1.297c0-0.199-0.299-0.299-0.498-0.199c-0.2,0-0.299,0.299-0.2,0.498
				c0.299,1.098,1.495,1.797,2.592,1.797c1.097,0,2.094-0.699,2.593-1.797C128.89,134.473,128.689,134.174,128.59,134.174z"/>
		</g>
		<g opacity="0.12">
			<ellipse fill="#7A2424" cx="98.475" cy="139.658" rx="0.798" ry="0.498"/>
			<path fill="#7A2424" d="M101.366,140.756c0-0.299-0.299-0.499-0.798-0.499c-0.499,0-0.798,0.2-0.798,0.499
				s0.299,0.498,0.798,0.498C101.067,141.254,101.366,141.154,101.366,140.756z"/>
			<ellipse fill="#7A2424" cx="101.865" cy="142.251" rx="0.798" ry="0.499"/>
			<ellipse fill="#7A2424" cx="103.162" cy="144.046" rx="0.798" ry="0.5"/>
			<ellipse fill="#7A2424" cx="104.458" cy="145.642" rx="0.798" ry="0.499"/>
			<ellipse fill="#7A2424" cx="106.253" cy="147.138" rx="0.798" ry="0.499"/>
			<ellipse fill="#7A2424" cx="108.646" cy="148.134" rx="0.798" ry="0.5"/>
			<ellipse fill="#7A2424" cx="111.139" cy="148.134" rx="0.798" ry="0.5"/>
			<path fill="#7A2424" d="M113.532,147.138c0.499,0,0.798,0.2,0.798,0.499s-0.299,0.498-0.798,0.498
				c-0.499,0-0.798-0.199-0.798-0.498C112.934,147.438,113.233,147.138,113.532,147.138z"/>
		</g>
		<path fill="#7A2424" d="M114.729,119.815c2.393,0,4.387,2.792,4.387,6.382s-1.994,6.381-4.387,6.381
			c-2.394,0-4.388-2.791-4.388-6.381C110.341,122.606,112.235,119.815,114.729,119.815 M114.729,119.316
			c-2.793,0-4.887,3.091-4.887,6.881c0,3.788,2.293,6.88,4.887,6.88c2.792,0,4.886-3.092,4.886-6.88
			C119.615,122.407,117.521,119.316,114.729,119.316L114.729,119.316z"/>
		<path fill="#7A2424" d="M138.463,119.815c2.393,0,4.387,2.792,4.387,6.382s-1.994,6.381-4.387,6.381
			c-2.395,0-4.389-2.791-4.389-6.381C133.875,122.606,136.068,119.815,138.463,119.815 M138.463,119.316
			c-2.793,0-4.887,3.091-4.887,6.881c0,3.788,2.293,6.88,4.887,6.88c2.791,0,4.885-3.092,4.885-6.88
			C143.348,122.407,141.055,119.316,138.463,119.316L138.463,119.316z"/>
	</g>
	<g>
		<path fill="#7A2424" d="M110.119,82.819h3.19v1.496h-5.085V71.451h1.895V82.819z"/>
		<path fill="#7A2424" d="M116.3,71.451h2.293c1.296,0,1.895,0.598,1.895,1.795v9.274c0,1.197-0.599,1.795-1.895,1.795H116.3
			c-1.296,0-1.894-0.599-1.894-1.795v-9.274C114.406,72.049,115.004,71.451,116.3,71.451z M118.694,82.22v-8.675
			c0-0.2,0-0.399-0.1-0.499s-0.2-0.1-0.499-0.1h-1.197c-0.199,0-0.399,0-0.498,0.1c-0.1,0.1-0.1,0.199-0.1,0.499v8.675
			c0,0.2,0,0.399,0.1,0.499c0.1,0.1,0.199,0.1,0.498,0.1h1.197c0.2,0,0.399,0,0.499-0.1C118.594,82.62,118.694,82.519,118.694,82.22
			z"/>
		<path fill="#7A2424" d="M128.467,75.24h-1.896v-1.695c0-0.199,0-0.399-0.099-0.499c-0.102-0.099-0.2-0.099-0.499-0.099h-1.097
			c-0.2,0-0.399,0-0.499,0.099c-0.1,0.1-0.1,0.2-0.1,0.499v8.775c0,0.199,0,0.399,0.1,0.498c0.1,0.1,0.199,0.1,0.499,0.1h1.097
			c0.2,0,0.399,0,0.499-0.1c0.099-0.1,0.099-0.199,0.099-0.498v-3.192h-0.997v-1.396h2.893v4.787c0,1.197-0.6,1.795-1.896,1.795
			h-2.194c-1.296,0-1.895-0.599-1.895-1.795v-9.274c0-1.197,0.599-1.795,1.895-1.795h2.194c1.296,0,1.896,0.598,1.896,1.795V75.24z"
			/>
		<path fill="#7A2424" d="M130.561,71.451h1.895v12.864h-1.895V71.451z"/>
		<path fill="#7A2424" d="M139.336,71.451h1.694v12.864h-1.894l-2.693-9.274v9.274h-1.695V71.451h1.994l2.594,9.074V71.451
			L139.336,71.451z"/>
	</g>
</g>
</svg>
