<?xml version="1.0" encoding="utf-8"?>
<!-- Generator: Adobe Illustrator 17.0.1, SVG Export Plug-In . SVG Version: 6.00 Build 0)  -->
<!DOCTYPE svg PUBLIC "-//W3C//DTD SVG 1.1//EN" "http://www.w3.org/Graphics/SVG/1.1/DTD/svg11.dtd">
<svg version="1.1" id="Capa_1" xmlns="http://www.w3.org/2000/svg" xmlns:xlink="http://www.w3.org/1999/xlink" x="0px" y="0px"
	 width="28.128px" height="28.128px" viewBox="0 0 28.128 28.128" enable-background="new 0 0 28.128 28.128" xml:space="preserve">
<g>
	<path fill="#312926" d="M14.064,0C6.297,0,0,6.297,0,14.064c0,7.767,6.297,14.064,14.064,14.064
		c7.767,0,14.064-6.297,14.064-14.064C28.128,6.297,21.831,0,14.064,0z M14.064,26.903c-7.091,0-12.839-5.748-12.839-12.839
		S6.973,1.225,14.064,1.225s12.839,5.748,12.839,12.839S21.155,26.903,14.064,26.903z"/>
	<rect x="6.135" y="9.218" fill="#312926" width="2.003" height="2.003"/>
	<rect x="6.135" y="13.224" fill="#312926" width="2.003" height="2.003"/>
	<rect x="6.135" y="17.199" fill="#312926" width="2.003" height="2.003"/>
	<rect x="10.238" y="9.218" fill="#312926" width="11.923" height="2.003"/>
	<rect x="10.238" y="13.224" fill="#312926" width="11.923" height="2.003"/>
	<rect x="10.238" y="17.199" fill="#312926" width="11.923" height="2.003"/>
</g>
</svg>
