<?xml version="1.0" encoding="utf-8"?>
<!-- Generator: Adobe Illustrator 18.0.0, SVG Export Plug-In . SVG Version: 6.00 Build 0)  -->
<!DOCTYPE svg PUBLIC "-//W3C//DTD SVG 1.0//EN" "http://www.w3.org/TR/2001/REC-SVG-20010904/DTD/svg10.dtd">
<svg version="1.0" id="Layer_1" xmlns="http://www.w3.org/2000/svg" xmlns:xlink="http://www.w3.org/1999/xlink" x="0px" y="0px"
	 viewBox="0 0 103.6 36" enable-background="new 0 0 103.6 36" xml:space="preserve">
<g>
	<polygon fill="#FFFFFF" points="31.2,14.1 35.8,14.1 33.6,7.4 	"/>
	<polygon fill="#FFFFFF" points="89.7,14.1 94.3,14.1 92,7.4 	"/>
	<path fill="#FFFFFF" d="M95.9,0.5h-7.8L84,11.6L83.1,0.5h-8.3l-2.7,6.1l-2.7-6.1h-8.3l-0.2,2.7l0,0.2l-0.1-0.1
		C60.5,2.9,57.6,0,52,0c-5.5,0-10,3.4-11.6,8.3l-2.9-7.8h-7.8l-4.1,11.1L24.7,0.5h-8.3l-2.7,6.1L11,0.5H2.7L1.5,15.7H0v9h5.9
		c2.3,0,3.9-1.1,4.5-2.9h6.7c0.7,1.9,2.2,2.9,4.4,2.9h5.8c2.3,0,3.7-1,4.7-3.2c0.1-0.1,0.7-1.6,0.7-1.6h1.9l0.4,1.2
		c0.9,2.4,2.4,3.6,5,3.6h24.4c2.3,0,3.9-1.1,4.5-2.9h6.7c0.7,1.9,2.2,2.9,4.4,2.9H86c2.4,0,3.9-1.2,4.7-3.6l0.3-1.2H93l0.4,1.2
		c0.9,2.4,2.4,3.6,5,3.6h5.2v-9h-2.1L95.9,0.5z M24.4,21.6h-2.9c-1.2,0-1.6-0.5-1.7-1.7l-0.6-11L15,18.4h-2.7L8.2,8.9l-0.6,11
		c-0.1,1.2-0.5,1.7-1.7,1.7H2.9v-2.9h0.8c0.4,0,0.5-0.2,0.6-0.6L5.5,3.3H9l4.7,11.1h0.1l4.7-11.1h3.5L23,18.2c0,0.4,0.2,0.6,0.6,0.6
		h0.8V21.6z M41.9,21.6h-2c-1.3,0-1.7-0.3-2.2-1.5l-1.1-3.2h-6.2l-1.1,3.2c-0.4,1.2-0.8,1.5-2.1,1.5h-2v-2.9h0.4
		c0.4,0,0.6-0.1,0.8-0.6l5.4-14.8h3.5l5.4,14.8c0.2,0.5,0.4,0.6,0.8,0.6h0.4V21.6z M59.8,21.6h-2.9v-0.9c0-0.4,0-0.8,0-0.8h-0.1
		c0,0-2,2-5.4,2c-4.8,0-8.9-3.7-8.9-9.5c0-5.2,4-9.3,9.3-9.3c4.5,0,6.7,2.3,6.7,2.3l-1.9,2.4c0,0-1.9-1.6-4.7-1.6
		c-3.2,0-5.9,2.5-5.9,6.2c0,4,2.7,6.4,6,6.4c2.9,0,4.6-1.9,4.6-1.9v-1.4c0-0.4-0.2-0.6-0.6-0.6h-1.1v-2.9h3c1.2,0,1.7,0.5,1.7,1.7
		V21.6z M82.9,21.6H80c-1.2,0-1.6-0.5-1.7-1.7l-0.6-11l-4.1,9.6h-2.7l-4.1-9.6l-0.6,11c-0.1,1.2-0.5,1.7-1.8,1.7h-2.9v-2.9h0.8
		c0.4,0,0.5-0.2,0.6-0.6L64,3.3h3.5l4.7,11.1h0.1l4.7-11.1h3.5l1.2,14.8c0,0.4,0.2,0.6,0.6,0.6h0.8V21.6z M100.4,21.6h-2
		c-1.3,0-1.7-0.3-2.2-1.5l-1.1-3.2h-6.2l-1.1,3.2c-0.4,1.2-0.9,1.5-2.1,1.5h-2v-2.9H84c0.4,0,0.6-0.1,0.8-0.6l5.4-14.8h3.5l5.4,14.8
		c0.2,0.5,0.4,0.6,0.8,0.6h0.4V21.6z"/>
	<polygon fill="#FFFFFF" points="52.8,31.1 51.8,29.2 50.8,31.1 48.7,31.5 50.2,33 49.9,35.1 51.8,34.1 53.7,35.1 53.4,33 
		54.9,31.5 	"/>
	<path fill="#FFFFFF" d="M11.9,30.1c0-0.2,0.1-0.4,0.2-0.5c0.1-0.1,0.2-0.2,0.3-0.3c0.1-0.1,0.3-0.1,0.5-0.1c0.2,0,0.4,0,0.5,0.1
		c0.1,0.1,0.2,0.2,0.3,0.3c0.1,0.1,0.1,0.3,0.2,0.5c0,0.2,0.1,0.4,0.1,0.7h1.1c0-0.4,0-0.7-0.1-1c-0.1-0.3-0.2-0.6-0.4-0.8
		c-0.2-0.2-0.4-0.4-0.7-0.5c-0.3-0.1-0.6-0.2-1-0.2c-0.4,0-0.7,0.1-1,0.2c-0.3,0.1-0.5,0.3-0.7,0.6c-0.2,0.2-0.3,0.5-0.4,0.9
		c-0.1,0.3-0.1,0.7-0.1,1.1v2.1c0,0.4,0,0.8,0.1,1.1c0.1,0.3,0.2,0.6,0.4,0.9c0.2,0.2,0.4,0.4,0.7,0.6c0.3,0.1,0.6,0.2,1,0.2
		c0.4,0,0.7-0.1,1-0.2c0.3-0.1,0.5-0.3,0.7-0.5c0.2-0.2,0.3-0.5,0.4-0.8c0.1-0.3,0.1-0.6,0.1-1v-0.3H14v0.3c0,0.2,0,0.4-0.1,0.6
		c0,0.2-0.1,0.4-0.2,0.5c-0.1,0.2-0.2,0.3-0.3,0.4c-0.1,0.1-0.3,0.1-0.5,0.1c-0.2,0-0.4,0-0.5-0.1c-0.1-0.1-0.2-0.2-0.3-0.4
		c-0.1-0.2-0.1-0.3-0.2-0.5c0-0.2-0.1-0.4-0.1-0.6v-2.7C11.9,30.6,11.9,30.3,11.9,30.1z"/>
	<path fill="#FFFFFF" d="M24,29.1c-0.2-0.2-0.4-0.4-0.7-0.5c-0.3-0.1-0.6-0.2-1-0.2c-0.3,0-0.5,0-0.7,0.1c-0.2,0.1-0.4,0.1-0.6,0.3
		c-0.2,0.1-0.3,0.2-0.4,0.4c-0.1,0.2-0.2,0.3-0.3,0.5c-0.1,0.2-0.1,0.4-0.1,0.6c0,0.2,0,0.4,0,0.6v2.7c0,0.2,0,0.4,0,0.6
		c0,0.2,0.1,0.4,0.1,0.6c0.1,0.2,0.2,0.4,0.3,0.5c0.1,0.2,0.2,0.3,0.4,0.4c0.2,0.1,0.3,0.2,0.6,0.3C21.8,36,22,36,22.3,36
		c0.4,0,0.8-0.1,1-0.2c0.3-0.1,0.5-0.3,0.7-0.5c0.2-0.2,0.3-0.5,0.4-0.8c0.1-0.3,0.1-0.6,0.1-1v-2.7c0-0.3,0-0.7-0.1-1
		C24.3,29.6,24.2,29.3,24,29.1z M23.4,33.8c0,0.2,0,0.4-0.1,0.5c0,0.2-0.1,0.3-0.2,0.4C23.1,34.9,23,35,22.8,35
		c-0.1,0.1-0.3,0.1-0.5,0.1c-0.2,0-0.4,0-0.5-0.1c-0.1-0.1-0.2-0.2-0.3-0.3c-0.1-0.1-0.1-0.3-0.2-0.4c0-0.2-0.1-0.3-0.1-0.5v-3.2
		c0-0.2,0-0.4,0.1-0.5c0-0.2,0.1-0.3,0.2-0.4c0.1-0.1,0.2-0.2,0.3-0.3c0.1-0.1,0.3-0.1,0.5-0.1c0.2,0,0.4,0,0.5,0.1
		c0.1,0.1,0.2,0.2,0.3,0.3c0.1,0.1,0.1,0.3,0.2,0.4c0,0.2,0.1,0.3,0.1,0.5V33.8z"/>
	<polygon fill="#FFFFFF" points="32.4,33.3 30.4,28.4 29.7,28.4 29.7,35.9 30.8,35.9 30.8,30.9 32.7,35.9 33.4,35.9 33.4,28.4 
		32.4,28.4 	"/>
	<polygon fill="#FFFFFF" points="38.8,35.9 39.9,35.9 39.9,32.4 41.2,32.4 41.2,31.6 39.9,31.6 39.9,29.2 41.8,29.2 41.8,28.4 
		38.8,28.4 	"/>
	<g>
		<path fill="#FFFFFF" d="M62.4,35.9v-1.1l1.9-2.7c0,0,0.1-0.1,0.1-0.2c0.1-0.1,0.1-0.2,0.2-0.2c0,0,0.1-0.1,0.1-0.2
			c0.1-0.1,0.1-0.2,0.1-0.2c0-0.1,0.1-0.1,0.1-0.2c0-0.1,0.1-0.2,0.1-0.3c0-0.1,0-0.2,0-0.3c0-0.1,0-0.2,0-0.3
			c0-0.3-0.1-0.6-0.2-0.8c-0.1-0.2-0.3-0.3-0.6-0.3c-0.2,0-0.3,0-0.4,0.1c-0.1,0.1-0.2,0.2-0.3,0.3s-0.1,0.3-0.1,0.4
			c0,0.2,0,0.3,0,0.5v0.3h-1.1v-0.3c0-0.7,0.2-1.3,0.5-1.7c0.3-0.4,0.8-0.6,1.4-0.6c0.6,0,1.1,0.2,1.4,0.5c0.3,0.3,0.5,0.8,0.5,1.5
			c0,0.2,0,0.5-0.1,0.7c0,0.2-0.1,0.4-0.2,0.6c-0.1,0.2-0.2,0.3-0.2,0.5c-0.1,0.1-0.2,0.3-0.3,0.5l-1.9,2.4h2.7v1.1H62.4z"/>
		<path fill="#FFFFFF" d="M73.1,36c-0.4,0-0.8-0.1-1.1-0.3c-0.3-0.2-0.5-0.5-0.6-0.8c-0.1-0.3-0.2-0.7-0.2-1.2v-3.2
			c0-0.7,0.2-1.2,0.5-1.6c0.3-0.4,0.8-0.6,1.4-0.6c0.6,0,1.1,0.2,1.4,0.6c0.3,0.4,0.5,0.9,0.5,1.6v3.2c0,0.7-0.2,1.2-0.5,1.6
			C74.2,35.8,73.7,36,73.1,36z M73.1,35.1c0.5,0,0.8-0.5,0.8-1.4v-3.2c0-0.2,0-0.3,0-0.4c0-0.1,0-0.2-0.1-0.4c0-0.1-0.1-0.2-0.1-0.3
			c-0.1-0.1-0.1-0.1-0.2-0.2c-0.1-0.1-0.2-0.1-0.4-0.1c-0.1,0-0.3,0-0.4,0.1c-0.1,0.1-0.2,0.1-0.2,0.2c-0.1,0.1-0.1,0.2-0.1,0.3
			c0,0.1-0.1,0.2-0.1,0.4c0,0.1,0,0.3,0,0.4v3.2c0,0.2,0,0.3,0,0.5c0,0.1,0.1,0.3,0.1,0.4c0.1,0.1,0.1,0.2,0.3,0.3
			C72.8,35.1,72.9,35.1,73.1,35.1z"/>
		<path fill="#FFFFFF" d="M80.8,35.9v-6H80v-0.8c0.5-0.2,0.9-0.5,1.1-0.8h0.8v7.6H80.8z"/>
		<path fill="#FFFFFF" d="M89,36c-0.7,0-1.2-0.2-1.4-0.6c-0.3-0.4-0.4-0.9-0.4-1.7h1.1v0.2c0,0.1,0,0.3,0,0.4c0,0.1,0,0.2,0.1,0.3
			c0,0.1,0.1,0.2,0.1,0.3c0.1,0.1,0.1,0.1,0.2,0.2c0.1,0,0.2,0.1,0.3,0.1c0.1,0,0.2,0,0.3,0c0.1,0,0.1-0.1,0.2-0.1
			c0.1,0,0.1-0.1,0.2-0.2c0-0.1,0.1-0.1,0.1-0.2c0-0.1,0.1-0.1,0.1-0.2c0-0.1,0-0.2,0-0.3c0-0.1,0-0.2,0-0.3c0-0.1,0-0.2,0-0.3
			c0-0.1,0-0.2,0-0.3c0-0.1,0-0.1,0-0.1c0-0.1,0-0.2,0-0.3c0-0.1,0-0.2,0-0.3c0-0.1,0-0.2-0.1-0.3c0-0.1-0.1-0.1-0.1-0.2
			c0-0.1-0.1-0.1-0.1-0.2c-0.1,0-0.1-0.1-0.2-0.1s-0.2,0-0.3,0c-0.2,0-0.4,0.1-0.5,0.2c-0.1,0.1-0.2,0.3-0.3,0.4h-0.9v-4.1h3.4v1.1
			h-2.4l-0.1,1.8c0.3-0.2,0.7-0.3,1.1-0.3c0.2,0,0.5,0,0.6,0.1s0.3,0.2,0.5,0.3c0.1,0.1,0.2,0.3,0.3,0.5c0.1,0.2,0.1,0.4,0.2,0.6
			c0,0.2,0,0.5,0,0.7c0,0.3,0,0.6-0.1,0.9c0,0.3-0.1,0.5-0.2,0.8c-0.1,0.2-0.2,0.4-0.3,0.6c-0.1,0.2-0.3,0.3-0.6,0.4
			C89.6,35.9,89.3,36,89,36z"/>
	</g>
</g>
</svg>
