<?xml version="1.0" encoding="utf-8"?>
<!-- Generator: Adobe Illustrator 17.0.2, SVG Export Plug-In . SVG Version: 6.00 Build 0)  -->
<!DOCTYPE svg PUBLIC "-//W3C//DTD SVG 1.1//EN" "http://www.w3.org/Graphics/SVG/1.1/DTD/svg11.dtd">
<svg version="1.1" xmlns="http://www.w3.org/2000/svg" xmlns:xlink="http://www.w3.org/1999/xlink" x="0px" y="0px"
	 width="22.862px" height="25.166px" viewBox="0 0 22.862 25.166" enable-background="new 0 0 22.862 25.166" xml:space="preserve">
<g id="Capa_2">
</g>
<g id="Capa_1">
	<path fill="#3A332C" d="M22.862,10.516c-0.306-0.866-0.859-1.532-1.189-1.883c-1.119,0.232-1.781-1.002-0.968-1.568
		c0.253-0.159,0.582-0.074,0.711,0.142c0.266,0.443-0.408,0.489-0.281,0.147c0.003-0.012,0.025-0.043-0.024-0.068
		c-0.275-0.119-0.547,0.214-0.467,0.525c0.063,0.328,0.401,0.582,0.919,0.561c0.898-0.133,1.159-1.18,0.574-1.977
		c-0.361-0.573-1.389-0.81-1.998-0.235c1.021-1.117,0.022-3.119-1.619-3.042c-1.271,0.042-1.933,1.341-1.29,2.148
		c0.725,0.891,1.978,0.258,1.756-0.486c-0.014-0.052-0.056-0.096-0.114-0.054c-0.446,0.289-0.689-0.423-0.191-0.467
		c0.699-0.13,1.272,2.082-1.059,2.378C17.19,6.659,16.5,6.828,15.754,7.173c0.514-0.47,0.255-1.304-0.357-1.283
		c-0.437,0.011-0.576,0.371-0.492,0.575c0.067,0.164,0.226,0.179,0.254,0.122c-0.026-0.073,0.07-0.149,0.146-0.073
		c0.079,0.079-0.033,0.291-0.275,0.235c-0.126-0.035-0.267-0.144-0.312-0.382C14.492,5.499,14.54,3.273,15.7,1.988
		c0.453-0.547,1.001-0.176,0.962,0.168c-0.03,0.184-0.277,0.108-0.21-0.015c0.004-0.023,0.037-0.082-0.051-0.118
		c-0.285-0.088-0.56,0.247-0.386,0.586c0.13,0.215,0.373,0.407,0.821,0.297c0.661-0.114,0.915-1.232-0.051-1.865
		C15.945,0.543,14.843,0,13.29,0c-0.476,0-0.863,0.386-0.863,0.863c0,0.466,0.369,0.845,0.831,0.862v0.002
		c-0.002,1.577-0.209,3.976-1.827,6.689C9.813,5.702,9.606,3.303,9.604,1.726V1.725c0.462-0.017,0.831-0.396,0.831-0.862
		C10.435,0.386,10.048,0,9.572,0C8.019,0,6.917,0.543,6.077,1.041C5.111,1.674,5.365,2.792,6.026,2.906
		c0.448,0.11,0.691-0.082,0.821-0.297C7.021,2.27,6.746,1.934,6.461,2.022C6.372,2.059,6.405,2.118,6.409,2.14
		C6.477,2.263,6.23,2.34,6.2,2.156C6.161,1.811,6.709,1.44,7.162,1.988c1.16,1.286,1.208,3.511,0.982,4.379
		C8.099,6.606,7.957,6.715,7.831,6.75C7.589,6.806,7.478,6.593,7.556,6.515c0.076-0.076,0.173,0,0.146,0.073
		C7.73,6.644,7.889,6.629,7.956,6.465C8.04,6.261,7.902,5.901,7.464,5.89C6.852,5.869,6.594,6.703,7.108,7.173
		C6.362,6.828,5.672,6.659,5.241,6.636C2.91,6.341,3.483,4.128,4.182,4.258c0.497,0.044,0.255,0.756-0.191,0.467
		c-0.058-0.042-0.1,0.002-0.114,0.054C3.655,5.523,4.908,6.157,5.633,5.265c0.643-0.807-0.02-2.106-1.29-2.148
		C2.7,3.041,1.702,5.043,2.723,6.16C2.113,5.585,1.086,5.822,0.725,6.395C0.14,7.192,0.401,8.239,1.299,8.372
		C1.816,8.392,2.155,8.138,2.218,7.81c0.08-0.311-0.192-0.644-0.467-0.525C1.702,7.311,1.724,7.342,1.727,7.353
		C1.854,7.696,1.18,7.65,1.446,7.207c0.129-0.216,0.459-0.301,0.711-0.142C2.97,7.63,2.308,8.864,1.189,8.632
		C0.859,8.984,0.306,9.65,0,10.516c0,0,0.853,1.952,2.589,2.841c-0.334,0.381-0.74,1.428,0.1,2.17
		c0.614,0.531,1.501,0.462,1.888-0.13c0.375-0.615,0.022-1.134-0.43-1.191C4,14.18,3.808,14.226,3.676,14.341
		c-0.32,0.303,0.046,0.641,0.12,0.516c0.045-0.134,0.227-0.121,0.272,0.012c0.045,0.097-0.083,0.228-0.203,0.228
		c-0.781,0.073-0.773-1.332,0.478-1.249c0.662,0.048,1.671,0.085,2.895-0.392c1.205-0.532,2.376-1.533,2.376-1.533
		c-0.249,1.418-1.027,2.617-1.317,3.082c0.097,1.384,1.143,1.919,1.143,1.919H6.051c-0.013,0.003-0.025,0.006-0.036,0.009
		c-0.161-0.166-0.387-0.269-0.636-0.269c-0.491,0-0.888,0.398-0.888,0.888c0,0.491,0.398,0.888,0.888,0.888
		c0.028,0,0.057,0.017,0.052,0.052c-0.523,2.617,1.18,4.247,1.18,4.247s4.07,0.735,4.82,2.425v0v0.002l0,0v0c0,0,0,0,0-0.001
		c0,0,0,0,0,0.001v-0.001l0,0v-0.001v0c0.75-1.689,4.82-2.425,4.82-2.425s1.702-1.631,1.18-4.247
		c-0.004-0.035,0.024-0.052,0.052-0.052c0.491,0,0.888-0.398,0.888-0.888c0-0.491-0.398-0.888-0.888-0.888
		c-0.249,0-0.475,0.103-0.636,0.269c-0.012-0.003-0.023-0.006-0.036-0.009h-3.389c0,0,1.047-0.536,1.143-1.919
		c-0.29-0.465-1.068-1.663-1.317-3.082c0,0,1.171,1.001,2.376,1.533c1.225,0.477,2.233,0.44,2.895,0.392
		c1.251-0.083,1.258,1.322,0.478,1.249c-0.121-0.001-0.249-0.131-0.203-0.228c0.045-0.133,0.227-0.145,0.272-0.012
		c0.074,0.125,0.44-0.213,0.12-0.516c-0.131-0.115-0.324-0.16-0.472-0.135c-0.452,0.057-0.805,0.575-0.43,1.191
		c0.387,0.592,1.275,0.661,1.889,0.13c0.839-0.742,0.434-1.789,0.1-2.17C22.008,12.467,22.862,10.516,22.862,10.516z M1.468,10.516
		c0.569-1.409,2.115-2.144,3.272-2.144c1.8-0.083,3.534,1.084,4.141,2.302C8.646,11.418,3.796,14.857,1.468,10.516z M9.605,9.129
		C9.531,9.031,9.507,8.996,9.479,8.962C8.935,8.301,8.27,7.797,7.612,7.43c0.039,0.01,0.08,0.019,0.123,0.026
		c0.566,0.044,1.096-0.546,1.13-1.229c0.087-0.61,0.08-1.377-0.085-2.258C9.62,5.751,9.61,9.136,9.605,9.129z M14.583,18.27
		c1.202,0,1.656,0.918,1.684,1.832c0.025,0.792-0.9,1.58-1.301,1.764c-1.161,0.669-2.407,0.89-3.536,0.879
		c-1.129,0.012-2.374-0.209-3.536-0.879c-0.401-0.184-1.326-0.972-1.301-1.764c0.029-0.913,0.482-1.832,1.684-1.832
		c1.58,0,2.885,0,3.149,0c0,0,0.001,0,0.002,0h0h0.001h0c0.001,0,0.003,0,0.003,0C11.698,18.27,13.003,18.27,14.583,18.27z
		 M13.77,15.253c0.134,0.783-0.794,1.855-2.339,1.94v0l0,0l0,0l0,0l0,0v0c-1.545-0.085-2.473-1.157-2.339-1.94
		c0,0,0.534-0.297,2.34-0.299C13.237,14.956,13.77,15.253,13.77,15.253z M13.383,8.962c-0.028,0.034-0.052,0.068-0.126,0.167
		c-0.005,0.007-0.015-3.378,0.825-5.159c-0.165,0.881-0.172,1.648-0.085,2.258c0.034,0.683,0.564,1.273,1.13,1.229
		C15.169,7.449,15.21,7.44,15.25,7.43C14.592,7.797,13.926,8.301,13.383,8.962z M13.98,10.674c0.607-1.218,2.341-2.385,4.141-2.302
		c1.157,0,2.704,0.735,3.272,2.144C19.065,14.857,14.216,11.418,13.98,10.674z"/>
</g>
</svg>
